  0
SECTION
  2
HEADER
  9
$ACADVER
  1
AC1006
  9
$EXTMIN
 10
0.000000
 20
0.000000
 30
0.000000
  9
$EXTMAX
 10
113.000000
 20
106.000000
 30
0.000000
  0
ENDSEC
  0
SECTION
  2
ENTITIES
  0
POLYLINE
  8
0
 66
1
 70
1
  0
VERTEX
  8
0
 10
79.610994
 20
103.214638
 42
-0.059925
  0
VERTEX
  8
0
 10
78.317063
 20
101.310898
 42
-0.066618
  0
VERTEX
  8
0
 10
76.648959
 20
99.844627
 42
-0.042030
  0
VERTEX
  8
0
 10
74.075355
 20
98.425120
 42
-0.010049
  0
VERTEX
  8
0
 10
69.572950
 20
96.521875
 42
0.050954
  0
VERTEX
  8
0
 10
66.873208
 20
95.110665
 42
0.514885
  0
VERTEX
  8
0
 10
66.834236
 20
94.038950
 42
0.137354
  0
VERTEX
  8
0
 10
68.892515
 20
93.209258
 42
0.012288
  0
VERTEX
  8
0
 10
74.500000
 20
92.728074
 42
-0.008278
  0
VERTEX
  8
0
 10
77.350982
 20
92.506448
 42
-0.008861
  0
VERTEX
  8
0
 10
80.128915
 20
92.194416
 42
-0.008497
  0
VERTEX
  8
0
 10
82.504017
 20
91.843781
 42
-0.040618
  0
VERTEX
  8
0
 10
83.832477
 20
91.511982
 42
0.031264
  0
VERTEX
  8
0
 10
85.204126
 20
91.142038
 42
0.283372
  0
VERTEX
  8
0
 10
85.761690
 20
91.346407
 42
0.180582
  0
VERTEX
  8
0
 10
85.981172
 20
92.031859
 42
0.013041
  0
VERTEX
  8
0
 10
85.832477
 20
94.051004
 42
-0.027190
  0
VERTEX
  8
0
 10
85.749947
 20
95.874715
 42
-0.121452
  0
VERTEX
  8
0
 10
86.013694
 20
96.903921
 42
-0.151294
  0
VERTEX
  8
0
 10
86.690232
 20
97.570391
 42
-0.050158
  0
VERTEX
  8
0
 10
88.000000
 20
98.089523
 42
-0.055191
  0
VERTEX
  8
0
 10
92.016435
 20
98.765987
 42
-0.018215
  0
VERTEX
  8
0
 10
98.008370
 20
98.886816
 42
-0.012300
  0
VERTEX
  8
0
 10
103.936300
 20
98.644446
 42
-0.181953
  0
VERTEX
  8
0
 10
105.800000
 20
97.800000
 42
-0.196548
  0
VERTEX
  8
0
 10
107.022235
 20
94.886838
 42
-0.099702
  0
VERTEX
  8
0
 10
106.260058
 20
90.916124
 42
-0.053392
  0
VERTEX
  8
0
 10
103.284921
 20
85.405809
 42
-0.014839
  0
VERTEX
  8
0
 10
97.481650
 20
77.470345
 42
-0.021947
  0
VERTEX
  8
0
 10
91.513976
 20
70.456650
 42
-0.010801
  0
VERTEX
  8
0
 10
83.354248
 20
62.049805
 42
-0.004511
  0
VERTEX
  8
0
 10
74.950726
 20
53.906232
 42
-0.192858
  0
VERTEX
  8
0
 10
72.683551
 20
53.001666
 42
-0.284645
  0
VERTEX
  8
0
 10
72.022604
 20
53.412399
 42
-0.001587
  0
VERTEX
  8
0
 10
68.616418
 20
60.339997
 42
-0.006026
  0
VERTEX
  8
0
 10
64.802453
 20
68.404813
 42
-0.003714
  0
VERTEX
  8
0
 10
60.500000
 20
77.980878
 42
0.001590
  0
VERTEX
  8
0
 10
56.246370
 20
87.556873
 42
0.002624
  0
VERTEX
  8
0
 10
52.584375
 20
95.617168
 42
0.000300
  0
VERTEX
  8
0
 10
49.285150
 20
102.767669
 42
0.299999
  0
VERTEX
  8
0
 10
49.000000
 20
102.944461
 42
0.284371
  0
VERTEX
  8
0
 10
48.542341
 20
102.643287
 42
0.000282
  0
VERTEX
  8
0
 10
43.144394
 20
90.999152
 42
0.002248
  0
VERTEX
  8
0
 10
38.379077
 20
80.581850
 42
0.019496
  0
VERTEX
  8
0
 10
36.461552
 20
75.857182
 42
0.122433
  0
VERTEX
  8
0
 10
36.377515
 20
75.043395
 42
0.332517
  0
VERTEX
  8
0
 10
36.762487
 20
74.656405
 42
0.082532
  0
VERTEX
  8
0
 10
37.852443
 20
74.676801
 42
0.006682
  0
VERTEX
  8
0
 10
40.669880
 20
75.238445
 42
0.022638
  0
VERTEX
  8
0
 10
42.587253
 20
75.739074
 42
0.025368
  0
VERTEX
  8
0
 10
44.378364
 20
76.395711
 42
0.025826
  0
VERTEX
  8
0
 10
45.829646
 20
77.103503
 42
0.108934
  0
VERTEX
  8
0
 10
46.551837
 20
77.740004
 42
-0.229998
  0
VERTEX
  8
0
 10
48.667616
 20
78.861184
 42
-0.174476
  0
VERTEX
  8
0
 10
51.203681
 20
78.047929
 42
-0.162764
  0
VERTEX
  8
0
 10
52.754776
 20
75.742851
 42
-0.210953
  0
VERTEX
  8
0
 10
52.387702
 20
73.250000
 42
-0.096769
  0
VERTEX
  8
0
 10
51.067843
 20
71.847212
 42
-0.128232
  0
VERTEX
  8
0
 10
49.438654
 20
71.219360
 42
-0.124580
  0
VERTEX
  8
0
 10
47.674405
 20
71.459203
 42
-0.088370
  0
VERTEX
  8
0
 10
45.973852
 20
72.523664
 42
0.061021
  0
VERTEX
  8
0
 10
44.763719
 20
73.376082
 42
0.103405
  0
VERTEX
  8
0
 10
43.579241
 20
73.724012
 42
0.065567
  0
VERTEX
  8
0
 10
42.000302
 20
73.642911
 42
0.013296
  0
VERTEX
  8
0
 10
39.250695
 20
73.060141
 42
0.000000
  0
VERTEX
  8
0
 10
34.404879
 20
71.897647
 42
0.000000
  0
VERTEX
  8
0
 10
25.691604
 20
52.792993
 42
0.002451
  0
VERTEX
  8
0
 10
22.380671
 20
45.438180
 42
0.004027
  0
VERTEX
  8
0
 10
19.659702
 20
39.178481
 42
0.000696
  0
VERTEX
  8
0
 10
17.319172
 20
33.651785
 42
0.305123
  0
VERTEX
  8
0
 10
17.393133
 20
33.273533
 42
0.269409
  0
VERTEX
  8
0
 10
18.624386
 20
32.947210
 42
0.002307
  0
VERTEX
  8
0
 10
28.423266
 20
35.678751
 42
0.004453
  0
VERTEX
  8
0
 10
37.747704
 20
38.414424
 42
0.103299
  0
VERTEX
  8
0
 10
40.162533
 20
39.734130
 42
0.076325
  0
VERTEX
  8
0
 10
40.996491
 20
40.699641
 42
0.011337
  0
VERTEX
  8
0
 10
42.317078
 20
42.915791
 42
0.012543
  0
VERTEX
  8
0
 10
43.762865
 20
45.628750
 42
0.010506
  0
VERTEX
  8
0
 10
45.162533
 20
48.574739
 42
-0.005965
  0
VERTEX
  8
0
 10
46.482973
 20
51.420348
 42
-0.009504
  0
VERTEX
  8
0
 10
47.686846
 20
53.817608
 42
-0.003895
  0
VERTEX
  8
0
 10
48.756897
 20
55.813195
 42
-0.273772
  0
VERTEX
  8
0
 10
49.069282
 20
55.998908
 42
-0.279636
  0
VERTEX
  8
0
 10
49.379495
 20
55.811510
 42
-0.003687
  0
VERTEX
  8
0
 10
50.452587
 20
53.723117
 42
-0.009277
  0
VERTEX
  8
0
 10
51.657399
 20
51.220835
 42
-0.005803
  0
VERTEX
  8
0
 10
52.978989
 20
48.250000
 42
0.003076
  0
VERTEX
  8
0
 10
54.303668
 20
45.227947
 42
0.004389
  0
VERTEX
  8
0
 10
55.519615
 20
42.562885
 42
0.002471
  0
VERTEX
  8
0
 10
56.575688
 20
40.329871
 42
0.064417
  0
VERTEX
  8
0
 10
56.937120
 20
39.772587
 42
0.384576
  0
VERTEX
  8
0
 10
59.582391
 20
39.420026
 42
0.008314
  0
VERTEX
  8
0
 10
71.105977
 20
47.619134
 42
0.017394
  0
VERTEX
  8
0
 10
82.527384
 20
56.664437
 42
0.032498
  0
VERTEX
  8
0
 10
90.994912
 20
64.868200
 42
0.017625
  0
VERTEX
  8
0
 10
102.213857
 20
78.160848
 42
0.058281
  0
VERTEX
  8
0
 10
108.185820
 20
87.916238
 42
0.111471
  0
VERTEX
  8
0
 10
109.706536
 20
95.020866
 42
0.225595
  0
VERTEX
  8
0
 10
107.250000
 20
100.043015
 42
0.057236
  0
VERTEX
  8
0
 10
105.323667
 20
101.244741
 42
0.081133
  0
VERTEX
  8
0
 10
103.386666
 20
101.804893
 42
0.040489
  0
VERTEX
  8
0
 10
100.519138
 20
101.915809
 42
0.005191
  0
VERTEX
  8
0
 10
94.364471
 20
101.591437
 42
0.000000
  0
VERTEX
  8
0
 10
84.228943
 20
100.951683
 42
0.000000
  0
VERTEX
  8
0
 10
83.595419
 20
103.475841
 42
0.057708
  0
VERTEX
  8
0
 10
82.885422
 20
105.355309
 42
0.298352
  0
VERTEX
  8
0
 10
81.964618
 20
105.875733
 42
0.223028
  0
VERTEX
  8
0
 10
80.883584
 20
105.279062
 42
0.037602
  0
SEQEND
  0
POLYLINE
  8
0
 66
1
 70
1
  0
VERTEX
  8
0
 10
66.638828
 20
40.836476
 42
0.009206
  0
VERTEX
  8
0
 10
61.569454
 20
37.435942
 42
0.100775
  0
VERTEX
  8
0
 10
59.886921
 20
35.668013
 42
0.190533
  0
VERTEX
  8
0
 10
59.547469
 20
33.836188
 42
0.050002
  0
VERTEX
  8
0
 10
60.426931
 20
30.923569
 42
-0.337182
  0
VERTEX
  8
0
 10
60.218567
 20
30.131574
 42
-0.139460
  0
VERTEX
  8
0
 10
59.127906
 20
29.688362
 42
-0.034104
  0
VERTEX
  8
0
 10
56.474011
 20
29.580363
 42
-0.003417
  0
VERTEX
  8
0
 10
50.130399
 20
29.798311
 42
0.008245
  0
VERTEX
  8
0
 10
44.055911
 20
29.948308
 42
0.025281
  0
VERTEX
  8
0
 10
39.943450
 20
29.774028
 42
0.031596
  0
VERTEX
  8
0
 10
36.394147
 20
29.215528
 42
0.019954
  0
VERTEX
  8
0
 10
32.340014
 20
28.140740
 42
0.025990
  0
VERTEX
  8
0
 10
26.362206
 20
25.951776
 42
0.025710
  0
VERTEX
  8
0
 10
20.621509
 20
23.147526
 42
0.020220
  0
VERTEX
  8
0
 10
15.948799
 20
20.306791
 42
0.251118
  0
VERTEX
  8
0
 10
15.000000
 20
18.536772
 42
0.178916
  0
VERTEX
  8
0
 10
15.695518
 20
16.655285
 42
0.007268
  0
VERTEX
  8
0
 10
20.567209
 20
11.130988
 42
0.006722
  0
VERTEX
  8
0
 10
25.621809
 20
5.712711
 42
0.204445
  0
VERTEX
  8
0
 10
27.291989
 20
5.000000
 42
0.081597
  0
VERTEX
  8
0
 10
27.929446
 20
5.104726
 42
0.010119
  0
VERTEX
  8
0
 10
29.256883
 20
5.583123
 42
0.011721
  0
VERTEX
  8
0
 10
30.820229
 20
6.224979
 42
0.009455
  0
VERTEX
  8
0
 10
32.469222
 20
6.985101
 42
-0.056219
  0
VERTEX
  8
0
 10
39.784362
 20
9.560564
 42
-0.060476
  0
VERTEX
  8
0
 10
47.309104
 20
10.356594
 42
-0.059404
  0
VERTEX
  8
0
 10
54.921101
 20
9.329847
 42
-0.051194
  0
VERTEX
  8
0
 10
62.493213
 20
6.522458
 42
0.000000
  0
VERTEX
  8
0
 10
67.486425
 20
4.065091
 42
0.000000
  0
VERTEX
  8
0
 10
71.243213
 20
6.668547
 42
0.030589
  0
VERTEX
  8
0
 10
72.695751
 20
7.812652
 42
0.036513
  0
VERTEX
  8
0
 10
73.908141
 20
9.064283
 42
0.039945
  0
VERTEX
  8
0
 10
74.750086
 20
10.252065
 42
0.135007
  0
VERTEX
  8
0
 10
75.000000
 20
11.160752
 42
-0.105716
  0
VERTEX
  8
0
 10
75.168818
 20
11.950282
 42
-0.067508
  0
VERTEX
  8
0
 10
75.666147
 20
12.750432
 42
-0.063040
  0
VERTEX
  8
0
 10
76.403328
 20
13.442662
 42
-0.066279
  0
VERTEX
  8
0
 10
77.277923
 20
13.915567
 42
0.099520
  0
VERTEX
  8
0
 10
78.341694
 20
14.585031
 42
0.035164
  0
VERTEX
  8
0
 10
79.562216
 20
15.920647
 42
0.031908
  0
VERTEX
  8
0
 10
80.780262
 20
17.677177
 42
0.026128
  0
VERTEX
  8
0
 10
81.856393
 20
19.693393
 42
0.000000
  0
VERTEX
  8
0
 10
84.156939
 20
24.605154
 42
0.000000
  0
VERTEX
  8
0
 10
79.548431
 20
34.999283
 42
0.001009
  0
VERTEX
  8
0
 10
77.764378
 20
39.001261
 42
0.001614
  0
VERTEX
  8
0
 10
76.222888
 20
42.410919
 42
0.000291
  0
VERTEX
  8
0
 10
74.850152
 20
45.416751
 42
0.089340
  0
VERTEX
  8
0
 10
74.698957
 20
45.634376
 42
0.341776
  0
VERTEX
  8
0
 10
74.490130
 20
45.660985
 42
0.001252
  0
VERTEX
  8
0
 10
72.231896
 20
44.324391
 42
0.005525
  0
VERTEX
  8
0
 10
69.654170
 20
42.751132
 42
0.003354
  0
SEQEND
  0
POLYLINE
  8
0
 66
1
 70
1
  0
VERTEX
  8
0
 10
84.388430
 20
20.465096
 42
-0.027701
  0
VERTEX
  8
0
 10
83.987293
 20
19.526393
 42
-0.011337
  0
VERTEX
  8
0
 10
83.344553
 20
18.297526
 42
-0.011177
  0
VERTEX
  8
0
 10
82.593040
 20
17.005825
 42
-0.014043
  0
VERTEX
  8
0
 10
81.837275
 20
15.845630
 42
0.032143
  0
VERTEX
  8
0
 10
81.133994
 20
14.675535
 42
0.026970
  0
VERTEX
  8
0
 10
80.539699
 20
13.355389
 42
0.027831
  0
VERTEX
  8
0
 10
80.128407
 20
12.086382
 42
0.064533
  0
VERTEX
  8
0
 10
80.000000
 20
11.095630
 42
-0.066326
  0
VERTEX
  8
0
 10
79.882813
 20
10.216098
 42
-0.105925
  0
VERTEX
  8
0
 10
79.536753
 20
9.544800
 42
-0.118518
  0
VERTEX
  8
0
 10
78.979399
 20
9.123012
 42
-0.097919
  0
VERTEX
  8
0
 10
78.250000
 20
8.962453
 42
0.109202
  0
VERTEX
  8
0
 10
77.327332
 20
8.737644
 42
0.022094
  0
VERTEX
  8
0
 10
75.839062
 20
7.923211
 42
0.022340
  0
VERTEX
  8
0
 10
74.159765
 20
6.799870
 42
0.019281
  0
VERTEX
  8
0
 10
72.500000
 20
5.477330
 42
0.000000
  0
VERTEX
  8
0
 10
68.500000
 20
2.029754
 42
0.000000
  0
VERTEX
  8
0
 10
81.250000
 20
2.014877
 42
0.002483
  0
VERTEX
  8
0
 10
86.138968
 20
2.033455
 42
0.004141
  0
VERTEX
  8
0
 10
90.254688
 20
2.103625
 42
0.000690
  0
VERTEX
  8
0
 10
93.866029
 20
2.200102
 42
0.406010
  0
VERTEX
  8
0
 10
94.000000
 20
2.337891
 42
0.102686
  0
VERTEX
  8
0
 10
93.946972
 20
2.593374
 42
0.000359
  0
VERTEX
  8
0
 10
92.693152
 20
5.477955
 42
0.001915
  0
VERTEX
  8
0
 10
91.256619
 20
8.742198
 42
0.001198
  0
VERTEX
  8
0
 10
89.551155
 20
12.552987
 42
0.005213
  0
VERTEX
  8
0
 10
87.236680
 20
17.551692
 42
0.033535
  0
VERTEX
  8
0
 10
85.875317
 20
19.979253
 42
0.140225
  0
VERTEX
  8
0
 10
85.014660
 20
20.725058
 42
0.439912
  0
SEQEND
  0
POLYLINE
  8
0
 66
1
 70
1
  0
VERTEX
  8
0
 10
9.877603
 20
15.315911
 42
0.021141
  0
VERTEX
  8
0
 10
7.201012
 20
12.186436
 42
0.011612
  0
VERTEX
  8
0
 10
4.181519
 20
8.148293
 42
0.006064
  0
VERTEX
  8
0
 10
1.391720
 20
4.128556
 42
0.149749
  0
VERTEX
  8
0
 10
1.000000
 20
2.849962
 42
0.408805
  0
VERTEX
  8
0
 10
1.656126
 20
2.181583
 42
0.001754
  0
VERTEX
  8
0
 10
12.773161
 20
2.014886
 42
0.002403
  0
VERTEX
  8
0
 10
23.713810
 20
1.941795
 42
0.199400
  0
VERTEX
  8
0
 10
25.238219
 20
2.571552
 42
0.370643
  0
VERTEX
  8
0
 10
25.270078
 20
2.992682
 42
0.011138
  0
VERTEX
  8
0
 10
24.111079
 20
4.496380
 42
0.017082
  0
VERTEX
  8
0
 10
22.555443
 20
6.294960
 42
0.010325
  0
VERTEX
  8
0
 10
20.598542
 20
8.321552
 42
-0.007633
  0
VERTEX
  8
0
 10
18.497604
 20
10.474003
 42
-0.007971
  0
VERTEX
  8
0
 10
16.494037
 20
12.659130
 42
-0.007716
  0
VERTEX
  8
0
 10
14.823362
 20
14.600069
 42
-0.034476
  0
VERTEX
  8
0
 10
13.943656
 20
15.815911
 42
0.000000
  0
VERTEX
  8
0
 10
12.500000
 20
18.131823
 42
0.000000
  0
SEQEND
  0
ENDSEC
  0
EOF
