  0
SECTION
  2
HEADER
  9
$ACADVER
  1
AC1006
  9
$EXTMIN
 10
0.000000
 20
0.000000
 30
0.000000
  9
$EXTMAX
 10
100.000000
 20
103.000000
 30
0.000000
  0
ENDSEC
  0
SECTION
  2
ENTITIES
  0
POLYLINE
  8
0
 66
1
 70
1
  0
VERTEX
  8
0
 10
39.347877
 20
101.580192
 42
0.075424
  0
VERTEX
  8
0
 10
26.352574
 20
96.260733
 42
0.065330
  0
VERTEX
  8
0
 10
14.792687
 20
87.110531
 42
0.065425
  0
VERTEX
  8
0
 10
5.999432
 20
75.302572
 42
0.076106
  0
VERTEX
  8
0
 10
1.105084
 20
62.200779
 42
0.076312
  0
VERTEX
  8
0
 10
0.304542
 20
47.184564
 42
0.073612
  0
VERTEX
  8
0
 10
4.012068
 20
32.420296
 42
0.073238
  0
VERTEX
  8
0
 10
11.862790
 20
19.299593
 42
0.074289
  0
VERTEX
  8
0
 10
23.129555
 20
9.072322
 42
0.076031
  0
VERTEX
  8
0
 10
36.143550
 20
2.993243
 42
0.070217
  0
VERTEX
  8
0
 10
50.745625
 20
0.860627
 42
0.070040
  0
VERTEX
  8
0
 10
65.401591
 20
2.851773
 42
0.074964
  0
VERTEX
  8
0
 10
78.572130
 20
8.805110
 42
0.034547
  0
VERTEX
  8
0
 10
83.444109
 20
12.457152
 42
0.021526
  0
VERTEX
  8
0
 10
88.642830
 20
17.352546
 42
0.015699
  0
VERTEX
  8
0
 10
93.108678
 20
22.233673
 42
0.179285
  0
VERTEX
  8
0
 10
94.000000
 20
24.639538
 42
0.234500
  0
VERTEX
  8
0
 10
93.246451
 20
26.157896
 42
0.274033
  0
VERTEX
  8
0
 10
91.669375
 20
26.339277
 42
0.080856
  0
VERTEX
  8
0
 10
88.896015
 20
24.515169
 42
0.018900
  0
VERTEX
  8
0
 10
84.930256
 20
20.584598
 42
-0.093497
  0
VERTEX
  8
0
 10
70.182853
 20
9.780367
 42
-0.100832
  0
VERTEX
  8
0
 10
52.901571
 20
5.462456
 42
-0.101465
  0
VERTEX
  8
0
 10
35.395346
 20
8.258410
 42
-0.095867
  0
VERTEX
  8
0
 10
20.000000
 20
17.734729
 42
-0.087112
  0
VERTEX
  8
0
 10
10.047571
 20
30.715699
 42
-0.090615
  0
VERTEX
  8
0
 10
5.285015
 20
46.134817
 42
-0.089816
  0
VERTEX
  8
0
 10
6.264544
 20
62.356342
 42
-0.083777
  0
VERTEX
  8
0
 10
12.846886
 20
77.641808
 42
-0.045068
  0
VERTEX
  8
0
 10
17.898892
 20
84.099533
 42
-0.049978
  0
VERTEX
  8
0
 10
23.868241
 20
89.303252
 42
-0.047801
  0
VERTEX
  8
0
 10
30.987750
 20
93.394529
 42
-0.035799
  0
VERTEX
  8
0
 10
39.474926
 20
96.535734
 42
-0.051557
  0
VERTEX
  8
0
 10
45.990760
 20
97.720654
 42
-0.031802
  0
VERTEX
  8
0
 10
53.787882
 20
97.824214
 42
-0.031944
  0
VERTEX
  8
0
 10
61.442467
 20
96.946503
 42
-0.057106
  0
VERTEX
  8
0
 10
67.500000
 20
95.124860
 42
0.000000
  0
VERTEX
  8
0
 10
72.500000
 20
92.974201
 42
0.000000
  0
VERTEX
  8
0
 10
72.175873
 20
86.189428
 42
0.012074
  0
VERTEX
  8
0
 10
72.091609
 20
82.617990
 42
0.041367
  0
VERTEX
  8
0
 10
72.284494
 20
80.306227
 42
0.062252
  0
VERTEX
  8
0
 10
72.791469
 20
78.609016
 42
0.066608
  0
VERTEX
  8
0
 10
73.692894
 20
77.130932
 42
0.000000
  0
VERTEX
  8
0
 10
75.534044
 20
74.857209
 42
0.000000
  0
VERTEX
  8
0
 10
85.348250
 20
82.661431
 42
0.000000
  0
VERTEX
  8
0
 10
95.162456
 20
90.465653
 42
0.000000
  0
VERTEX
  8
0
 10
92.065452
 20
93.232827
 42
0.023635
  0
VERTEX
  8
0
 10
90.752448
 20
94.298848
 42
0.025025
  0
VERTEX
  8
0
 10
89.368764
 20
95.214624
 42
0.025677
  0
VERTEX
  8
0
 10
88.105175
 20
95.877727
 42
0.094792
  0
VERTEX
  8
0
 10
87.234223
 20
96.093554
 42
0.001217
  0
VERTEX
  8
0
 10
86.260937
 20
96.143684
 42
0.000249
  0
VERTEX
  8
0
 10
84.540678
 20
96.227232
 42
0.000262
  0
VERTEX
  8
0
 10
82.541426
 20
96.322281
 42
0.000246
  0
VERTEX
  8
0
 10
80.500000
 20
96.417254
 42
-0.025889
  0
VERTEX
  8
0
 10
78.351258
 20
96.627992
 42
-0.019728
  0
VERTEX
  8
0
 10
76.028627
 20
97.072220
 42
-0.020094
  0
VERTEX
  8
0
 10
73.879954
 20
97.663670
 42
-0.043453
  0
VERTEX
  8
0
 10
72.299581
 20
98.323741
 42
0.060095
  0
VERTEX
  8
0
 10
65.322087
 20
100.969635
 42
0.035991
  0
VERTEX
  8
0
 10
56.571964
 20
102.475760
 42
0.035440
  0
VERTEX
  8
0
 10
47.457902
 20
102.727877
 42
0.048732
  0
SEQEND
  0
POLYLINE
  8
0
 66
1
 70
1
  0
VERTEX
  8
0
 10
90.155656
 20
84.687553
 42
0.154407
  0
VERTEX
  8
0
 10
89.816395
 20
83.853522
 42
0.113447
  0
VERTEX
  8
0
 10
89.962535
 20
82.859618
 42
0.062540
  0
VERTEX
  8
0
 10
90.669881
 20
81.555037
 42
0.016907
  0
VERTEX
  8
0
 10
92.106015
 20
79.687553
 42
0.048095
  0
VERTEX
  8
0
 10
95.540366
 20
76.253833
 42
0.369350
  0
VERTEX
  8
0
 10
97.646641
 20
76.292648
 42
0.339786
  0
VERTEX
  8
0
 10
98.064626
 20
78.470026
 42
0.046576
  0
VERTEX
  8
0
 10
95.449109
 20
82.655609
 42
0.017842
  0
VERTEX
  8
0
 10
93.563600
 20
84.952826
 42
0.120913
  0
VERTEX
  8
0
 10
92.365433
 20
85.785217
 42
0.232024
  0
VERTEX
  8
0
 10
91.319393
 20
85.691383
 42
0.083349
  0
SEQEND
  0
POLYLINE
  8
0
 66
1
 70
1
  0
VERTEX
  8
0
 10
53.000000
 20
78.660256
 42
-0.184381
  0
VERTEX
  8
0
 10
52.133028
 20
76.389151
 42
-0.039668
  0
VERTEX
  8
0
 10
49.031854
 20
73.428800
 42
-0.033221
  0
VERTEX
  8
0
 10
44.383777
 20
70.135289
 42
-0.018187
  0
VERTEX
  8
0
 10
38.300289
 20
66.703072
 42
0.018865
  0
VERTEX
  8
0
 10
31.837038
 20
63.045034
 42
0.045478
  0
VERTEX
  8
0
 10
27.445487
 20
59.750379
 42
0.059995
  0
VERTEX
  8
0
 10
24.496339
 20
56.363426
 42
0.066457
  0
VERTEX
  8
0
 10
22.555391
 20
52.483448
 42
0.066658
  0
VERTEX
  8
0
 10
21.849501
 20
48.965169
 42
0.063111
  0
VERTEX
  8
0
 10
22.072955
 20
45.316645
 42
0.067730
  0
VERTEX
  8
0
 10
23.149151
 20
42.095867
 42
0.108463
  0
VERTEX
  8
0
 10
24.950648
 20
39.839707
 42
-0.068369
  0
VERTEX
  8
0
 10
25.877828
 20
38.851148
 42
-0.066533
  0
VERTEX
  8
0
 10
26.514301
 20
37.640372
 42
-0.056356
  0
VERTEX
  8
0
 10
26.881008
 20
36.132164
 42
-0.031490
  0
VERTEX
  8
0
 10
27.000000
 20
34.244695
 42
0.074678
  0
VERTEX
  8
0
 10
27.433974
 20
31.355279
 42
0.082931
  0
VERTEX
  8
0
 10
28.694834
 20
28.833536
 42
0.115197
  0
VERTEX
  8
0
 10
30.349246
 20
27.404930
 42
0.265079
  0
VERTEX
  8
0
 10
31.936987
 20
27.461056
 42
0.134830
  0
VERTEX
  8
0
 10
32.732029
 20
28.315884
 42
0.165800
  0
VERTEX
  8
0
 10
32.896656
 20
29.386853
 42
0.095669
  0
VERTEX
  8
0
 10
32.354709
 20
30.797309
 42
0.027236
  0
VERTEX
  8
0
 10
31.000000
 20
32.727129
 42
-0.083023
  0
VERTEX
  8
0
 10
29.631667
 20
35.226795
 42
-0.076211
  0
VERTEX
  8
0
 10
29.097582
 20
38.111767
 42
-0.056102
  0
VERTEX
  8
0
 10
29.392821
 20
41.741446
 42
-0.022419
  0
VERTEX
  8
0
 10
30.570958
 20
46.596093
 42
-0.023206
  0
VERTEX
  8
0
 10
31.711004
 20
49.931906
 42
-0.095385
  0
VERTEX
  8
0
 10
32.851008
 20
51.726572
 42
-0.496243
  0
VERTEX
  8
0
 10
33.621566
 20
51.644129
 42
-0.134123
  0
VERTEX
  8
0
 10
34.016847
 20
50.250000
 42
0.167694
  0
VERTEX
  8
0
 10
34.189582
 20
49.764654
 42
0.398610
  0
VERTEX
  8
0
 10
34.536011
 20
49.716555
 42
0.082116
  0
VERTEX
  8
0
 10
35.154655
 20
50.334111
 42
0.013202
  0
VERTEX
  8
0
 10
36.115048
 20
51.750000
 42
-0.003666
  0
VERTEX
  8
0
 10
38.128425
 20
54.843677
 42
-0.579933
  0
VERTEX
  8
0
 10
38.463697
 20
54.822008
 42
-0.228507
  0
VERTEX
  8
0
 10
38.467321
 20
54.206296
 42
-0.002822
  0
VERTEX
  8
0
 10
36.703907
 20
50.546945
 42
-0.009258
  0
VERTEX
  8
0
 10
35.464254
 20
48.125838
 42
-0.090130
  0
VERTEX
  8
0
 10
34.750907
 20
47.228219
 42
-0.327797
  0
VERTEX
  8
0
 10
34.164269
 20
47.177645
 42
-0.128013
  0
VERTEX
  8
0
 10
33.565392
 20
47.796945
 42
0.026583
  0
VERTEX
  8
0
 10
32.994986
 20
48.692468
 42
0.364233
  0
VERTEX
  8
0
 10
32.648142
 20
48.781733
 42
0.203995
  0
VERTEX
  8
0
 10
32.338374
 20
48.429706
 42
0.011332
  0
VERTEX
  8
0
 10
31.901592
 20
47.000000
 42
0.025371
  0
VERTEX
  8
0
 10
31.624723
 20
45.779683
 42
0.011095
  0
VERTEX
  8
0
 10
31.376360
 20
44.138409
 42
0.010947
  0
VERTEX
  8
0
 10
31.189141
 20
42.380497
 42
0.014375
  0
VERTEX
  8
0
 10
31.099680
 20
40.769052
 42
0.023154
  0
VERTEX
  8
0
 10
31.139906
 20
38.715853
 42
0.110069
  0
VERTEX
  8
0
 10
31.468325
 20
37.595482
 42
0.150166
  0
VERTEX
  8
0
 10
32.184039
 20
36.903850
 42
0.056129
  0
VERTEX
  8
0
 10
33.506573
 20
36.408994
 42
0.145501
  0
VERTEX
  8
0
 10
40.675440
 20
36.717941
 42
0.080723
  0
VERTEX
  8
0
 10
48.451236
 20
40.896868
 42
0.074410
  0
VERTEX
  8
0
 10
55.102820
 20
47.783831
 42
0.087344
  0
VERTEX
  8
0
 10
59.006916
 20
55.965480
 42
0.044934
  0
VERTEX
  8
0
 10
59.802347
 20
60.307870
 42
0.040757
  0
VERTEX
  8
0
 10
59.847475
 20
64.869213
 42
0.039943
  0
VERTEX
  8
0
 10
59.145643
 20
69.468779
 42
0.039287
  0
VERTEX
  8
0
 10
57.719278
 20
73.924751
 42
0.026353
  0
VERTEX
  8
0
 10
56.122838
 20
77.306820
 42
0.072618
  0
VERTEX
  8
0
 10
54.555182
 20
79.418072
 42
0.325166
  0
VERTEX
  8
0
 10
53.562091
 20
79.576656
 42
0.282252
  0
SEQEND
  0
POLYLINE
  8
0
 66
1
 70
1
  0
VERTEX
  8
0
 10
81.250000
 20
77.860495
 42
0.072489
  0
VERTEX
  8
0
 10
80.317793
 20
76.599234
 42
0.195494
  0
VERTEX
  8
0
 10
80.202483
 20
75.511853
 42
0.098571
  0
VERTEX
  8
0
 10
80.896976
 20
74.167952
 42
0.011763
  0
VERTEX
  8
0
 10
83.056874
 20
71.588006
 42
0.025738
  0
VERTEX
  8
0
 10
84.393437
 20
70.215134
 42
0.042656
  0
VERTEX
  8
0
 10
85.667632
 20
69.221984
 42
0.052938
  0
VERTEX
  8
0
 10
86.771634
 20
68.659748
 42
0.184985
  0
VERTEX
  8
0
 10
87.556874
 20
68.660198
 42
0.159382
  0
VERTEX
  8
0
 10
88.614073
 20
69.519517
 42
0.213026
  0
VERTEX
  8
0
 10
88.799496
 20
70.726755
 42
0.091131
  0
VERTEX
  8
0
 10
87.936780
 20
72.516659
 42
0.018257
  0
VERTEX
  8
0
 10
85.735123
 20
75.310495
 42
0.013545
  0
VERTEX
  8
0
 10
83.998547
 20
77.247068
 42
0.074068
  0
VERTEX
  8
0
 10
82.894911
 20
78.112193
 42
0.170546
  0
VERTEX
  8
0
 10
82.041549
 20
78.266712
 42
0.159038
  0
SEQEND
  0
ENDSEC
  0
EOF
