<svg width="43" height="42" viewBox="0 0 43 42" fill="none" xmlns="http://www.w3.org/2000/svg">
<path d="M24.1557 0.214155C23.9295 0.334839 23.6127 0.651638 23.4769 0.923178C23.2204 1.36066 23.2053 2.06968 23.2053 9.80856C23.2053 15.2092 23.145 18.2565 23.0545 18.3621C22.8885 18.528 19.8714 17.7436 19.5848 17.4569C19.4943 17.3664 19.4038 14.5002 19.3585 9.15989L19.2831 0.998609L18.7853 0.561125C18.1668 0.00295949 17.3974 -0.0121225 15.4966 0.485701C7.95386 2.52225 1.78387 9.23532 0.260226 17.1251C-0.0867419 18.8901 -0.0867419 22.2089 0.260226 24.0342C0.577022 25.7691 1.42181 28.4694 2.08558 29.9327C4.54452 35.3031 8.75339 38.9991 14.7574 40.9904C17.0806 41.7598 17.6388 41.8503 18.3478 41.5486C19.3736 41.1262 19.3585 41.2921 19.3585 31.8033C19.3585 25.1807 19.4038 23.3252 19.5546 23.28C19.6452 23.2347 20.4749 23.3856 21.3951 23.6118C22.8584 23.989 23.0545 24.0795 23.145 24.4114C23.2053 24.6226 23.2657 28.3185 23.2657 32.633C23.2808 38.5767 23.326 40.568 23.4769 40.8546C23.5825 41.0658 23.8993 41.3524 24.1859 41.5033C24.9251 41.8804 26.0716 41.7447 28.3344 40.9904C36.1487 38.3957 41.5946 31.8636 42.7562 23.6722C42.9825 22.0731 42.8467 17.9548 42.5148 16.5065C41.6248 12.5692 39.8598 9.2504 37.0539 6.30871C34.2329 3.33686 31.2309 1.54168 27.2181 0.410269C25.4682 -0.0724688 24.7592 -0.117727 24.1557 0.214155ZM30.2201 5.66004C33.3277 7.34962 35.6057 9.73314 37.25 12.9765C38.5926 15.6316 39.1357 17.8944 39.1508 20.7908C39.1659 24.4868 38.2456 27.5039 36.194 30.5964C34.6704 32.8593 32.8601 34.5941 30.6576 35.8764C29.7072 36.4345 27.55 37.3849 27.2332 37.3849C27.022 37.3849 26.8862 25.1807 27.0974 24.7282C27.2332 24.4566 27.55 24.2907 28.4551 24.0342C30.4615 23.461 32.0455 22.0731 33.2674 19.8254C34.0368 18.4073 34.0368 18.4073 33.5842 17.9849C33.0411 17.472 32.6338 17.5324 31.8343 18.2263C31.4571 18.5582 30.8235 18.9806 30.4313 19.1465C29.6921 19.4784 27.4746 19.7499 27.1578 19.5538C27.022 19.4633 26.9767 17.7285 26.9767 12.1619C26.9767 8.14915 27.022 4.75491 27.0974 4.61914C27.203 4.37777 27.2784 4.37777 28.2288 4.73982C28.787 4.95102 29.677 5.35833 30.2201 5.66004ZM15.557 10.8646C15.5871 15.7674 15.5419 17.1703 15.4061 17.2759C15.3005 17.3664 14.7424 17.5776 14.154 17.7737C13.5808 17.9548 12.8265 18.2716 12.4946 18.4526C11.5291 19.0107 10.5033 20.2176 9.83955 21.5904C8.85899 23.6269 8.88916 24.4114 9.93006 24.4114C10.3525 24.4114 10.5486 24.2756 11.152 23.5666C12.1476 22.4201 12.7963 22.1033 14.3049 22.0882L15.5117 22.0731L15.557 29.5857C15.5871 35.7255 15.557 37.0983 15.391 37.1737C15.1497 37.2643 13.445 36.51 12.208 35.7708C8.58745 33.5985 6.09833 30.4758 4.69538 26.3725C3.24716 22.1033 3.57905 17.1854 5.60051 13.1726C7.39569 9.58228 10.5486 6.535 14.0635 4.99627C14.6971 4.72474 15.2854 4.52862 15.3609 4.54371C15.4514 4.58896 15.5268 6.8518 15.557 10.8646Z" fill="black"/>
</svg>
