<svg width="346" height="331" viewBox="0 0 346 331" fill="none" xmlns="http://www.w3.org/2000/svg">
<path d="M40.9551 278.501C50.9189 297.27 65.5362 313.22 83.2819 324.767C78.551 327.799 72.4106 329.788 66.9459 329.981C45.6087 330.715 24.232 330.271 0.442383 330.271C11.3331 309.358 24.7929 292.25 40.9551 278.501ZM251.662 294.277C258.266 285.356 263.712 275.508 267.786 264.984L296.577 330.232C270.296 330.232 246.391 330.444 222.485 329.981C220.265 329.923 217.966 328.552 215.784 326.969C224.957 321.427 233.377 314.707 240.811 307.06C241.853 307.504 243.011 307.755 244.228 307.755C249.074 307.755 253.014 303.816 253.014 298.969C253.014 297.251 252.512 295.629 251.662 294.277ZM236.581 303.295C228.992 311.077 220.361 317.816 210.918 323.281C172.782 295.359 127.288 294.818 88.3016 321.272C70.1698 309.957 55.3014 293.891 45.4148 274.832C56.2862 266.259 68.3161 259.076 81.5432 253.186C116.726 237.526 153.299 235.518 193.443 245.231L183.634 222.368L184.271 222.001C201.476 211.999 218.276 201.243 234.399 189.348L264.465 257.473C260.487 269.522 254.636 280.722 247.26 290.724C246.314 290.377 245.29 290.184 244.228 290.184C239.381 290.184 235.442 294.123 235.442 298.969C235.442 300.534 235.847 302.02 236.581 303.295ZM142.331 95.6383C131.595 96.3914 121.225 98.5154 111.416 101.837L154.225 7.70181L226.019 170.386C234.515 164.226 242.78 157.796 251.083 150.632C251.083 150.632 294.704 111.569 326.256 64.0477C330.91 57.0382 335.254 49.6811 337.127 40.9724C339.116 31.6651 335.428 25.7178 327.125 23.4586C309.34 18.5926 291.904 23.0723 274.428 25.544C268.732 26.3357 267.033 30.8348 268.655 37.5546C269.505 41.0303 272.498 45.0081 268.829 47.9625C265.43 50.7045 262.012 47.9432 258.903 45.8192C249.171 39.1959 238.493 39.9491 227.834 41.2814C223.026 41.88 218.237 42.0153 213.429 42.0732C211.324 42.0925 208.968 41.8992 208.582 39.0028C208.215 36.5118 209.509 34.5037 211.594 33.5769C216.712 31.3176 221.771 28.8459 227.042 27.2046C237.972 23.8254 246.854 17.8394 252.029 6.23425C252.685 4.7281 253.671 3.24133 254.829 2.21792C257.436 -0.0606285 259.946 -0.292411 261.278 3.83987C262.012 6.15703 262.746 8.53221 263.036 10.9266C263.654 16.1982 266.647 18.1871 270.914 17.7043C276.379 17.0671 281.766 15.7346 287.192 14.885C299.125 13.0119 311.059 11.3514 323.128 13.0313C327.955 13.7072 332.628 14.9429 336.799 17.7621C344.523 22.9564 347.4 31.8776 344.929 42.5366C342.38 53.5045 338.016 63.6421 332.011 72.6984C313.821 100.195 292.599 124.738 269.833 147.659C265.971 151.559 263.074 154.205 256.856 159.573C237.566 176.237 216.133 190.565 194.641 204.024C190.007 206.92 186.859 209.064 179.464 212.481L179.405 212.52H179.367L178.884 211.303L154.4 154.301C146.406 172.549 139.724 188.499 132.328 204.12C130.552 207.847 126.844 212.172 123.156 213.234C99.5018 220.089 75.616 226.114 52.0582 232.332L108.133 109.039C118.83 104.868 130.282 102.204 142.215 101.315C143.393 106.992 148.452 111.279 154.496 111.279C161.428 111.279 167.047 105.66 167.047 98.7278C167.047 91.7957 161.428 86.1765 154.496 86.1765C148.645 86.1765 143.702 90.193 142.331 95.6383Z" fill="#040828"/>
</svg>
