<svg width="346" height="331" viewBox="0 0 346 331" fill="none" xmlns="http://www.w3.org/2000/svg">
<path d="M40.9541 278.502C42.3552 281.142 43.8488 283.725 45.4297 286.249C45.6053 286.529 45.7821 286.809 45.96 287.087C52.8952 297.964 61.4698 307.703 71.3389 315.944C71.8449 316.366 72.3544 316.785 72.8672 317.2C76.2002 319.895 79.6754 322.421 83.2793 324.766C79.8794 326.945 75.7525 328.586 71.6709 329.408C71.4934 329.443 71.316 329.478 71.1387 329.51C69.7207 329.771 68.3124 329.932 66.9463 329.98C53.6104 330.439 40.2587 330.437 26.3125 330.372C23.5234 330.358 20.7105 330.343 17.8691 330.328C12.1866 330.297 6.39038 330.27 0.443359 330.27C4.8675 321.775 9.71607 313.908 14.9971 306.638C15.4033 306.079 15.8122 305.523 16.2236 304.971C23.6282 295.033 31.8633 286.236 40.9541 278.502ZM296.575 330.231C280.15 330.231 264.653 330.314 249.504 330.263C247.989 330.258 246.478 330.252 244.97 330.244C237.427 330.204 229.956 330.125 222.485 329.98C220.82 329.937 219.111 329.154 217.44 328.098C217.162 327.922 216.884 327.738 216.608 327.549C216.333 327.36 216.058 327.166 215.785 326.968C224.957 321.427 233.377 314.707 240.811 307.061C241.853 307.505 243.011 307.756 244.228 307.756C249.075 307.756 253.015 303.816 253.015 298.969C253.015 298.818 253.01 298.668 253.002 298.518C252.922 296.967 252.438 295.51 251.663 294.277C258.266 285.356 263.712 275.51 267.786 264.987L296.575 330.231ZM264.465 257.473C261.73 265.757 258.109 273.639 253.717 281.006C253.318 281.676 252.912 282.341 252.5 283.002C250.852 285.647 249.103 288.222 247.259 290.722C246.786 290.549 246.294 290.414 245.787 290.323C245.66 290.3 245.533 290.28 245.404 290.262C245.019 290.21 244.626 290.183 244.228 290.183C239.38 290.183 235.442 294.122 235.441 298.969C235.441 300.533 235.846 302.02 236.579 303.294C232.785 307.185 228.731 310.815 224.444 314.156C224.176 314.365 223.907 314.572 223.638 314.779C219.592 317.876 215.344 320.717 210.918 323.279C201.384 316.299 191.39 311.03 181.153 307.466C180.833 307.355 180.513 307.245 180.192 307.137C174.746 305.301 169.233 303.945 163.686 303.07C163.359 303.018 163.033 302.969 162.706 302.92C161.4 302.728 160.092 302.562 158.783 302.422C158.456 302.387 158.128 302.354 157.801 302.323C156.491 302.197 155.179 302.097 153.867 302.024C153.539 302.006 153.211 301.989 152.883 301.974C151.57 301.914 150.257 301.881 148.943 301.875C148.615 301.873 148.286 301.873 147.958 301.875C127.596 301.977 107.185 308.457 88.3008 321.271C84.3349 318.796 80.5253 316.093 76.8896 313.182C76.63 312.974 76.3712 312.765 76.1133 312.555C65.0222 303.521 55.5861 292.529 48.3262 280.112C48.1574 279.823 47.9896 279.534 47.8232 279.244C46.9908 277.792 46.1875 276.321 45.415 274.832C46.4341 274.028 47.4644 273.238 48.5039 272.458C48.8504 272.199 49.1981 271.94 49.5469 271.683C55.4764 267.312 61.7342 263.33 68.3262 259.723C69.8773 258.874 71.4469 258.046 73.0352 257.239C75.8143 255.826 78.6506 254.475 81.5439 253.187C109.58 240.708 138.499 236.898 169.404 240.78C171.222 241.008 173.047 241.263 174.879 241.544C180.985 242.482 187.17 243.713 193.441 245.23L193.442 245.231H193.443L193.444 245.23L183.635 222.369L184.271 222.001C201.476 211.999 218.275 201.244 234.398 189.349L264.465 257.473ZM254.83 2.21826C256.133 1.07932 257.412 0.451946 258.531 0.625488C259.651 0.799188 260.611 1.7743 261.277 3.84033C261.828 5.57818 262.378 7.34857 262.741 9.13525C262.771 9.28425 262.801 9.43331 262.828 9.58252C262.911 10.0296 262.981 10.4776 263.035 10.9263C263.344 13.5622 264.247 15.3781 265.606 16.4741C266.966 17.5698 268.781 17.9468 270.914 17.7056C273.646 17.387 276.359 16.8945 279.067 16.3755C281.775 15.8565 284.479 15.311 287.192 14.8862C290.176 14.418 293.159 13.9626 296.145 13.5698C296.891 13.4716 297.637 13.3773 298.384 13.2876C306.597 12.3012 314.831 11.8768 323.128 13.0317C327.955 13.7076 332.628 14.9441 336.799 17.7632C339.212 19.3864 341.153 21.3732 342.604 23.6636C342.677 23.778 342.748 23.8933 342.818 24.0093C343.52 25.1695 344.099 26.4047 344.554 27.7075C344.599 27.8377 344.644 27.9685 344.687 28.1001C346.062 32.312 346.164 37.2072 344.928 42.5366C342.697 52.1333 339.078 61.0943 334.185 69.2515C334.01 69.5429 333.833 69.8332 333.655 70.1226C333.121 70.9903 332.573 71.8488 332.01 72.6978C322.347 87.3055 311.827 101.079 300.676 114.219C300.02 114.992 299.362 115.763 298.701 116.532C290.117 126.523 281.171 136.151 271.962 145.504C271.254 146.224 270.543 146.941 269.832 147.658C265.97 151.558 263.073 154.204 256.855 159.572C256.253 160.093 255.648 160.611 255.041 161.127C254.434 161.644 253.825 162.158 253.214 162.669C241.606 172.394 229.289 181.327 216.698 189.776C216.036 190.221 215.372 190.664 214.708 191.106C208.067 195.526 201.357 199.817 194.641 204.023C191.165 206.195 188.525 207.944 184.303 210.125C183.951 210.306 183.588 210.491 183.213 210.679C182.139 211.218 180.963 211.785 179.653 212.392C179.59 212.421 179.527 212.452 179.464 212.481H179.463L179.405 212.519H179.367L178.885 211.303L154.4 154.301H154.399C146.421 172.512 139.751 188.434 132.373 204.025C132.358 204.056 132.343 204.088 132.328 204.12C131.44 205.983 130.069 207.996 128.459 209.676C128.157 209.991 127.846 210.294 127.529 210.583C127.318 210.775 127.104 210.96 126.887 211.138C125.694 212.118 124.424 212.869 123.156 213.234C120.199 214.091 117.238 214.934 114.275 215.767C93.5353 221.597 72.6713 226.889 52.0586 232.33L108.134 109.04H108.133C108.468 108.909 108.804 108.78 109.141 108.652C119.213 104.831 129.94 102.341 141.098 101.405L142.215 101.316C143.393 106.993 148.452 111.28 154.496 111.28C156.446 111.28 158.291 110.836 159.938 110.042C160.121 109.954 160.301 109.862 160.479 109.765C162.614 108.606 164.374 106.845 165.533 104.711C165.63 104.533 165.722 104.353 165.811 104.169C166.604 102.523 167.048 100.678 167.048 98.728C167.048 98.2949 167.026 97.8667 166.983 97.4448C166.973 97.3393 166.961 97.2341 166.947 97.1294C166.162 90.9517 160.887 86.1754 154.496 86.1753C148.645 86.1753 143.701 90.1919 142.33 95.6372C139.982 95.8019 137.651 96.0326 135.34 96.3267C134.019 96.4947 132.705 96.6837 131.397 96.8931C124.533 97.9922 117.855 99.6553 111.418 101.834L154.225 7.70264L226.019 170.386H226.02V170.387C234.516 164.227 242.781 157.797 251.084 150.633L251.083 150.632H251.084L251.086 150.631C251.087 150.63 251.089 150.628 251.092 150.625C251.097 150.621 251.105 150.613 251.115 150.604C251.136 150.585 251.168 150.557 251.21 150.519C251.293 150.444 251.418 150.332 251.581 150.183C251.908 149.885 252.392 149.442 253.02 148.862C254.274 147.701 256.101 145.989 258.393 143.787C260.111 142.135 262.091 140.207 264.285 138.029C265.017 137.303 265.772 136.548 266.55 135.767C269.66 132.643 273.126 129.087 276.838 125.161C278.23 123.688 279.658 122.164 281.113 120.59C282.084 119.541 283.067 118.47 284.062 117.378C297.487 102.639 312.946 84.0963 326.257 64.0483C328.584 60.5437 330.833 56.952 332.735 53.1479C332.854 52.9102 332.972 52.6716 333.088 52.4321C334.829 48.8404 336.25 45.0545 337.128 40.9722C337.501 39.227 337.675 37.6 337.655 36.0933C337.654 35.9678 337.651 35.8431 337.646 35.7192C337.565 33.3653 337.003 31.3131 335.986 29.5718C335.933 29.4801 335.878 29.3892 335.822 29.2993C335.094 28.1304 334.155 27.1069 333.013 26.2319C332.925 26.1646 332.835 26.0983 332.745 26.0327C331.211 24.9183 329.331 24.0577 327.125 23.4575C324.346 22.6972 321.576 22.1652 318.812 21.8179C317.983 21.7137 317.155 21.6263 316.327 21.5542C312.188 21.1938 308.064 21.22 303.95 21.4868C303.402 21.5224 302.853 21.5622 302.305 21.606C293.533 22.3064 284.803 24.0131 276.066 25.3062L274.429 25.5435C273.539 25.6672 272.745 25.881 272.048 26.1802C271.908 26.24 271.773 26.3031 271.641 26.3696C270.322 27.0352 269.381 28.0359 268.797 29.3257C267.863 31.3896 267.843 34.1952 268.654 37.5552C268.867 38.424 269.213 39.3243 269.556 40.2319C269.898 41.1398 270.238 42.0555 270.436 42.9546C270.633 43.8535 270.69 44.7362 270.468 45.5786C270.246 46.421 269.745 47.223 268.828 47.9614C267.979 48.6468 267.128 48.989 266.281 49.0825C265.435 49.176 264.592 49.0218 263.758 48.7153C262.507 48.2555 261.276 47.4536 260.083 46.6333L258.903 45.8188C258.751 45.7154 258.6 45.613 258.447 45.5132C248.838 39.2184 238.326 39.9692 227.834 41.2808C223.026 41.8793 218.238 42.0148 213.43 42.0728C212.377 42.0824 211.262 42.0382 210.361 41.6304C209.911 41.4264 209.515 41.1315 209.207 40.7065C208.899 40.2816 208.68 39.7264 208.583 39.0024C208.537 38.6911 208.517 38.3874 208.521 38.0923C208.524 37.9449 208.532 37.7997 208.546 37.6567C208.729 35.7973 209.901 34.3306 211.595 33.5776C216.712 31.3185 221.771 28.8469 227.042 27.2056C231.482 25.8327 235.585 24.0296 239.238 21.5942C239.519 21.4069 239.798 21.2159 240.073 21.021C242.554 19.2669 244.815 17.2022 246.82 14.7603C246.932 14.6246 247.043 14.4881 247.152 14.3501C249.019 12.004 250.655 9.31746 252.029 6.23486C252.686 4.72879 253.672 3.24158 254.83 2.21826ZM251.58 150.181C251.417 150.33 251.292 150.443 251.209 150.518C251.188 150.537 251.169 150.553 251.153 150.567C251.342 150.397 251.904 149.889 252.791 149.07C252.273 149.548 251.867 149.92 251.58 150.181Z" fill="#F0F2FF" stroke="#F0F2FF" stroke-width="0.00161553"/>
</svg>
