<svg width="235" height="330" viewBox="0 0 235 330" fill="none" xmlns="http://www.w3.org/2000/svg">
<path fill-rule="evenodd" clip-rule="evenodd" d="M23.6207 110.343C24.0726 125.838 27.2233 140.614 33.9078 154.574C38.3473 163.845 44.6056 171.858 51.5316 179.379C51.6556 179.514 51.7833 179.647 51.9046 179.785C54.2047 182.399 54.4628 185.757 52.5182 187.737C50.6149 189.674 46.9874 189.678 44.488 187.417C41.5669 184.775 38.7625 181.982 36.1023 179.075C23.6243 165.432 15.5418 149.47 11.4458 131.486C8.43199 118.257 8.15366 104.927 10.5328 91.5707C13.2499 76.3204 18.5198 62.0595 27.1572 49.1083C37.0301 34.3063 49.9186 22.8515 65.3737 14.1356C75.941 8.17623 87.0319 3.92165 99.0744 1.93122C109.572 0.196129 120.105 -0.445005 130.564 0.960333C152.693 3.93359 172.021 13.3154 188.93 27.8592C204.544 41.289 215.154 57.9344 220.909 77.6137C225.041 91.7498 226.243 106.225 224.845 120.925C222.312 147.601 209.489 168.918 190.574 187.073C187.165 190.346 182.399 189.627 181.021 185.765C180.044 183.028 181.482 180.937 183.236 179.108C189.497 172.576 194.889 165.428 199.107 157.398C207.476 141.467 212.182 124.549 210.773 106.546C208.865 82.1375 199.811 60.5908 182.07 43.2996C168.124 29.7064 150.892 22.6549 131.905 19.464C111.32 16.0039 91.6441 18.4398 73.2202 28.629C59.7281 36.0901 48.8595 46.5098 39.9383 58.9898C32.3554 69.5959 27.2766 81.3044 25.3366 94.2417C24.5365 99.5765 24.1792 104.975 23.6207 110.343Z" fill="#040828"/>
<path fill-rule="evenodd" clip-rule="evenodd" d="M42.7472 107.83C42.4514 90.6575 47.7351 75.2814 58.5045 61.9592C67.6471 50.6485 79.1486 42.5316 93.0871 38.0161C100.63 35.5728 108.323 34.06 116.26 33.8276C128.056 33.4832 139.234 36.0707 149.734 41.3099C161.045 46.9552 170.861 54.5375 178.304 64.9178C186.066 75.748 190.322 87.8128 191.721 101.084C192.561 109.055 192.019 116.84 190.385 124.565C188.288 134.471 184.007 143.457 177.896 151.543C176.057 153.977 172.537 154.67 170.293 153.178C168.13 151.74 167.607 148.594 169.346 145.792C175.874 135.267 178.779 123.791 178.675 111.472C178.533 94.8009 172.65 80.5179 160.954 68.6313C135.543 42.8043 93.9221 44.0903 70.6233 71.8407C60.8074 83.5316 55.5917 97.2295 55.7763 112.861C55.9132 124.512 59.6445 134.949 64.8482 145.087C67.0803 149.436 66.7644 151.691 64.0573 153.312C61.3576 154.928 58.4448 153.999 55.8958 150.404C47.9657 139.216 43.3002 126.85 42.7555 113.055C42.6884 111.318 42.7472 109.573 42.7472 107.83Z" fill="#040828"/>
<path fill-rule="evenodd" clip-rule="evenodd" d="M233.929 330C195.354 282.178 156.778 234.356 118.203 186.534C117.724 186.508 117.241 186.482 116.761 186.457C97.452 210.41 78.1778 234.372 58.8266 258.31C39.4916 282.229 20.0796 306.121 0.365356 329.962C39.2014 258.85 78.0388 187.742 116.875 116.631C117.239 116.629 117.602 116.626 117.967 116.624C156.708 187.734 195.45 258.844 234.189 329.954C234.101 329.971 234.016 329.984 233.929 330Z" fill="#040828"/>
</svg>
