<svg width="235" height="330" viewBox="0 0 235 330" fill="none" xmlns="http://www.w3.org/2000/svg">
<path d="M99.1561 2.42487C109.621 0.695136 120.103 0.059317 130.498 1.45612C152.52 4.41518 171.76 13.7508 188.603 28.2383C204.143 41.604 214.701 58.166 220.43 77.754C224.542 91.8251 225.74 106.236 224.348 120.877V120.878C221.828 147.406 209.08 168.617 190.227 186.712C188.62 188.255 186.725 188.829 185.105 188.6C183.495 188.372 182.117 187.348 181.492 185.597C180.62 183.153 181.86 181.266 183.598 179.453C189.885 172.893 195.307 165.708 199.55 157.631C207.951 141.638 212.69 124.626 211.272 106.507C209.355 81.9913 200.257 60.3266 182.419 42.9415C168.381 29.259 151.046 22.1737 131.988 18.9708C111.308 15.4947 91.5145 17.9403 72.9784 28.1915C59.4108 35.6944 48.4882 46.1692 39.5311 58.6993C31.9074 69.3627 26.7946 81.1447 24.8417 94.168C24.0395 99.5167 23.6787 104.949 23.1229 110.292L23.12 110.324L23.121 110.358C23.5747 125.913 26.7384 140.759 33.4569 154.79C37.9265 164.125 44.2214 172.178 51.1639 179.718L51.1649 179.719C51.2972 179.862 51.4132 179.984 51.5292 180.115C53.7221 182.608 53.8593 185.657 52.161 187.387C50.4811 189.096 47.1635 189.164 44.8231 187.047C41.9141 184.415 39.1212 181.633 36.4716 178.738C24.0552 165.162 16.0112 149.279 11.9335 131.375C8.93471 118.213 8.65771 104.95 11.0253 91.6583C13.7321 76.4663 18.9791 62.272 27.5731 49.3858C37.3984 34.6551 50.2261 23.2522 65.619 14.5714C76.1437 8.63602 87.1799 4.40434 99.1561 2.42487Z" fill="#040828" stroke="#040828"/>
<path d="M43.2468 107.822C42.9531 90.7661 48.198 75.5045 58.8933 62.2738C67.9774 51.0355 79.3985 42.9759 93.241 38.4916C100.746 36.0605 108.392 34.5574 116.274 34.3265C127.985 33.9846 139.081 36.5533 149.51 41.7572C160.764 47.3736 170.511 54.9078 177.897 65.2094C185.605 75.9625 189.834 87.943 191.224 101.136C192.058 109.05 191.52 116.782 189.895 124.461C187.815 134.29 183.567 143.21 177.497 151.242C175.796 153.493 172.565 154.088 170.569 152.761C168.688 151.51 168.135 148.69 169.77 146.055C176.353 135.443 179.28 123.873 179.175 111.468C179.032 94.668 173.097 80.2602 161.31 68.2806C135.696 42.2475 93.7318 43.5387 70.24 71.5189C60.351 83.2969 55.0901 97.11 55.2761 112.867C55.4143 124.625 59.1807 135.141 64.4031 145.316C65.509 147.471 65.9298 149.012 65.8074 150.17C65.6904 151.276 65.0662 152.125 63.8005 152.883C62.5662 153.622 61.3162 153.766 60.0837 153.339C58.8319 152.905 57.5424 151.862 56.3035 150.115C48.4229 138.997 43.7951 126.722 43.2546 113.035C43.1881 111.31 43.2468 109.596 43.2468 107.83V107.822Z" fill="#040828" stroke="#040828"/>
<path d="M231.712 326.455C194.005 279.709 156.299 232.964 118.592 186.22L118.452 186.047L118.23 186.035C117.751 186.009 117.267 185.983 116.787 185.958L116.532 185.944L116.372 186.143C97.0624 210.097 77.7885 234.058 58.4376 257.996C40.1964 280.562 21.8847 303.1 3.31848 325.596C41.2682 256.108 79.2225 186.616 117.172 117.128C117.338 117.127 117.504 117.126 117.67 117.125C155.685 186.901 193.7 256.678 231.712 326.455Z" fill="#040828" stroke="#040828"/>
</svg>
