<svg width="251" height="330" viewBox="0 0 251 330" fill="none" xmlns="http://www.w3.org/2000/svg">
<mask id="path-1-inside-1_35_50" fill="white">
<path d="M92.0662 190.3C92.4042 190.822 92.3506 191.622 92.8124 192.154C98.1546 199.426 105.38 204.891 112.631 210.401C105.282 208.21 99.0693 204.287 93.7466 199.221C81.5201 187.576 76.5153 173.132 76.0424 157.019C77.4615 160.459 81.4048 167.836 80.8447 166.256C78.9222 159.095 77.0954 151.899 78.517 144.451C80.6561 133.23 87.6842 125.112 97.4226 118.758C98.2249 118.236 99.3987 118.046 99.8069 116.804C94.1632 116.767 89.2687 118.898 83.9069 121.079C86.1583 116.822 89.0747 113.535 91.4615 109.875C79.4792 111.006 62.2595 134.623 59.7995 153.329C58.7806 152.329 58.9044 151.172 58.7946 150.114C57.4322 136.923 62.3718 125.645 70.8666 115.477C74.9508 110.587 79.6171 106.219 84.9509 102.526C86.4878 101.46 86.7892 100.849 85.2523 99.4611C81.3962 95.977 78.2437 91.9207 75.201 87.8008C74.675 87.0517 74.7623 86.603 75.8428 86.6376C85.6689 95.3386 96.6122 102.756 107.119 110.679C126.943 125.626 141.818 143.778 147.754 167.883C149.229 165.894 148.841 163.943 148.959 162.126C149.088 160.174 148.99 158.211 148.99 156.151C149.806 156.563 149.88 157.412 150.155 158.14C154.557 169.756 156.139 181.754 155.692 194.03C155.655 195.011 155.596 195.997 155.686 196.971C156.139 202.046 159.227 204.327 164.583 203.552C165.906 203.359 167.209 203.056 168.752 202.758C167.516 204.607 165.762 205.496 163.581 206.751C169.12 207.806 172.861 205.58 176.402 202.789C177.531 202.768 177.488 203.328 177.116 204.053C176.081 206.311 174.257 208.03 172.002 210.093C175.11 210.14 177.131 209.191 178.969 207.75C182.363 205.092 186.121 203.755 190.936 205.19C189.169 202.575 186.636 201.578 183.88 200.548C186.557 197.266 190.284 196.116 194.306 194.855C191.359 193.9 188.758 194.468 185.89 194.494C188.595 187.813 192.656 182.19 197.143 176.801C197.672 176.503 197.683 175.923 197.526 175.577C197.334 175.155 196.878 175.601 196.538 175.657C191.376 178.689 186.703 182.237 183.072 186.945C184.66 179.555 187.157 172.565 192.662 165.932C189.386 167.279 187.739 169.252 185.901 171.001C184.772 171.035 184.925 170.397 185.141 169.727C187.953 161.796 188.111 154.722 185.473 150.161C184.7 154.511 184.21 158.794 181.077 163.133C179.785 151.699 177.035 141.336 170.896 132.031C172.36 139.951 172.636 147.761 170.474 156.341C165.309 116.202 143.11 87.98 106.125 69.4773C105.729 69.3136 105.281 69.4638 104.898 69.3451C103.908 69.0447 103.075 68.4433 102.14 68.0262C103.249 68.6992 104.578 69.1028 105.296 70.2579C113.413 75.7468 120.973 81.8161 127.545 88.9214C127.506 89.9053 127.05 90.1191 126.177 89.5808C110.165 81.2012 94.1467 72.7871 80.2254 61.4587C69.9124 53.0686 61.1363 43.5231 57.0777 30.8916C55.5604 26.1598 54.8373 21.3436 54.6427 16.0947C56.1375 17.6034 56.146 19.3496 56.7538 20.8319C58.2992 24.6116 60.0051 28.2936 62.9094 31.3533C66.6531 35.2912 71.0271 37.0056 76.8929 35.9559C141.506 24.3874 204.939 53.4852 234.98 108.337C267.813 168.295 247.629 243.562 188.406 282.028C163.857 297.973 136.676 306.228 106.795 306.671C103.342 306.721 99.8771 306.555 96.4403 307.098C92.8826 307.658 90.0119 309.14 87.7489 311.87C82.3334 318.395 76.4085 324.48 69.3553 329.518C68.4542 330.083 68.0686 329.803 68.0997 328.843C76.9661 317.686 83.6843 305.603 86.1644 291.732C86.578 289.426 86.5555 287.053 86.7776 284.144C90.5128 288.955 92.3114 294.132 94.1467 299.835C96.2126 294.821 96.9442 290.12 97.6733 284.729C101.802 290.943 106.252 295.957 111.665 300.446C108.245 290.706 104.735 280.976 108.116 270.077C110.162 274.574 112.433 278.451 116.41 282.139C115.189 273.517 113.978 265.517 117.19 257.121C119.34 260.337 120.9 263.423 124.252 265.562C123.523 262.375 122.78 259.532 122.442 256.612C122.172 254.27 122.6 253.592 125.192 254.687C133.146 258.049 140.579 262.241 147.878 266.672C149.373 267.579 150.873 268.479 152.365 269.391C152.883 269.71 153.415 270.27 154.039 269.948C154.819 269.545 154.467 268.703 154.411 268.089C154.18 265.638 152.801 263.655 151.185 261.829C146.429 256.457 140.321 252.664 134.033 249.092C133.247 248.646 132.448 248.214 131.654 247.776C131.525 247.143 131.742 246.829 132.476 246.993C139.279 249.401 145.362 252.867 150.721 257.509C160.845 266.279 157.794 276.265 150.808 282.83C150.229 283.376 149.451 283.735 149.204 284.719C149.587 284.719 149.983 284.785 150.349 284.711C166.545 281.382 180.202 267.147 181.786 251.701C182.786 241.942 179.146 233.586 172.208 226.42C168.228 222.31 163.449 219.156 158.281 216.476C156.142 215.365 154.056 214.993 151.706 215.835C148.675 216.914 145.579 217.826 142.539 218.878C141.528 219.229 140.56 219.496 139.324 219.182C141.053 217.095 143.313 215.737 145.517 214.305C146.8 213.469 148.154 212.702 149.102 211.488C149.581 210.873 149.688 210.224 149.153 209.597C148.717 209.088 148.151 208.959 147.473 209.159C127.534 215.059 112.473 205.925 97.9967 195.035C96.37 193.808 94.9149 192.381 93.378 191.049C92.8435 190.905 92.4238 190.596 92.0662 190.3C91.9594 190.136 91.816 190 91.6019 189.91C91.7483 190.026 91.9003 190.163 92.0662 190.3ZM64.6408 176.081C70.132 188.33 77.4163 198.458 86.9436 205.96C96.4688 213.464 108.242 218.343 122.709 220.097C91.7288 221.121 63.3993 199.643 64.6408 176.081ZM129.203 152.005C124.438 143.96 118.532 136.461 111.597 129.72C98.8752 134.71 90.0791 145.64 88.5958 158.299C87.1126 170.956 93.1784 183.363 104.451 190.735C115.723 198.107 130.441 199.295 142.936 193.84C140.65 169.822 134.596 162.4 134.596 162.4C134.036 168.15 128.789 172.657 122.397 172.657C115.634 172.657 110.15 167.609 110.15 161.379C110.15 159.931 110.449 158.546 110.989 157.275C111.904 159.928 114.601 161.851 117.787 161.851C121.727 161.851 124.919 158.91 124.919 155.284C124.919 153.182 123.847 151.308 122.175 150.106C122.248 150.106 122.324 150.103 122.397 150.103C124.916 150.103 127.258 150.805 129.203 152.005ZM94.5689 164.217C100.958 180.417 117.308 191.484 136.006 192.271C126.402 194.085 116.413 192.068 108.515 186.721C100.617 181.375 95.5512 173.198 94.5689 164.217ZM50.722 1.91494C47.8764 12.5998 45.5768 23.3666 45.3266 34.4287C45.0929 44.7391 46.1344 54.8462 51.1723 64.2387C52.3376 66.4094 53.7983 68.4378 55.2565 70.7406C52.5066 70.5138 50.376 69.2635 48.3297 68.0237C35.4468 60.2139 21.8043 60.5805 7.85795 64.7134C5.34728 65.4575 3.05322 66.834 0.019043 68.2085C6.77135 57.8876 16.0599 52.9394 28.1179 52.7281C31.315 52.673 32.866 51.4252 33.8342 48.7929C34.98 45.6753 35.0953 42.447 35.4273 39.2292C36.8855 25.0521 40.564 11.5922 49.9764 0C51.4932 0.203095 50.8148 1.15795 50.722 1.91494Z"/>
</mask>
<path d="M92.0662 190.3C92.4042 190.822 92.3506 191.622 92.8124 192.154C98.1546 199.426 105.38 204.891 112.631 210.401C105.282 208.21 99.0693 204.287 93.7466 199.221C81.5201 187.576 76.5153 173.132 76.0424 157.019C77.4615 160.459 81.4048 167.836 80.8447 166.256C78.9222 159.095 77.0954 151.899 78.517 144.451C80.6561 133.23 87.6842 125.112 97.4226 118.758C98.2249 118.236 99.3987 118.046 99.8069 116.804C94.1632 116.767 89.2687 118.898 83.9069 121.079C86.1583 116.822 89.0747 113.535 91.4615 109.875C79.4792 111.006 62.2595 134.623 59.7995 153.329C58.7806 152.329 58.9044 151.172 58.7946 150.114C57.4322 136.923 62.3718 125.645 70.8666 115.477C74.9508 110.587 79.6171 106.219 84.9509 102.526C86.4878 101.46 86.7892 100.849 85.2523 99.4611C81.3962 95.977 78.2437 91.9207 75.201 87.8008C74.675 87.0517 74.7623 86.603 75.8428 86.6376C85.6689 95.3386 96.6122 102.756 107.119 110.679C126.943 125.626 141.818 143.778 147.754 167.883C149.229 165.894 148.841 163.943 148.959 162.126C149.088 160.174 148.99 158.211 148.99 156.151C149.806 156.563 149.88 157.412 150.155 158.14C154.557 169.756 156.139 181.754 155.692 194.03C155.655 195.011 155.596 195.997 155.686 196.971C156.139 202.046 159.227 204.327 164.583 203.552C165.906 203.359 167.209 203.056 168.752 202.758C167.516 204.607 165.762 205.496 163.581 206.751C169.12 207.806 172.861 205.58 176.402 202.789C177.531 202.768 177.488 203.328 177.116 204.053C176.081 206.311 174.257 208.03 172.002 210.093C175.11 210.14 177.131 209.191 178.969 207.75C182.363 205.092 186.121 203.755 190.936 205.19C189.169 202.575 186.636 201.578 183.88 200.548C186.557 197.266 190.284 196.116 194.306 194.855C191.359 193.9 188.758 194.468 185.89 194.494C188.595 187.813 192.656 182.19 197.143 176.801C197.672 176.503 197.683 175.923 197.526 175.577C197.334 175.155 196.878 175.601 196.538 175.657C191.376 178.689 186.703 182.237 183.072 186.945C184.66 179.555 187.157 172.565 192.662 165.932C189.386 167.279 187.739 169.252 185.901 171.001C184.772 171.035 184.925 170.397 185.141 169.727C187.953 161.796 188.111 154.722 185.473 150.161C184.7 154.511 184.21 158.794 181.077 163.133C179.785 151.699 177.035 141.336 170.896 132.031C172.36 139.951 172.636 147.761 170.474 156.341C165.309 116.202 143.11 87.98 106.125 69.4773C105.729 69.3136 105.281 69.4638 104.898 69.3451C103.908 69.0447 103.075 68.4433 102.14 68.0262C103.249 68.6992 104.578 69.1028 105.296 70.2579C113.413 75.7468 120.973 81.8161 127.545 88.9214C127.506 89.9053 127.05 90.1191 126.177 89.5808C110.165 81.2012 94.1467 72.7871 80.2254 61.4587C69.9124 53.0686 61.1363 43.5231 57.0777 30.8916C55.5604 26.1598 54.8373 21.3436 54.6427 16.0947C56.1375 17.6034 56.146 19.3496 56.7538 20.8319C58.2992 24.6116 60.0051 28.2936 62.9094 31.3533C66.6531 35.2912 71.0271 37.0056 76.8929 35.9559C141.506 24.3874 204.939 53.4852 234.98 108.337C267.813 168.295 247.629 243.562 188.406 282.028C163.857 297.973 136.676 306.228 106.795 306.671C103.342 306.721 99.8771 306.555 96.4403 307.098C92.8826 307.658 90.0119 309.14 87.7489 311.87C82.3334 318.395 76.4085 324.48 69.3553 329.518C68.4542 330.083 68.0686 329.803 68.0997 328.843C76.9661 317.686 83.6843 305.603 86.1644 291.732C86.578 289.426 86.5555 287.053 86.7776 284.144C90.5128 288.955 92.3114 294.132 94.1467 299.835C96.2126 294.821 96.9442 290.12 97.6733 284.729C101.802 290.943 106.252 295.957 111.665 300.446C108.245 290.706 104.735 280.976 108.116 270.077C110.162 274.574 112.433 278.451 116.41 282.139C115.189 273.517 113.978 265.517 117.19 257.121C119.34 260.337 120.9 263.423 124.252 265.562C123.523 262.375 122.78 259.532 122.442 256.612C122.172 254.27 122.6 253.592 125.192 254.687C133.146 258.049 140.579 262.241 147.878 266.672C149.373 267.579 150.873 268.479 152.365 269.391C152.883 269.71 153.415 270.27 154.039 269.948C154.819 269.545 154.467 268.703 154.411 268.089C154.18 265.638 152.801 263.655 151.185 261.829C146.429 256.457 140.321 252.664 134.033 249.092C133.247 248.646 132.448 248.214 131.654 247.776C131.525 247.143 131.742 246.829 132.476 246.993C139.279 249.401 145.362 252.867 150.721 257.509C160.845 266.279 157.794 276.265 150.808 282.83C150.229 283.376 149.451 283.735 149.204 284.719C149.587 284.719 149.983 284.785 150.349 284.711C166.545 281.382 180.202 267.147 181.786 251.701C182.786 241.942 179.146 233.586 172.208 226.42C168.228 222.31 163.449 219.156 158.281 216.476C156.142 215.365 154.056 214.993 151.706 215.835C148.675 216.914 145.579 217.826 142.539 218.878C141.528 219.229 140.56 219.496 139.324 219.182C141.053 217.095 143.313 215.737 145.517 214.305C146.8 213.469 148.154 212.702 149.102 211.488C149.581 210.873 149.688 210.224 149.153 209.597C148.717 209.088 148.151 208.959 147.473 209.159C127.534 215.059 112.473 205.925 97.9967 195.035C96.37 193.808 94.9149 192.381 93.378 191.049C92.8435 190.905 92.4238 190.596 92.0662 190.3C91.9594 190.136 91.816 190 91.6019 189.91C91.7483 190.026 91.9003 190.163 92.0662 190.3ZM64.6408 176.081C70.132 188.33 77.4163 198.458 86.9436 205.96C96.4688 213.464 108.242 218.343 122.709 220.097C91.7288 221.121 63.3993 199.643 64.6408 176.081ZM129.203 152.005C124.438 143.96 118.532 136.461 111.597 129.72C98.8752 134.71 90.0791 145.64 88.5958 158.299C87.1126 170.956 93.1784 183.363 104.451 190.735C115.723 198.107 130.441 199.295 142.936 193.84C140.65 169.822 134.596 162.4 134.596 162.4C134.036 168.15 128.789 172.657 122.397 172.657C115.634 172.657 110.15 167.609 110.15 161.379C110.15 159.931 110.449 158.546 110.989 157.275C111.904 159.928 114.601 161.851 117.787 161.851C121.727 161.851 124.919 158.91 124.919 155.284C124.919 153.182 123.847 151.308 122.175 150.106C122.248 150.106 122.324 150.103 122.397 150.103C124.916 150.103 127.258 150.805 129.203 152.005ZM94.5689 164.217C100.958 180.417 117.308 191.484 136.006 192.271C126.402 194.085 116.413 192.068 108.515 186.721C100.617 181.375 95.5512 173.198 94.5689 164.217ZM50.722 1.91494C47.8764 12.5998 45.5768 23.3666 45.3266 34.4287C45.0929 44.7391 46.1344 54.8462 51.1723 64.2387C52.3376 66.4094 53.7983 68.4378 55.2565 70.7406C52.5066 70.5138 50.376 69.2635 48.3297 68.0237C35.4468 60.2139 21.8043 60.5805 7.85795 64.7134C5.34728 65.4575 3.05322 66.834 0.019043 68.2085C6.77135 57.8876 16.0599 52.9394 28.1179 52.7281C31.315 52.673 32.866 51.4252 33.8342 48.7929C34.98 45.6753 35.0953 42.447 35.4273 39.2292C36.8855 25.0521 40.564 11.5922 49.9764 0C51.4932 0.203095 50.8148 1.15795 50.722 1.91494Z" fill="#040828"/>
<path d="M92.8124 192.154L93.6183 191.562L93.5944 191.53L93.568 191.499L92.8124 192.154ZM112.631 210.401L112.345 211.36L113.236 209.605L112.631 210.401ZM93.7466 199.221L93.0569 199.945L93.0571 199.945L93.7466 199.221ZM76.0424 157.019L76.9668 156.638L75.0429 157.048L76.0424 157.019ZM80.8447 166.256L79.8789 166.515L79.889 166.553L79.9021 166.59L80.8447 166.256ZM78.517 144.451L79.4993 144.638L79.4993 144.638L78.517 144.451ZM97.4226 118.758L96.877 117.92L96.8761 117.92L97.4226 118.758ZM99.8069 116.804L100.757 117.116L101.185 115.813L99.8134 115.804L99.8069 116.804ZM83.9069 121.079L83.0229 120.612L81.738 123.041L84.2838 122.006L83.9069 121.079ZM91.4615 109.875L92.2992 110.421L93.4315 108.684L91.3675 108.879L91.4615 109.875ZM59.7995 153.329L59.0992 154.043L60.5297 155.446L60.7909 153.459L59.7995 153.329ZM58.7946 150.114L57.7999 150.216L57.7999 150.217L58.7946 150.114ZM70.8666 115.477L71.6341 116.118L71.6341 116.118L70.8666 115.477ZM84.9509 102.526L85.5201 103.348L85.5207 103.348L84.9509 102.526ZM85.2523 99.4611L84.5818 100.203L84.5821 100.203L85.2523 99.4611ZM75.201 87.8008L74.3826 88.3754L74.3895 88.3852L74.3966 88.3948L75.201 87.8008ZM75.8428 86.6376L76.5058 85.8889L76.2356 85.6496L75.8748 85.6381L75.8428 86.6376ZM107.119 110.679L106.517 111.478L106.517 111.478L107.119 110.679ZM147.754 167.883L146.783 168.122L147.292 170.186L148.558 168.479L147.754 167.883ZM148.959 162.126L147.961 162.059L147.961 162.061L148.959 162.126ZM148.99 156.151L149.44 155.258L147.99 154.527V156.151H148.99ZM150.155 158.14L151.09 157.785L151.09 157.785L150.155 158.14ZM155.692 194.03L156.691 194.067L156.691 194.067L155.692 194.03ZM155.686 196.971L156.682 196.882L156.682 196.879L155.686 196.971ZM164.583 203.552L164.726 204.542L164.727 204.541L164.583 203.552ZM168.752 202.758L169.583 203.313L170.914 201.322L168.562 201.776L168.752 202.758ZM163.581 206.751L163.082 205.884L160.746 207.229L163.394 207.733L163.581 206.751ZM176.402 202.789L176.383 201.789L176.047 201.796L175.783 202.004L176.402 202.789ZM177.116 204.053L176.226 203.597L176.216 203.617L176.207 203.636L177.116 204.053ZM172.002 210.093L171.327 209.355L169.47 211.054L171.987 211.093L172.002 210.093ZM178.969 207.75L178.352 206.963L178.352 206.963L178.969 207.75ZM190.936 205.19L190.651 206.148L193.332 206.947L191.765 204.63L190.936 205.19ZM183.88 200.548L183.105 199.915L182.224 200.996L183.53 201.484L183.88 200.548ZM194.306 194.855L194.605 195.81L197.598 194.871L194.614 193.904L194.306 194.855ZM185.89 194.494L184.963 194.118L184.401 195.507L185.899 195.494L185.89 194.494ZM197.143 176.801L196.652 175.93L196.492 176.02L196.374 176.161L197.143 176.801ZM197.526 175.577L196.615 175.991L196.616 175.992L197.526 175.577ZM196.538 175.657L196.377 174.67L196.192 174.7L196.031 174.794L196.538 175.657ZM183.072 186.945L182.095 186.735L183.864 187.556L183.072 186.945ZM192.662 165.932L193.431 166.57L192.281 165.007L192.662 165.932ZM185.901 171.001L185.932 172L186.313 171.989L186.59 171.725L185.901 171.001ZM185.141 169.727L184.199 169.393L184.194 169.406L184.19 169.419L185.141 169.727ZM185.473 150.161L186.339 149.661L184.968 147.291L184.489 149.986L185.473 150.161ZM181.077 163.133L180.083 163.245L180.373 165.815L181.887 163.718L181.077 163.133ZM170.896 132.031L171.731 131.48L169.913 132.212L170.896 132.031ZM170.474 156.341L169.482 156.469L171.444 156.585L170.474 156.341ZM106.125 69.4773L106.573 68.583L106.54 68.5668L106.507 68.553L106.125 69.4773ZM104.898 69.3451L105.195 68.39L105.189 68.3881L104.898 69.3451ZM102.14 68.0262L102.548 67.113L101.621 68.8811L102.14 68.0262ZM105.296 70.2579L104.446 70.7858L104.559 70.9669L104.735 71.0863L105.296 70.2579ZM127.545 88.9214L128.544 88.9616L128.561 88.547L128.279 88.2423L127.545 88.9214ZM126.177 89.5808L126.702 88.7298L126.672 88.7112L126.641 88.6948L126.177 89.5808ZM80.2254 61.4587L80.8566 60.6831L80.8565 60.683L80.2254 61.4587ZM57.0777 30.8916L56.1255 31.197L56.1256 31.1975L57.0777 30.8916ZM54.6427 16.0947L55.3531 15.3909L53.5484 13.5695L53.6434 16.1318L54.6427 16.0947ZM56.7538 20.8319L57.6794 20.4534L57.679 20.4525L56.7538 20.8319ZM62.9094 31.3533L62.1841 32.0417L62.1846 32.0423L62.9094 31.3533ZM76.8929 35.9559L77.069 36.9402L77.0691 36.9402L76.8929 35.9559ZM234.98 108.337L235.857 107.857L235.857 107.857L234.98 108.337ZM188.406 282.028L188.951 282.867H188.951L188.406 282.028ZM106.795 306.671L106.81 307.671H106.81L106.795 306.671ZM96.4403 307.098L96.5956 308.086L96.5964 308.086L96.4403 307.098ZM87.7489 311.87L88.5184 312.508L88.5188 312.508L87.7489 311.87ZM69.3553 329.518L69.8861 330.366L69.9118 330.35L69.9365 330.332L69.3553 329.518ZM68.0997 328.843L67.3168 328.221L67.1109 328.48L67.1002 328.81L68.0997 328.843ZM86.1644 291.732L85.1801 291.555L85.18 291.556L86.1644 291.732ZM86.7776 284.144L87.5675 283.53L85.9779 281.483L85.7805 284.068L86.7776 284.144ZM94.1467 299.835L93.1948 300.141L94.0312 302.74L95.0713 300.216L94.1467 299.835ZM97.6733 284.729L98.5062 284.176L97.0379 281.966L96.6823 284.595L97.6733 284.729ZM111.665 300.446L111.026 301.216L113.804 303.519L112.608 300.115L111.665 300.446ZM108.116 270.077L109.026 269.663L107.938 267.273L107.161 269.781L108.116 270.077ZM116.41 282.139L115.73 282.872L117.795 284.786L117.4 281.999L116.41 282.139ZM117.19 257.121L118.021 256.565L116.947 254.958L116.256 256.764L117.19 257.121ZM124.252 265.562L123.714 266.405L125.77 267.717L125.227 265.339L124.252 265.562ZM122.442 256.612L121.449 256.727L121.449 256.727L122.442 256.612ZM125.192 254.687L125.581 253.766L125.581 253.765L125.192 254.687ZM147.878 266.672L148.397 265.817H148.397L147.878 266.672ZM152.365 269.391L152.889 268.54L152.887 268.538L152.365 269.391ZM154.039 269.948L154.498 270.837L154.499 270.836L154.039 269.948ZM154.411 268.089L155.407 267.997L155.407 267.995L154.411 268.089ZM151.185 261.829L151.934 261.167L151.934 261.167L151.185 261.829ZM134.033 249.092L134.527 248.223L134.526 248.222L134.033 249.092ZM131.654 247.776L130.675 247.976L130.767 248.429L131.172 248.652L131.654 247.776ZM132.476 246.993L132.81 246.05L132.753 246.03L132.694 246.017L132.476 246.993ZM150.721 257.509L151.376 256.753H151.376L150.721 257.509ZM150.808 282.83L150.123 282.101L150.122 282.102L150.808 282.83ZM149.204 284.719L148.234 284.474L147.921 285.719H149.204V284.719ZM150.349 284.711L150.548 285.691L150.551 285.69L150.349 284.711ZM181.786 251.701L182.781 251.803L182.781 251.803L181.786 251.701ZM172.208 226.42L172.926 225.724L172.926 225.724L172.208 226.42ZM158.281 216.476L157.82 217.364L157.821 217.364L158.281 216.476ZM151.706 215.835L152.041 216.777L152.043 216.777L151.706 215.835ZM142.539 218.878L142.212 217.933L142.21 217.934L142.539 218.878ZM139.324 219.182L138.554 218.544L137.546 219.762L139.078 220.151L139.324 219.182ZM145.517 214.305L146.062 215.143L146.062 215.143L145.517 214.305ZM149.102 211.488L149.89 212.104L149.891 212.103L149.102 211.488ZM149.153 209.597L149.914 208.948L149.912 208.946L149.153 209.597ZM147.473 209.159L147.19 208.2L147.189 208.2L147.473 209.159ZM97.9967 195.035L97.3947 195.833L97.3955 195.834L97.9967 195.035ZM93.378 191.049L94.0329 190.294L93.8601 190.144L93.6393 190.084L93.378 191.049ZM91.6019 189.91L91.9881 188.988L90.982 190.695L91.6019 189.91ZM64.6408 176.081L65.5533 175.672L63.6422 176.029L64.6408 176.081ZM86.9436 205.96L87.5624 205.174L87.5622 205.174L86.9436 205.96ZM122.709 220.097L122.742 221.097L122.83 219.104L122.709 220.097ZM129.203 152.005L128.678 152.856L130.063 151.495L129.203 152.005ZM111.597 129.72L112.294 129.003L111.832 128.553L111.232 128.789L111.597 129.72ZM88.5958 158.299L89.589 158.415H89.589L88.5958 158.299ZM104.451 190.735L104.998 189.898L104.998 189.898L104.451 190.735ZM142.936 193.84L143.336 194.756L144 194.466L143.931 193.745L142.936 193.84ZM134.596 162.4L135.371 161.768L133.836 159.886L133.601 162.303L134.596 162.4ZM110.989 157.275L111.935 156.949L111.087 154.49L110.069 156.884L110.989 157.275ZM122.175 150.106V149.106H119.073L121.591 150.917L122.175 150.106ZM94.5689 164.217L95.4992 163.85L93.5748 164.326L94.5689 164.217ZM136.006 192.271L136.192 193.253L136.048 191.271L136.006 192.271ZM108.515 186.721L109.076 185.893L109.076 185.893L108.515 186.721ZM50.722 1.91494L51.6883 2.17229L51.7062 2.10534L51.7146 2.03657L50.722 1.91494ZM45.3266 34.4287L46.3263 34.4514V34.4513L45.3266 34.4287ZM51.1723 64.2387L50.2911 64.7114L50.2913 64.7117L51.1723 64.2387ZM55.2565 70.7406L55.1743 71.7372L57.1757 71.9023L56.1014 70.2056L55.2565 70.7406ZM48.3297 68.0237L47.8113 68.8788L47.8115 68.879L48.3297 68.0237ZM7.85795 64.7134L7.57382 63.7546L7.57381 63.7546L7.85795 64.7134ZM0.019043 68.2085L-0.817777 67.661L-2.70005 70.538L0.431679 69.1194L0.019043 68.2085ZM28.1179 52.7281L28.1007 51.7283L28.1004 51.7283L28.1179 52.7281ZM33.8342 48.7929L34.7728 49.1382L34.7729 49.1379L33.8342 48.7929ZM35.4273 39.2292L36.422 39.3318L36.422 39.3315L35.4273 39.2292ZM49.9764 0L50.1091 -0.991155L49.5534 -1.06555L49.2001 -0.630339L49.9764 0ZM92.0662 190.3L91.2267 190.844C91.2854 190.934 91.3167 191.06 91.4253 191.476C91.5119 191.808 91.6583 192.35 92.0567 192.809L92.8124 192.154L93.568 191.499C93.5046 191.426 93.4469 191.302 93.3605 190.971C93.2959 190.723 93.1851 190.189 92.9058 189.757L92.0662 190.3ZM92.8124 192.154L92.0065 192.746C97.4493 200.155 104.797 205.705 112.026 211.197L112.631 210.401L113.236 209.605C105.962 204.078 98.86 198.697 93.6183 191.562L92.8124 192.154ZM112.631 210.401L112.916 209.443C105.739 207.303 99.6614 203.47 94.436 198.496L93.7466 199.221L93.0571 199.945C98.4771 205.104 104.824 209.117 112.345 211.36L112.631 210.401ZM93.7466 199.221L94.4362 198.496C82.4386 187.07 77.5088 172.897 77.042 156.99L76.0424 157.019L75.0429 157.048C75.5217 173.367 80.6015 188.082 93.0569 199.945L93.7466 199.221ZM76.0424 157.019L75.118 157.401C75.8459 159.165 77.2043 161.902 78.3008 163.986C78.8495 165.028 79.3445 165.929 79.6721 166.476C79.7543 166.614 79.8309 166.737 79.8984 166.839C79.9504 166.917 80.0419 167.052 80.1486 167.159C80.1788 167.19 80.2393 167.248 80.3247 167.304C80.3765 167.338 80.6115 167.494 80.9506 167.473C81.1514 167.461 81.3598 167.387 81.5354 167.24C81.6997 167.103 81.7851 166.943 81.8289 166.831C81.9072 166.629 81.9 166.454 81.8975 166.402C81.8911 166.27 81.8607 166.158 81.848 166.112C81.8305 166.048 81.809 165.983 81.7872 165.922L80.8447 166.256L79.9021 166.59C79.9084 166.608 79.9129 166.621 79.9161 166.631C79.9193 166.641 79.9205 166.645 79.9203 166.645C79.9202 166.644 79.9195 166.642 79.9185 166.637C79.9174 166.633 79.9157 166.626 79.9138 166.616C79.9109 166.601 79.9027 166.558 79.8998 166.499C79.898 166.462 79.8896 166.299 79.9648 166.106C80.0069 165.998 80.0903 165.841 80.2521 165.706C80.4251 165.561 80.6306 165.489 80.8278 165.477C81.16 165.456 81.3861 165.608 81.4273 165.635C81.502 165.685 81.5501 165.732 81.566 165.748C81.6157 165.798 81.6219 165.819 81.5638 165.731C81.521 165.667 81.4625 165.573 81.3882 165.449C81.0896 164.95 80.6151 164.088 80.0706 163.054C78.9808 160.984 77.658 158.313 76.9668 156.638L76.0424 157.019ZM80.8447 166.256L81.8104 165.997C79.8812 158.811 78.1268 151.83 79.4993 144.638L78.517 144.451L77.5347 144.264C76.0641 151.969 77.9631 159.38 79.8789 166.515L80.8447 166.256ZM78.517 144.451L79.4993 144.638C81.5715 133.768 88.3751 125.855 97.969 119.595L97.4226 118.758L96.8761 117.92C86.9933 124.369 79.7407 132.692 77.5347 144.264L78.517 144.451ZM97.4226 118.758L97.9681 119.596C98.1075 119.505 98.2756 119.421 98.5108 119.308C98.7276 119.203 99.0083 119.07 99.2786 118.907C99.8522 118.562 100.454 118.037 100.757 117.116L99.8069 116.804L98.8568 116.491C98.7513 116.813 98.5624 117.004 98.2464 117.194C98.0719 117.299 97.8833 117.39 97.6415 117.506C97.4182 117.614 97.1387 117.749 96.877 117.92L97.4226 118.758ZM99.8069 116.804L99.8134 115.804C93.9311 115.765 88.8392 117.993 83.53 120.153L83.9069 121.079L84.2838 122.006C89.6983 119.802 94.3954 117.768 99.8003 117.804L99.8069 116.804ZM83.9069 121.079L84.7909 121.547C85.8838 119.48 87.1436 117.639 88.444 115.839C89.7323 114.056 91.0883 112.278 92.2992 110.421L91.4615 109.875L90.6238 109.328C89.4479 111.132 88.1523 112.828 86.8229 114.668C85.5055 116.491 84.1814 118.421 83.0229 120.612L83.9069 121.079ZM91.4615 109.875L91.3675 108.879C88.0933 109.188 84.5869 111.01 81.1812 113.73C77.7577 116.464 74.3455 120.177 71.2515 124.423C65.0737 132.899 60.0658 143.635 58.808 153.198L59.7995 153.329L60.7909 153.459C61.9932 144.317 66.8252 133.892 72.8678 125.601C75.8841 121.462 79.1772 117.89 82.4293 115.293C85.6992 112.681 88.8386 111.127 91.5555 110.87L91.4615 109.875ZM59.7995 153.329L60.4997 152.615C59.8102 151.939 59.924 151.308 59.7893 150.01L58.7946 150.114L57.7999 150.217C57.8849 151.035 57.7509 152.72 59.0992 154.043L59.7995 153.329ZM58.7946 150.114L59.7893 150.011C58.4627 137.167 63.2545 126.148 71.6341 116.118L70.8666 115.477L70.0992 114.836C61.4892 125.142 56.4017 136.679 57.7999 150.216L58.7946 150.114ZM70.8666 115.477L71.6341 116.118C75.6655 111.291 80.2662 106.986 85.5201 103.348L84.9509 102.526L84.3817 101.704C78.9681 105.452 74.2361 109.882 70.0991 114.836L70.8666 115.477ZM84.9509 102.526L85.5207 103.348C85.9178 103.072 86.2915 102.789 86.5829 102.486C86.8746 102.183 87.1575 101.786 87.2411 101.276C87.3283 100.744 87.1715 100.262 86.9238 99.8554C86.686 99.4649 86.3342 99.0906 85.9224 98.7188L85.2523 99.4611L84.5821 100.203C84.9388 100.525 85.1256 100.748 85.2155 100.896C85.2955 101.027 85.2555 101.025 85.2674 100.953C85.2757 100.902 85.2911 100.944 85.1421 101.099C84.9927 101.254 84.7524 101.447 84.3811 101.704L84.9509 102.526ZM85.2523 99.4611L85.9227 98.7191C82.1463 95.3071 79.0438 91.3207 76.0054 87.2067L75.201 87.8008L74.3966 88.3948C77.4437 92.5207 80.6461 96.647 84.5818 100.203L85.2523 99.4611ZM75.201 87.8008L76.0194 87.2261C75.915 87.0774 75.8819 86.9992 75.8762 86.9822C75.8686 86.9593 75.9297 87.1184 75.8306 87.3374C75.7809 87.4473 75.7086 87.5291 75.6396 87.5827C75.5756 87.6324 75.5264 87.6489 75.5192 87.6513C75.5157 87.6524 75.5941 87.6301 75.8109 87.6371L75.8428 86.6376L75.8748 85.6381C75.5512 85.6277 75.2136 85.6486 74.9063 85.7475C74.5878 85.85 74.2081 86.0714 74.0083 86.5132C73.8181 86.9337 73.8885 87.3432 73.9787 87.6141C74.0708 87.8908 74.2241 88.1496 74.3826 88.3754L75.201 87.8008ZM75.8428 86.6376L75.1799 87.3862C85.0448 96.1217 96.0647 103.595 106.517 111.478L107.119 110.679L107.721 109.881C97.1598 101.916 86.2931 94.5556 76.5058 85.8889L75.8428 86.6376ZM107.119 110.679L106.517 111.478C126.22 126.334 140.918 144.306 146.783 168.122L147.754 167.883L148.725 167.644C142.718 143.25 127.666 124.919 107.721 109.881L107.119 110.679ZM147.754 167.883L148.558 168.479C150.264 166.178 149.857 163.72 149.957 162.191L148.959 162.126L147.961 162.061C147.824 164.166 148.194 165.611 146.951 167.288L147.754 167.883ZM148.959 162.126L149.957 162.192C150.089 160.197 149.99 158.143 149.99 156.151H148.99H147.99C147.99 158.28 148.088 160.15 147.961 162.059L148.959 162.126ZM148.99 156.151L148.54 157.044C148.675 157.113 148.764 157.209 148.859 157.427C148.912 157.549 148.959 157.689 149.017 157.876C149.07 158.047 149.137 158.276 149.22 158.494L150.155 158.14L151.09 157.785C151.035 157.64 150.991 157.49 150.927 157.284C150.868 157.094 150.794 156.86 150.692 156.627C150.478 156.136 150.121 155.602 149.44 155.258L148.99 156.151ZM150.155 158.14L149.22 158.494C153.568 169.967 155.136 181.83 154.692 193.994L155.692 194.03L156.691 194.067C157.142 181.679 155.547 169.545 151.09 157.785L150.155 158.14ZM155.692 194.03L154.692 193.993C154.657 194.938 154.593 196.008 154.69 197.063L155.686 196.971L156.682 196.879C156.599 195.987 156.653 195.084 156.691 194.067L155.692 194.03ZM155.686 196.971L154.69 197.06C154.933 199.778 155.901 201.928 157.701 203.259C159.488 204.58 161.9 204.95 164.726 204.542L164.583 203.552L164.44 202.562C161.909 202.928 160.1 202.545 158.89 201.651C157.694 200.767 156.892 199.238 156.682 196.882L155.686 196.971ZM164.583 203.552L164.727 204.541C166.079 204.344 167.449 204.028 168.941 203.74L168.752 202.758L168.562 201.776C166.969 202.083 165.733 202.374 164.439 202.562L164.583 203.552ZM168.752 202.758L167.92 202.202C166.844 203.813 165.342 204.584 163.082 205.884L163.581 206.751L164.08 207.618C166.183 206.407 168.188 205.401 169.583 203.313L168.752 202.758ZM163.581 206.751L163.394 207.733C169.365 208.871 173.405 206.424 177.021 203.575L176.402 202.789L175.783 202.004C172.316 204.736 168.875 206.741 163.768 205.769L163.581 206.751ZM176.402 202.789L176.421 203.789C176.522 203.787 176.591 203.792 176.635 203.798C176.679 203.804 176.684 203.81 176.664 203.802C176.642 203.793 176.588 203.766 176.527 203.708C176.464 203.647 176.414 203.57 176.383 203.487C176.355 203.409 176.351 203.347 176.351 203.317C176.352 203.289 176.356 203.282 176.35 203.304C176.338 203.352 176.304 203.446 176.226 203.597L177.116 204.053L178.007 204.509C178.115 204.297 178.225 204.049 178.29 203.79C178.353 203.539 178.4 203.175 178.26 202.795C178.104 202.372 177.78 202.097 177.42 201.95C177.093 201.816 176.73 201.783 176.383 201.789L176.402 202.789ZM177.116 204.053L176.207 203.636C175.27 205.68 173.608 207.269 171.327 209.355L172.002 210.093L172.677 210.831C174.906 208.792 176.892 206.942 178.025 204.47L177.116 204.053ZM172.002 210.093L171.987 211.093C175.359 211.144 177.598 210.095 179.586 208.537L178.969 207.75L178.352 206.963C176.664 208.287 174.86 209.136 172.018 209.093L172.002 210.093ZM178.969 207.75L179.585 208.538C182.794 206.025 186.221 204.828 190.651 206.148L190.936 205.19L191.222 204.231C186.02 202.681 181.933 204.159 178.352 206.963L178.969 207.75ZM190.936 205.19L191.765 204.63C189.798 201.72 186.966 200.634 184.231 199.611L183.88 200.548L183.53 201.484C186.305 202.523 188.54 203.431 190.108 205.75L190.936 205.19ZM183.88 200.548L184.655 201.18C187.112 198.168 190.531 197.086 194.605 195.81L194.306 194.855L194.006 193.901C190.036 195.146 186.002 196.365 183.105 199.915L183.88 200.548ZM194.306 194.855L194.614 193.904C192.997 193.38 191.488 193.28 190.05 193.307C189.336 193.32 188.627 193.365 187.94 193.407C187.246 193.449 186.569 193.488 185.881 193.494L185.89 194.494L185.899 195.494C186.645 195.487 187.369 195.445 188.061 195.403C188.761 195.361 189.424 195.319 190.087 195.307C191.402 195.282 192.668 195.376 193.997 195.807L194.306 194.855ZM185.89 194.494L186.817 194.869C189.465 188.329 193.45 182.799 197.911 177.441L197.143 176.801L196.374 176.161C191.862 181.58 187.725 187.297 184.963 194.118L185.89 194.494ZM197.143 176.801L197.634 177.672C198.764 177.035 198.73 175.808 198.436 175.163L197.526 175.577L196.616 175.992C196.613 175.986 196.612 175.983 196.613 175.984C196.613 175.985 196.613 175.988 196.614 175.991C196.615 175.999 196.614 176 196.615 175.994C196.617 175.985 196.622 175.968 196.636 175.949C196.642 175.941 196.648 175.934 196.653 175.93C196.657 175.926 196.658 175.927 196.652 175.93L197.143 176.801ZM197.526 175.577L198.436 175.164C198.289 174.839 198.003 174.527 197.556 174.428C197.194 174.347 196.883 174.448 196.746 174.498C196.604 174.55 196.437 174.632 196.392 174.653C196.297 174.696 196.315 174.68 196.377 174.67L196.538 175.657L196.699 176.644C196.825 176.623 196.934 176.588 197.015 176.559C197.097 176.529 197.171 176.495 197.226 176.47C197.255 176.457 197.282 176.444 197.305 176.434C197.329 176.422 197.348 176.413 197.366 176.405C197.404 176.388 197.422 176.38 197.429 176.378C197.438 176.375 197.415 176.384 197.371 176.391C197.326 176.398 197.236 176.406 197.121 176.38C196.997 176.352 196.876 176.293 196.776 176.203C196.682 176.119 196.635 176.035 196.615 175.991L197.526 175.577ZM196.538 175.657L196.031 174.794C190.806 177.864 186.017 181.489 182.281 186.335L183.072 186.945L183.864 187.556C187.389 182.985 191.945 179.515 197.045 176.519L196.538 175.657ZM183.072 186.945L184.05 187.155C185.618 179.857 188.065 173.037 193.431 166.57L192.662 165.932L191.892 165.293C186.249 172.093 183.702 179.253 182.095 186.735L183.072 186.945ZM192.662 165.932L192.281 165.007C188.788 166.444 186.981 168.593 185.212 170.276L185.901 171.001L186.59 171.725C188.497 169.911 189.983 168.115 193.042 166.856L192.662 165.932ZM185.901 171.001L185.87 170.001C185.774 170.004 185.714 169.999 185.683 169.994C185.652 169.99 185.662 169.987 185.697 170.004C185.735 170.021 185.795 170.058 185.854 170.124C185.913 170.191 185.95 170.263 185.97 170.325C185.988 170.383 185.989 170.422 185.989 170.429C185.989 170.435 185.988 170.423 185.995 170.387C186.001 170.352 186.012 170.306 186.029 170.244C186.046 170.182 186.067 170.114 186.093 170.035L185.141 169.727L184.19 169.419C184.135 169.588 184.065 169.812 184.025 170.04C183.987 170.259 183.954 170.587 184.064 170.931C184.189 171.327 184.468 171.638 184.855 171.818C185.196 171.976 185.575 172.011 185.932 172L185.901 171.001ZM185.141 169.727L186.084 170.061C188.933 162.024 189.194 154.598 186.339 149.661L185.473 150.161L184.608 150.662C187.027 154.846 186.973 161.567 184.199 169.393L185.141 169.727ZM185.473 150.161L184.489 149.986C183.703 154.401 183.239 158.431 180.266 162.548L181.077 163.133L181.887 163.718C185.181 159.157 185.696 154.62 186.458 150.336L185.473 150.161ZM181.077 163.133L182.07 163.021C180.769 151.498 177.988 140.964 171.731 131.48L170.896 132.031L170.061 132.581C176.083 141.708 178.801 151.9 180.083 163.245L181.077 163.133ZM170.896 132.031L169.913 132.212C171.358 140.031 171.622 147.69 169.504 156.097L170.474 156.341L171.444 156.585C173.649 147.832 173.362 139.871 171.879 131.849L170.896 132.031ZM170.474 156.341L171.466 156.214C166.253 115.704 143.818 87.2157 106.573 68.583L106.125 69.4773L105.678 70.3716C142.403 88.7443 164.365 116.7 169.482 156.469L170.474 156.341ZM106.125 69.4773L106.507 68.553C106.099 68.3844 105.697 68.3922 105.496 68.3944C105.371 68.3957 105.309 68.3972 105.246 68.3941C105.192 68.3913 105.182 68.3862 105.195 68.39L104.898 69.3451L104.602 70.3002C104.978 70.4167 105.37 70.3958 105.517 70.3942C105.735 70.3919 105.756 70.4065 105.744 70.4016L106.125 69.4773ZM104.898 69.3451L105.189 68.3881C104.791 68.2676 104.406 68.0808 103.97 67.8476C103.558 67.6274 103.058 67.3409 102.548 67.113L102.14 68.0262L101.733 68.9394C102.157 69.1286 102.54 69.3513 103.027 69.6113C103.488 69.8581 104.015 70.1222 104.608 70.3021L104.898 69.3451ZM102.14 68.0262L101.621 68.8811C101.932 69.0697 102.252 69.2358 102.542 69.385C102.841 69.5394 103.106 69.6755 103.358 69.8234C103.856 70.1159 104.21 70.4055 104.446 70.7858L105.296 70.2579L106.145 69.73C105.663 68.9552 104.994 68.4654 104.371 68.0991C104.062 67.9176 103.743 67.7544 103.459 67.6077C103.164 67.4559 102.903 67.3192 102.659 67.1713L102.14 68.0262ZM105.296 70.2579L104.735 71.0863C112.809 76.5459 120.305 82.5668 126.811 89.6004L127.545 88.9214L128.279 88.2423C121.641 81.0654 114.016 74.9478 105.856 69.4295L105.296 70.2579ZM127.545 88.9214L126.546 88.8811C126.543 88.9676 126.535 89.0312 126.527 89.0757C126.519 89.1208 126.512 89.1373 126.513 89.1335C126.515 89.1294 126.529 89.0962 126.567 89.0521C126.607 89.0053 126.666 88.9563 126.742 88.92C126.899 88.8447 127.011 88.8766 126.989 88.8714C126.98 88.8692 126.951 88.8608 126.899 88.8373C126.849 88.8142 126.783 88.7796 126.702 88.7298L126.177 89.5808L125.652 90.4319C125.919 90.5967 126.212 90.7408 126.518 90.815C126.828 90.8904 127.22 90.9083 127.605 90.7238C128.391 90.3475 128.523 89.4822 128.544 88.9616L127.545 88.9214ZM126.177 89.5808L126.641 88.6948C110.614 80.3077 94.6869 71.9374 80.8566 60.6831L80.2254 61.4587L79.5942 62.2344C93.6065 73.6368 109.715 82.0948 125.714 90.4668L126.177 89.5808ZM80.2254 61.4587L80.8565 60.683C70.6056 52.3434 62.002 42.9483 58.0298 30.5857L57.0777 30.8916L56.1256 31.1975C60.2706 44.0979 69.2192 53.7938 79.5943 62.2344L80.2254 61.4587ZM57.0777 30.8916L58.0299 30.5863C56.5459 25.9584 55.834 21.2352 55.642 16.0577L54.6427 16.0947L53.6434 16.1318C53.8406 21.4519 54.5748 26.3612 56.1255 31.197L57.0777 30.8916ZM54.6427 16.0947L53.9324 16.7986C54.5321 17.4039 54.8436 18.0596 55.0804 18.7839C55.2035 19.1605 55.2985 19.5285 55.414 19.9455C55.5252 20.3469 55.6527 20.7823 55.8285 21.2112L56.7538 20.8319L57.679 20.4525C57.551 20.1403 57.4495 19.8016 57.3414 19.4116C57.2377 19.0371 57.1232 18.5964 56.9814 18.1625C56.6883 17.266 56.2481 16.2943 55.3531 15.3909L54.6427 16.0947ZM56.7538 20.8319L55.8281 21.2103C57.3792 25.0037 59.1422 28.8372 62.1841 32.0417L62.9094 31.3533L63.6346 30.6648C60.8679 27.7501 59.2192 24.2194 57.6794 20.4534L56.7538 20.8319ZM62.9094 31.3533L62.1846 32.0423C64.1418 34.101 66.3022 35.6179 68.78 36.4705C71.2603 37.324 73.9959 37.4902 77.069 36.9402L76.8929 35.9559L76.7167 34.9715C73.9241 35.4713 71.5398 35.3051 69.4307 34.5794C67.3191 33.8527 65.4207 32.5435 63.6341 30.6643L62.9094 31.3533ZM76.8929 35.9559L77.0691 36.9402C141.286 25.4425 204.282 54.3662 234.103 108.817L234.98 108.337L235.857 107.857C205.597 52.6042 141.725 23.3322 76.7166 34.9715L76.8929 35.9559ZM234.98 108.337L234.103 108.817C266.672 168.292 246.669 242.993 187.862 281.19L188.406 282.028L188.951 282.867C248.589 244.13 268.955 168.297 235.857 107.857L234.98 108.337ZM188.406 282.028L187.862 281.189C163.472 297.03 136.475 305.231 106.781 305.671L106.795 306.671L106.81 307.671C136.876 307.225 164.242 298.915 188.951 282.867L188.406 282.028ZM106.795 306.671L106.781 305.671C103.411 305.72 99.8146 305.552 96.2841 306.111L96.4403 307.098L96.5964 308.086C99.9396 307.558 103.273 307.722 106.81 307.671L106.795 306.671ZM96.4403 307.098L96.285 306.11C92.5178 306.703 89.4164 308.291 86.979 311.232L87.7489 311.87L88.5188 312.508C90.6073 309.988 93.2474 308.613 96.5956 308.086L96.4403 307.098ZM87.7489 311.87L86.9794 311.231C81.5963 317.717 75.7333 323.734 68.7741 328.704L69.3553 329.518L69.9365 330.332C77.0836 325.227 83.0705 319.073 88.5184 312.508L87.7489 311.87ZM69.3553 329.518L68.8245 328.671C68.7402 328.724 68.6736 328.759 68.6235 328.782C68.5988 328.793 68.5798 328.801 68.5663 328.806C68.5596 328.808 68.5545 328.81 68.551 328.811C68.5475 328.812 68.5458 328.812 68.5458 328.812C68.5459 328.812 68.5478 328.812 68.5516 328.811C68.5554 328.811 68.5613 328.81 68.5691 328.809C68.5845 328.808 68.6086 328.807 68.6398 328.809C68.7055 328.815 68.792 328.836 68.8808 328.888C68.9696 328.939 69.0306 329.004 69.068 329.058C69.1031 329.109 69.1135 329.144 69.1137 329.145C69.1139 329.145 69.108 329.125 69.1033 329.076C69.0988 329.028 69.0964 328.962 69.0992 328.875L68.0997 328.843L67.1002 328.81C67.0907 329.106 67.1091 329.424 67.1985 329.721C67.2894 330.023 67.4819 330.388 67.8751 330.617C68.2695 330.846 68.6854 330.834 69.0034 330.759C69.3148 330.686 69.6134 330.536 69.8861 330.366L69.3553 329.518ZM68.0997 328.843L68.8826 329.465C77.8127 318.228 84.6301 305.995 87.1488 291.908L86.1644 291.732L85.18 291.556C82.7385 305.211 76.1195 317.144 67.3168 328.221L68.0997 328.843ZM86.1644 291.732L87.1486 291.908C87.5736 289.54 87.5615 287.013 87.7747 284.22L86.7776 284.144L85.7805 284.068C85.5495 287.093 85.5825 289.312 85.1801 291.555L86.1644 291.732ZM86.7776 284.144L85.9877 284.757C89.604 289.415 91.3594 294.438 93.1948 300.141L94.1467 299.835L95.0986 299.529C93.2635 293.826 91.4216 288.495 87.5675 283.53L86.7776 284.144ZM94.1467 299.835L95.0713 300.216C97.1907 295.072 97.9347 290.258 98.6643 284.863L97.6733 284.729L96.6823 284.595C95.9537 289.983 95.2345 294.569 93.2221 299.454L94.1467 299.835ZM97.6733 284.729L96.8404 285.282C101.019 291.571 105.533 296.66 111.026 301.216L111.665 300.446L112.303 299.677C106.971 295.254 102.585 290.315 98.5062 284.176L97.6733 284.729ZM111.665 300.446L112.608 300.115C109.17 290.323 105.803 280.908 109.071 270.373L108.116 270.077L107.161 269.781C103.667 281.043 107.32 291.089 110.721 300.777L111.665 300.446ZM108.116 270.077L107.205 270.491C109.282 275.055 111.62 279.062 115.73 282.872L116.41 282.139L117.09 281.405C113.246 277.841 111.042 274.094 109.026 269.663L108.116 270.077ZM116.41 282.139L117.4 281.999C116.173 273.333 115.02 265.594 118.124 257.478L117.19 257.121L116.256 256.764C112.937 265.44 114.205 273.701 115.42 282.279L116.41 282.139ZM117.19 257.121L116.359 257.677C118.427 260.77 120.134 264.12 123.714 266.405L124.252 265.562L124.79 264.719C121.666 262.725 120.253 259.903 118.021 256.565L117.19 257.121ZM124.252 265.562L125.227 265.339C124.488 262.11 123.765 259.346 123.435 256.497L122.442 256.612L121.449 256.727C121.795 259.718 122.558 262.641 123.277 265.785L124.252 265.562ZM122.442 256.612L123.436 256.497C123.37 255.93 123.357 255.541 123.387 255.282C123.417 255.012 123.474 255.055 123.377 255.134C123.269 255.223 123.226 255.151 123.498 255.187C123.766 255.224 124.182 255.346 124.803 255.608L125.192 254.687L125.581 253.765C124.906 253.48 124.296 253.277 123.764 253.205C123.234 253.134 122.615 253.173 122.11 253.587C121.616 253.992 121.454 254.575 121.4 255.057C121.344 255.549 121.379 256.123 121.449 256.727L122.442 256.612ZM125.192 254.687L124.803 255.608C132.691 258.943 140.076 263.105 147.359 267.527L147.878 266.672L148.397 265.817C141.083 261.376 133.602 257.156 125.581 253.766L125.192 254.687ZM147.878 266.672L147.359 267.527C148.861 268.439 150.352 269.332 151.843 270.244L152.365 269.391L152.887 268.538C151.394 267.625 149.884 266.72 148.397 265.817L147.878 266.672ZM152.365 269.391L151.84 270.243C151.938 270.303 152.029 270.37 152.186 270.479C152.322 270.574 152.506 270.699 152.711 270.802C153.147 271.023 153.794 271.199 154.498 270.837L154.039 269.948L153.581 269.059C153.581 269.059 153.582 269.059 153.582 269.058C153.582 269.058 153.583 269.058 153.584 269.058C153.586 269.057 153.588 269.056 153.591 269.055C153.597 269.053 153.606 269.05 153.615 269.048C153.636 269.044 153.656 269.044 153.67 269.045C153.695 269.047 153.681 269.052 153.613 269.017C153.542 268.982 153.456 268.927 153.328 268.838C153.22 268.762 153.05 268.639 152.889 268.54L152.365 269.391ZM154.039 269.948L154.499 270.836C154.858 270.65 155.141 270.381 155.321 270.036C155.494 269.705 155.537 269.372 155.539 269.105C155.541 268.843 155.502 268.595 155.473 268.417C155.437 268.206 155.416 268.102 155.407 267.997L154.411 268.089L153.415 268.18C153.434 268.382 153.478 268.614 153.5 268.747C153.528 268.911 153.539 269.014 153.539 269.09C153.538 269.161 153.527 269.152 153.548 269.111C153.576 269.056 153.611 269.044 153.58 269.059L154.039 269.948ZM154.411 268.089L155.407 267.995C155.145 265.215 153.583 263.029 151.934 261.167L151.185 261.829L150.437 262.492C152.019 264.28 153.216 266.061 153.415 268.182L154.411 268.089ZM151.185 261.829L151.934 261.167C147.058 255.659 140.822 251.798 134.527 248.223L134.033 249.092L133.539 249.962C139.82 253.529 145.799 257.254 150.437 262.492L151.185 261.829ZM134.033 249.092L134.526 248.222C133.734 247.773 132.922 247.333 132.137 246.9L131.654 247.776L131.172 248.652C131.975 249.095 132.761 249.52 133.539 249.962L134.033 249.092ZM131.654 247.776L132.634 247.576C132.614 247.478 132.621 247.454 132.618 247.48C132.614 247.514 132.59 247.644 132.468 247.773C132.341 247.908 132.202 247.942 132.153 247.948C132.116 247.953 132.141 247.943 132.259 247.969L132.476 246.993L132.694 246.017C132.262 245.921 131.534 245.851 131.015 246.398C130.521 246.921 130.601 247.614 130.675 247.976L131.654 247.776ZM132.476 246.993L132.143 247.936C138.835 250.305 144.807 253.709 150.066 258.265L150.721 257.509L151.376 256.753C145.916 252.024 139.724 248.498 132.81 246.05L132.476 246.993ZM150.721 257.509L150.066 258.265C154.932 262.48 156.524 266.873 156.184 270.913C155.841 275.004 153.501 278.927 150.123 282.101L150.808 282.83L151.493 283.559C155.102 280.167 157.78 275.815 158.177 271.08C158.579 266.293 156.634 261.308 151.376 256.753L150.721 257.509ZM150.808 282.83L150.122 282.102C150.013 282.205 149.89 282.303 149.725 282.434C149.572 282.556 149.38 282.709 149.195 282.883C148.806 283.25 148.418 283.743 148.234 284.474L149.204 284.719L150.173 284.963C150.237 284.71 150.361 284.532 150.568 284.337C150.681 284.231 150.807 284.129 150.97 284C151.122 283.879 151.313 283.728 151.494 283.558L150.808 282.83ZM149.204 284.719V285.719C149.377 285.719 149.482 285.732 149.745 285.742C149.961 285.75 150.247 285.752 150.548 285.691L150.349 284.711L150.151 283.73C150.086 283.743 149.991 283.749 149.821 283.743C149.698 283.738 149.413 283.719 149.204 283.719V284.719ZM150.349 284.711L150.551 285.69C167.129 282.283 181.148 267.727 182.781 251.803L181.786 251.701L180.792 251.599C179.256 266.567 165.96 280.481 150.148 283.731L150.349 284.711ZM181.786 251.701L182.781 251.803C183.816 241.693 180.026 233.058 172.926 225.724L172.208 226.42L171.489 227.115C178.266 234.115 181.755 242.191 180.791 251.599L181.786 251.701ZM172.208 226.42L172.926 225.724C168.846 221.512 163.967 218.298 158.741 215.588L158.281 216.476L157.821 217.364C162.931 220.014 167.61 223.109 171.49 227.116L172.208 226.42ZM158.281 216.476L158.742 215.588C156.423 214.384 154.044 213.935 151.369 214.894L151.706 215.835L152.043 216.777C154.068 216.051 155.861 216.346 157.82 217.364L158.281 216.476ZM151.706 215.835L151.371 214.893C149.871 215.427 148.352 215.92 146.819 216.415C145.289 216.908 143.744 217.403 142.212 217.933L142.539 218.878L142.866 219.823C144.373 219.302 145.896 218.814 147.433 218.318C148.965 217.824 150.51 217.322 152.041 216.777L151.706 215.835ZM142.539 218.878L142.21 217.934C141.245 218.269 140.511 218.452 139.571 218.213L139.324 219.182L139.078 220.151C140.609 220.54 141.812 220.19 142.867 219.823L142.539 218.878ZM139.324 219.182L140.094 219.82C141.703 217.878 143.807 216.609 146.062 215.143L145.517 214.305L144.972 213.466C142.819 214.866 140.402 216.313 138.554 218.544L139.324 219.182ZM145.517 214.305L146.062 215.143C147.264 214.36 148.812 213.484 149.89 212.104L149.102 211.488L148.314 210.873C147.497 211.919 146.336 212.578 144.971 213.467L145.517 214.305ZM149.102 211.488L149.891 212.103C150.206 211.698 150.47 211.194 150.506 210.609C150.544 209.996 150.324 209.429 149.914 208.948L149.153 209.597L148.392 210.246C148.46 210.325 148.487 210.382 148.498 210.413C148.509 210.442 148.511 210.463 148.51 210.486C148.507 210.536 148.477 210.663 148.313 210.874L149.102 211.488ZM149.153 209.597L149.912 208.946C149.577 208.554 149.153 208.27 148.649 208.142C148.153 208.017 147.655 208.062 147.19 208.2L147.473 209.159L147.756 210.118C147.968 210.055 148.092 210.065 148.159 210.081C148.216 210.096 148.293 210.13 148.394 210.248L149.153 209.597ZM147.473 209.159L147.189 208.2C127.752 213.952 113.052 205.11 98.5979 194.235L97.9967 195.035L97.3955 195.834C111.893 206.74 127.315 216.167 147.756 210.118L147.473 209.159ZM97.9967 195.035L98.5987 194.236C97.0053 193.035 95.6347 191.682 94.0329 190.294L93.378 191.049L92.7231 191.805C94.195 193.081 95.7348 194.582 97.3947 195.833L97.9967 195.035ZM93.378 191.049L93.6393 190.084C93.3205 189.998 93.0377 189.806 92.7032 189.529L92.0662 190.3L91.4293 191.071C91.8098 191.386 92.3664 191.811 93.1167 192.015L93.378 191.049ZM92.0662 190.3L92.9038 189.754C92.7029 189.446 92.4112 189.165 91.9881 188.988L91.6019 189.91L91.2158 190.833C91.2222 190.835 91.2244 190.837 91.2237 190.836C91.2229 190.836 91.2212 190.835 91.2193 190.833C91.2175 190.831 91.2172 190.831 91.2184 190.832C91.2196 190.834 91.2232 190.838 91.2287 190.847L92.0662 190.3ZM91.6019 189.91L90.982 190.695C91.1304 190.812 91.2036 190.885 91.4291 191.071L92.0662 190.3L92.7034 189.529C92.597 189.441 92.3662 189.24 92.2218 189.125L91.6019 189.91ZM64.6408 176.081L63.7283 176.49C69.2703 188.852 76.6444 199.123 86.325 206.746L86.9436 205.96L87.5622 205.174C78.1883 197.794 70.9937 187.807 65.5533 175.672L64.6408 176.081ZM86.9436 205.96L86.3248 206.745C96.0083 214.374 107.959 219.316 122.589 221.09L122.709 220.097L122.83 219.104C108.525 217.37 96.9294 212.553 87.5624 205.174L86.9436 205.96ZM122.709 220.097L122.676 219.098C107.418 219.602 92.8149 214.561 82.1959 206.512C71.5646 198.453 65.0416 187.479 65.6394 176.134L64.6408 176.081L63.6422 176.029C62.9985 188.245 70.0195 199.791 80.9877 208.105C91.9682 216.429 107.02 221.616 122.742 221.097L122.709 220.097ZM129.203 152.005L130.063 151.495C125.252 143.373 119.292 135.805 112.294 129.003L111.597 129.72L110.9 130.437C117.773 137.118 123.623 144.547 128.343 152.515L129.203 152.005ZM111.597 129.72L111.232 128.789C98.1971 133.902 89.1325 145.126 87.6026 158.182L88.5958 158.299L89.589 158.415C91.0256 146.155 99.5533 135.519 111.962 130.651L111.597 129.72ZM88.5958 158.299L87.6026 158.182C86.0722 171.243 92.3366 184.008 103.904 191.572L104.451 190.735L104.998 189.898C94.0202 182.719 88.153 170.67 89.589 158.415L88.5958 158.299ZM104.451 190.735L103.904 191.572C115.462 199.132 130.537 200.344 143.336 194.756L142.936 193.84L142.536 192.923C130.346 198.245 115.984 197.083 104.998 189.898L104.451 190.735ZM142.936 193.84L143.931 193.745C142.782 181.664 140.68 173.717 138.846 168.766C137.929 166.29 137.079 164.564 136.449 163.444C136.134 162.884 135.873 162.477 135.687 162.203C135.594 162.066 135.52 161.963 135.466 161.891C135.439 161.856 135.418 161.827 135.402 161.807C135.394 161.797 135.387 161.788 135.382 161.782C135.379 161.779 135.377 161.776 135.375 161.773C135.374 161.772 135.373 161.771 135.373 161.77C135.372 161.77 135.372 161.769 135.372 161.769C135.371 161.768 135.371 161.768 134.596 162.4C133.821 163.032 133.821 163.032 133.82 163.031C133.82 163.031 133.82 163.03 133.819 163.03C133.819 163.03 133.819 163.029 133.819 163.029C133.818 163.029 133.818 163.029 133.818 163.029C133.819 163.03 133.821 163.032 133.825 163.037C133.832 163.046 133.845 163.063 133.863 163.087C133.899 163.135 133.957 163.215 134.034 163.328C134.188 163.554 134.418 163.914 134.706 164.426C135.282 165.448 136.089 167.079 136.971 169.461C138.736 174.225 140.804 181.998 141.94 193.935L142.936 193.84ZM134.596 162.4L133.601 162.303C133.096 167.48 128.338 171.657 122.397 171.657V172.657V173.657C129.241 173.657 134.975 168.82 135.591 162.497L134.596 162.4ZM122.397 172.657V171.657C116.107 171.657 111.15 166.981 111.15 161.379H110.15H109.15C109.15 168.237 115.161 173.657 122.397 173.657V172.657ZM110.15 161.379H111.15C111.15 160.07 111.42 158.818 111.91 157.666L110.989 157.275L110.069 156.884C109.478 158.275 109.15 159.792 109.15 161.379H110.15ZM110.989 157.275L110.044 157.601C111.108 160.687 114.206 162.851 117.787 162.851V161.851V160.851C114.996 160.851 112.7 159.17 111.935 156.949L110.989 157.275ZM117.787 161.851V162.851C122.2 162.851 125.919 159.539 125.919 155.284H124.919H123.919C123.919 158.282 121.254 160.851 117.787 160.851V161.851ZM124.919 155.284H125.919C125.919 152.827 124.664 150.664 122.759 149.294L122.175 150.106L121.591 150.917C123.029 151.952 123.919 153.536 123.919 155.284H124.919ZM122.175 150.106V151.106C122.221 151.106 122.267 151.105 122.303 151.104C122.341 151.104 122.37 151.103 122.397 151.103V150.103V149.103C122.351 149.103 122.305 149.104 122.269 149.105C122.23 149.105 122.202 149.106 122.175 149.106V150.106ZM122.397 150.103V151.103C124.73 151.103 126.89 151.753 128.678 152.856L129.203 152.005L129.728 151.154C127.626 149.857 125.103 149.103 122.397 149.103V150.103ZM94.5689 164.217L93.6386 164.584C100.186 181.186 116.909 192.469 135.964 193.27L136.006 192.271L136.048 191.271C117.707 190.5 101.729 179.648 95.4992 163.85L94.5689 164.217ZM136.006 192.271L135.82 191.288C126.469 193.055 116.749 191.088 109.076 185.893L108.515 186.721L107.955 187.549C116.077 193.048 126.336 195.115 136.192 193.253L136.006 192.271ZM108.515 186.721L109.076 185.893C101.406 180.701 96.5114 172.78 95.563 164.108L94.5689 164.217L93.5748 164.326C94.591 173.616 99.8289 182.049 107.955 187.549L108.515 186.721ZM50.722 1.91494L49.7557 1.65759C46.9033 12.3679 44.5798 23.2251 44.3268 34.4061L45.3266 34.4287L46.3263 34.4513C46.5739 23.5082 48.8495 12.8318 51.6883 2.17229L50.722 1.91494ZM45.3266 34.4287L44.3268 34.406C44.0915 44.7902 45.135 55.0985 50.2911 64.7114L51.1723 64.2387L52.0536 63.7661C47.1338 54.5939 46.0943 44.688 46.3263 34.4514L45.3266 34.4287ZM51.1723 64.2387L50.2913 64.7117C51.478 66.9222 52.9975 69.0423 54.4116 71.2756L55.2565 70.7406L56.1014 70.2056C54.5992 67.8333 53.1973 65.8965 52.0534 63.7657L51.1723 64.2387ZM55.2565 70.7406L55.3387 69.744C52.8499 69.5387 50.9025 68.4132 48.8479 67.1684L48.3297 68.0237L47.8115 68.879C49.8496 70.1137 52.1633 71.4889 55.1743 71.7372L55.2565 70.7406ZM48.3297 68.0237L48.8481 67.1686C35.6397 59.1614 21.6782 59.5748 7.57382 63.7546L7.85795 64.7134L8.14209 65.6722C21.9304 61.5861 35.254 61.2664 47.8113 68.8788L48.3297 68.0237ZM7.85795 64.7134L7.57381 63.7546C6.24038 64.1498 4.98167 64.7078 3.70152 65.3233C2.39923 65.9494 1.1129 66.6151 -0.393594 67.2976L0.019043 68.2085L0.431679 69.1194C1.95936 68.4273 3.33715 67.7176 4.5681 67.1258C5.8212 66.5234 6.96485 66.0211 8.1421 65.6722L7.85795 64.7134ZM0.019043 68.2085L0.855863 68.7559C7.42321 58.7178 16.4019 53.9336 28.1354 53.728L28.1179 52.7281L28.1004 51.7283C15.7179 51.9453 6.11949 57.0574 -0.817777 67.661L0.019043 68.2085ZM28.1179 52.7281L28.1351 53.728C29.8558 53.6983 31.2644 53.3457 32.3925 52.5411C33.5217 51.7358 34.2481 50.5644 34.7728 49.1382L33.8342 48.7929L32.8957 48.4477C32.4521 49.6538 31.9189 50.4224 31.2312 50.9128C30.5426 51.404 29.5771 51.7028 28.1007 51.7283L28.1179 52.7281ZM33.8342 48.7929L34.7729 49.1379C35.9746 45.8679 36.0995 42.4582 36.422 39.3318L35.4273 39.2292L34.4326 39.1266C34.0912 42.4358 33.9854 45.4826 32.8956 48.448L33.8342 48.7929ZM35.4273 39.2292L36.422 39.3315C37.8696 25.2579 41.5096 12.014 50.7527 0.630339L49.9764 0L49.2001 -0.630339C39.6183 11.1705 35.9014 24.8462 34.4325 39.1269L35.4273 39.2292ZM49.9764 0L49.8437 0.991155C50.1359 1.03028 50.1516 1.08733 50.0868 1.03055C50.0463 0.995028 50.0056 0.941595 49.979 0.877113C49.9546 0.817958 49.9532 0.776742 49.9531 0.773165C49.9531 0.772191 49.9533 0.794092 49.9431 0.850285C49.9328 0.906459 49.9164 0.974327 49.8915 1.06798C49.851 1.22031 49.7635 1.51558 49.7294 1.7933L50.722 1.91494L51.7146 2.03657C51.7269 1.9358 51.759 1.82784 51.8244 1.58189C51.8753 1.39026 51.9605 1.06585 51.9525 0.726351C51.9434 0.337321 51.8113 -0.117571 51.4049 -0.473673C51.0436 -0.790262 50.5753 -0.928734 50.1091 -0.991155L49.9764 0Z" fill="#040828" mask="url(#path-1-inside-1_35_50)"/>
</svg>
