<svg width="251" height="330" viewBox="0 0 251 330" fill="none" xmlns="http://www.w3.org/2000/svg">
<path d="M92.0662 190.3C92.4042 190.822 92.3506 191.622 92.8124 192.154C98.1546 199.426 105.38 204.891 112.631 210.401C105.282 208.21 99.0693 204.287 93.7465 199.221C81.5201 187.576 76.5153 173.132 76.0424 157.019C77.4615 160.459 81.4048 167.836 80.8447 166.256C78.9222 159.095 77.0954 151.899 78.517 144.451C80.6561 133.23 87.6842 125.112 97.4226 118.758C98.2249 118.236 99.3987 118.046 99.8069 116.804C94.1632 116.767 89.2687 118.898 83.9069 121.079C86.1583 116.822 89.0747 113.535 91.4615 109.875C79.4792 111.006 62.2595 134.623 59.7995 153.329C58.7806 152.329 58.9044 151.172 58.7946 150.114C57.4322 136.923 62.3718 125.645 70.8666 115.477C74.9508 110.587 79.6171 106.219 84.9509 102.526C86.4878 101.46 86.7892 100.849 85.2523 99.4611C81.3962 95.977 78.2437 91.9207 75.201 87.8007C74.675 87.0517 74.7623 86.603 75.8428 86.6376C85.6689 95.3386 96.6122 102.756 107.119 110.679C126.943 125.626 141.818 143.778 147.754 167.883C149.229 165.894 148.841 163.943 148.959 162.126C149.088 160.174 148.99 158.211 148.99 156.151C149.806 156.563 149.88 157.412 150.155 158.14C154.557 169.756 156.139 181.754 155.692 194.03C155.655 195.011 155.596 195.997 155.686 196.971C156.139 202.046 159.227 204.327 164.583 203.552C165.906 203.359 167.209 203.056 168.752 202.758C167.516 204.607 165.762 205.496 163.581 206.751C169.12 207.806 172.861 205.58 176.402 202.789C177.531 202.768 177.488 203.328 177.116 204.053C176.081 206.311 174.257 208.03 172.002 210.093C175.11 210.14 177.131 209.191 178.969 207.75C182.363 205.092 186.121 203.755 190.936 205.19C189.169 202.575 186.636 201.578 183.88 200.547C186.557 197.266 190.284 196.116 194.306 194.855C191.359 193.9 188.758 194.468 185.89 194.494C188.595 187.813 192.656 182.19 197.143 176.801C197.672 176.503 197.683 175.923 197.526 175.577C197.334 175.155 196.878 175.601 196.538 175.657C191.376 178.689 186.703 182.237 183.072 186.945C184.66 179.555 187.157 172.565 192.662 165.932C189.386 167.279 187.739 169.252 185.901 171.001C184.772 171.035 184.925 170.397 185.141 169.727C187.953 161.796 188.111 154.722 185.473 150.161C184.7 154.511 184.21 158.794 181.077 163.133C179.785 151.699 177.035 141.336 170.896 132.031C172.36 139.951 172.636 147.761 170.474 156.341C165.309 116.202 143.11 87.98 106.125 69.4773C105.729 69.3136 105.281 69.4638 104.898 69.3451C103.908 69.0447 103.075 68.4433 102.14 68.0262C103.249 68.6992 104.578 69.1028 105.296 70.2579C113.413 75.7468 120.973 81.8161 127.545 88.9214C127.506 89.9053 127.05 90.1191 126.177 89.5808C110.165 81.2012 94.1467 72.7871 80.2254 61.4587C69.9124 53.0686 61.1363 43.5231 57.0777 30.8916C55.5604 26.1598 54.8373 21.3436 54.6427 16.0947C56.1375 17.6034 56.146 19.3496 56.7538 20.8319C58.2992 24.6116 60.0051 28.2936 62.9094 31.3533C66.6531 35.2912 71.0271 37.0056 76.8929 35.9559C141.506 24.3874 204.939 53.4852 234.98 108.337C267.813 168.295 247.629 243.562 188.406 282.028C163.857 297.973 136.676 306.228 106.795 306.671C103.342 306.721 99.8771 306.555 96.4403 307.098C92.8826 307.658 90.0119 309.14 87.7489 311.87C82.3334 318.395 76.4085 324.48 69.3553 329.518C68.4542 330.083 68.0686 329.803 68.0997 328.843C76.9661 317.686 83.6843 305.603 86.1644 291.732C86.5781 289.426 86.5555 287.053 86.7776 284.144C90.5128 288.955 92.3114 294.132 94.1467 299.835C96.2126 294.821 96.9442 290.12 97.6733 284.729C101.802 290.943 106.252 295.957 111.665 300.446C108.245 290.706 104.735 280.976 108.116 270.077C110.162 274.574 112.433 278.451 116.41 282.139C115.189 273.517 113.978 265.517 117.19 257.121C119.34 260.337 120.9 263.423 124.252 265.562C123.523 262.375 122.78 259.532 122.442 256.612C122.172 254.27 122.6 253.592 125.192 254.687C133.146 258.05 140.579 262.241 147.878 266.672C149.373 267.579 150.873 268.479 152.365 269.391C152.883 269.71 153.415 270.27 154.039 269.948C154.819 269.545 154.467 268.703 154.411 268.089C154.18 265.638 152.801 263.655 151.185 261.829C146.429 256.457 140.321 252.664 134.033 249.092C133.247 248.646 132.448 248.214 131.654 247.776C131.525 247.143 131.742 246.829 132.476 246.993C139.279 249.401 145.362 252.867 150.721 257.509C160.845 266.279 157.794 276.265 150.808 282.83C150.229 283.376 149.451 283.735 149.204 284.719C149.587 284.719 149.983 284.785 150.349 284.71C166.545 281.382 180.202 267.147 181.786 251.701C182.786 241.942 179.146 233.586 172.208 226.42C168.228 222.31 163.449 219.156 158.281 216.476C156.142 215.365 154.056 214.993 151.706 215.835C148.675 216.914 145.579 217.826 142.539 218.878C141.528 219.229 140.56 219.496 139.324 219.182C141.053 217.095 143.313 215.737 145.517 214.305C146.8 213.469 148.154 212.702 149.102 211.488C149.581 210.873 149.688 210.224 149.153 209.597C148.717 209.088 148.151 208.959 147.473 209.159C127.534 215.059 112.473 205.925 97.9967 195.035C96.37 193.808 94.9149 192.381 93.378 191.049C92.8435 190.905 92.4238 190.596 92.0662 190.3C91.9594 190.136 91.816 190 91.6019 189.91C91.7483 190.026 91.9003 190.163 92.0662 190.3ZM64.6408 176.081C70.132 188.33 77.4163 198.458 86.9436 205.96C96.4688 213.464 108.242 218.343 122.709 220.097C91.7288 221.121 63.3993 199.643 64.6408 176.081ZM129.203 152.005C124.438 143.96 118.532 136.461 111.597 129.72C98.8752 134.71 90.0791 145.64 88.5958 158.299C87.1126 170.956 93.1784 183.363 104.451 190.735C115.723 198.107 130.441 199.295 142.936 193.84C140.65 169.822 134.596 162.4 134.596 162.4C134.036 168.15 128.789 172.657 122.397 172.657C115.634 172.657 110.15 167.609 110.15 161.379C110.15 159.931 110.449 158.546 110.989 157.275C111.904 159.928 114.601 161.851 117.787 161.851C121.727 161.851 124.919 158.91 124.919 155.284C124.919 153.182 123.847 151.308 122.175 150.106C122.248 150.106 122.324 150.103 122.397 150.103C124.916 150.103 127.258 150.805 129.203 152.005ZM94.5689 164.217C100.958 180.417 117.308 191.484 136.006 192.271C126.402 194.085 116.413 192.068 108.515 186.721C100.617 181.375 95.5512 173.198 94.5689 164.217ZM50.722 1.91494C47.8764 12.5998 45.5768 23.3666 45.3266 34.4287C45.0929 44.7391 46.1344 54.8462 51.1723 64.2387C52.3376 66.4094 53.7983 68.4378 55.2565 70.7406C52.5066 70.5138 50.376 69.2635 48.3297 68.0237C35.4468 60.2139 21.8043 60.5805 7.85796 64.7134C5.34728 65.4575 3.05322 66.834 0.019043 68.2085C6.77135 57.8876 16.0599 52.9394 28.1179 52.7281C31.315 52.673 32.866 51.4252 33.8342 48.7929C34.98 45.6753 35.0953 42.447 35.4273 39.2292C36.8855 25.0521 40.564 11.5922 49.9764 0C51.4932 0.203095 50.8148 1.15795 50.722 1.91494Z" fill="#040828"/>
</svg>
