<svg width="304" height="331" viewBox="0 0 304 331" fill="none" xmlns="http://www.w3.org/2000/svg">
<mask id="path-1-inside-1_35_52" fill="white">
<path d="M172.798 1.26129C165.105 5.23893 156.45 24.0781 147.883 55.6806C146.309 61.363 144.036 70.3236 142.812 75.5688C140.058 87.5891 135.469 110.187 135.775 110.493C135.906 110.624 136.43 110.712 136.911 110.712C137.742 110.712 138.004 109.925 139.709 101.402C146.397 68.75 154.133 42.6987 161.87 27.0067C171.618 7.2496 179.399 7.86155 184.119 28.7551C186.043 37.366 187.879 53.2766 187.879 61.8438V65.6903L186.13 65.9525C183.464 66.3896 180.011 68.6626 178.393 71.0666C173.803 77.9292 177.082 86.8024 185.168 89.119C188.971 90.2555 193.255 89.1627 196.315 86.2778C200.03 82.8684 200.992 76.749 198.588 72.2468C197.058 69.4931 194.304 67.1764 191.55 66.4771L189.671 65.9525V56.3363C189.671 31.7711 184.688 7.94897 178.306 2.17921C176.339 0.387083 174.896 0.168531 172.798 1.26129Z"/>
<path d="M14.7814 98.5167C-4.27669 99.6094 -4.67009 109.007 13.6449 127.671C20.2453 134.447 37.555 149.264 38.1233 148.696C38.2107 148.609 38.5604 147.822 38.9101 146.991L39.522 145.505L34.7138 141.309C28.4631 135.933 21.819 129.289 18.1472 124.699C13.1641 118.492 11.1534 113.64 11.8965 109.707C12.2462 107.827 14.9126 105.029 17.5352 103.806C23.6985 100.921 36.3748 100.79 51.5426 103.5C53.5534 103.849 56.0012 104.243 56.9628 104.374C60.7657 104.811 53.4222 102.8 46.035 101.314C34.2767 98.9975 23.6111 98.0358 14.7814 98.5167Z"/>
<path d="M259.565 107.04C258.953 107.128 256.506 107.521 254.145 107.914C202.26 116.132 84.8512 175.228 29.6438 220.862C22.8686 226.413 12.1593 237.122 9.40552 241.056C4.99067 247.35 3.98531 251.721 6.34572 254.562C8.40016 257.01 10.7606 257.71 17.2298 257.928C23.6554 258.147 28.9882 257.491 37.9053 255.349C40.8777 254.65 43.4129 254.082 43.6315 254.082C43.8063 254.082 44.5494 255.043 45.2488 256.18C50.2756 264.266 61.6842 263.742 65.9242 255.262C69.8582 247.35 64.3069 238.346 55.4772 238.346C48.702 238.346 43.6752 243.329 43.6315 250.017C43.6315 252.596 43.5878 252.727 42.4513 252.945C35.2389 254.431 25.6224 254.694 21.8195 253.513C17.2736 252.115 14.9131 249.361 15.394 245.908C17.7981 228.161 75.6718 186.243 145.916 151.406C196.009 126.535 238.977 111.892 258.429 113.029C265.597 113.466 268.526 115.607 268.176 120.153C267.608 127.846 254.451 141.965 232.858 158.006C226.826 162.552 225.077 164.388 230.279 160.804C242.736 152.193 256.2 141.309 264.505 133.135C270.887 126.841 273.771 123.213 276.044 118.711C277.4 115.957 277.574 115.258 277.4 113.16C277.181 110.318 276.35 109.226 273.553 107.958C271.979 107.215 270.537 107.04 266.122 106.953C263.106 106.909 260.177 106.953 259.565 107.04Z"/>
<path d="M83.9332 111.236C84.2829 112.111 120.52 158.094 121.044 158.269C121.263 158.356 123.055 157.526 125.022 156.477C137.13 149.92 160.953 138.468 175.421 132.348C179.268 130.687 182.502 129.289 182.59 129.245C182.852 129.026 179.574 125.136 178.524 124.481C178 124.131 159.466 121.333 132.365 117.531C107.494 114.034 86.3373 111.018 85.4194 110.843C84.0206 110.624 83.7584 110.668 83.9332 111.236Z"/>
<path d="M78.1194 119.541C75.147 124.699 74.0542 126.404 73.5297 126.622C73.2674 126.71 70.1202 126.666 66.5359 126.448C62.8641 126.273 59.7169 126.273 59.3235 126.491C58.3619 126.972 45.6856 149.046 45.467 150.532C45.3359 151.45 45.5982 151.843 46.9532 152.63C47.8274 153.155 48.7891 153.504 49.0951 153.373C49.401 153.286 52.6357 149.614 56.3074 145.243C59.9792 140.916 63.5635 137.025 64.2192 136.676C65.0497 136.282 66.8418 136.064 69.7705 136.064C74.0542 136.064 74.0542 136.064 75.4093 137.463C77.42 139.648 79.1684 142.183 78.9062 142.489C78.7313 142.62 77.0703 142.708 75.1907 142.664C72.3932 142.577 71.6501 142.708 71.0818 143.363C69.7268 144.85 57.5751 166.399 57.7062 167.054C57.8373 167.797 60.5037 169.721 61.3342 169.721C61.5965 169.721 64.6563 166.355 68.1095 162.246C77.2014 151.406 76.1086 152.237 81.0917 152.237C86.1622 152.237 87.6484 152.849 90.0088 155.865C90.9268 157.045 91.7136 158.181 91.7136 158.4C91.7136 158.618 89.9651 158.793 87.8233 158.793C85.2443 158.793 83.8018 158.968 83.4959 159.318C82.4031 160.716 69.8579 182.921 69.8579 183.489C69.8579 184.145 72.8303 185.894 73.9231 185.894C74.2728 185.894 74.8847 185.413 75.2344 184.845C75.6278 184.276 78.9062 180.342 82.5779 176.059L89.1783 168.278L94.2925 168.497C97.1338 168.628 99.7565 168.934 100.237 169.24C100.98 169.721 101.986 169.284 108.105 165.831C111.952 163.645 115.099 161.678 115.099 161.416C115.099 161.022 80.3924 116.394 80.0864 116.394C79.9989 116.394 79.1247 117.837 78.1194 119.541Z"/>
<path d="M177.388 140.041C165.936 145.287 127.732 164.388 127.076 165.175C126.727 165.612 128.388 168.016 134.201 175.447C138.354 180.779 142.244 185.5 142.856 185.937C143.73 186.549 153.784 188.123 189.19 193.106C214.062 196.646 235.305 199.619 236.398 199.793L238.322 200.012L235.48 196.559C233.907 194.679 222.542 180.168 210.215 164.344C197.845 148.565 187.529 135.627 187.267 135.67C187.004 135.67 182.546 137.637 177.388 140.041Z"/>
<path d="M109.854 174.485C103.822 177.807 96.8716 181.741 94.38 183.183L89.8778 185.806L85.9875 192.537C83.8456 196.209 82.0972 199.444 82.0972 199.75C82.0972 200.405 84.8073 202.066 85.9437 202.066C86.5557 202.066 88.4353 200.143 92.0196 195.859C99.4505 186.943 100.762 185.631 103.079 185.019C105.614 184.32 109.81 184.67 112.345 185.806C114.181 186.593 117.066 189.827 117.066 191.095C117.066 191.357 115.58 191.401 113.001 191.27C109.81 191.095 108.848 191.139 108.455 191.663C108.149 191.969 104.871 197.564 101.112 204.033L94.2926 215.835L95.4291 216.797C96.9153 218.108 98.5326 218.501 99.4505 217.758C99.8439 217.409 103.079 213.65 106.663 209.41C110.204 205.126 113.526 201.454 114.006 201.192C114.575 200.886 116.629 200.842 120.039 201.017C125.721 201.367 124.934 200.974 128.606 205.345C129.961 207.006 129.786 207.18 134.988 198.613C138.397 192.887 138.966 191.751 138.528 191.051C138.004 190.221 120.956 168.409 120.825 168.409C120.782 168.409 115.842 171.119 109.854 174.485Z"/>
<path d="M136.081 199.706C133.677 203.727 131.666 207.137 131.579 207.312C131.36 207.836 134.026 208.623 136.037 208.623C137.043 208.623 138.135 208.885 138.529 209.191C139.403 209.847 144.605 217.933 144.605 218.633C144.605 218.895 142.9 223.834 140.845 229.604C138.791 235.374 137.174 240.4 137.348 240.75C137.742 241.799 140.583 242.979 141.414 242.455C142.157 241.974 154.483 220.993 155.183 218.982C155.576 217.89 155.401 217.409 153.565 214.655C152.429 212.95 151.686 211.42 151.904 211.202C152.473 210.634 158.723 211.639 159.51 212.469C160.953 213.999 164.712 220.425 164.712 221.343C164.712 221.867 163.138 226.632 161.215 231.964C159.292 237.297 157.718 242.149 157.718 242.804C157.718 243.679 158.068 244.203 159.029 244.684C161.521 245.995 161.783 245.777 165.411 239.308C167.291 236.029 169.87 231.615 171.137 229.473C175.989 221.474 176.12 220.774 173.76 217.146C172.842 215.835 172.143 214.524 172.143 214.262C172.143 213.912 172.929 213.825 174.765 214.043C179.268 214.568 179.748 214.874 182.415 219.07C183.726 221.212 184.819 223.441 184.819 224.053C184.819 224.665 183.245 229.56 181.322 234.893C179.399 240.226 177.825 244.99 177.825 245.514C177.825 246.214 178.306 246.695 179.355 247.219C181.453 248.225 181.978 248.181 182.852 246.782C184.207 244.728 195.572 225.058 195.878 224.184C196.096 223.616 195.659 222.523 194.435 220.6C192.643 217.758 192.206 216.229 193.255 216.622C193.605 216.753 195.004 216.972 196.446 217.146C197.845 217.321 199.331 217.627 199.725 217.846C200.424 218.196 203.921 223.484 204.926 225.714C205.363 226.675 205.145 227.55 203.265 232.489C200.817 238.871 198.369 246.52 198.369 247.875C198.369 248.924 201.123 251.241 201.997 250.891C202.303 250.76 203.833 248.443 205.363 245.733C206.893 242.979 209.778 238.04 211.745 234.718C216.51 226.85 216.728 225.626 214.062 221.998C213.362 221.08 212.925 220.119 213.056 219.9C213.45 219.332 217.471 219.9 219.657 220.862C221.099 221.518 221.711 222.129 222.673 224.009C223.329 225.277 224.203 226.806 224.64 227.375C225.121 227.943 225.47 228.773 225.47 229.211C225.47 229.604 223.809 234.631 221.755 240.313C219.701 245.995 218.04 250.803 218.04 251.022C218.04 251.459 220.487 252.989 221.842 253.382C222.629 253.645 222.935 253.426 223.547 252.246C223.941 251.459 227 246.083 230.322 240.269C233.644 234.499 236.398 229.385 236.398 228.905C236.398 228.467 234.825 225.626 232.901 222.61C230.978 219.594 229.404 216.709 229.404 216.185C229.404 215.617 230.585 213.213 232.027 210.765C233.47 208.361 234.65 206.175 234.65 206C234.65 205.782 233.994 205.52 233.251 205.388C229.317 204.733 141.588 192.45 141.064 192.45C140.714 192.45 138.485 195.728 136.081 199.706Z"/>
<path d="M251.74 201.061C248.987 202.066 245.883 205.301 244.921 208.142C242.211 216.403 248.506 224.49 257.117 223.834C260.133 223.572 262.187 222.698 264.154 220.818L265.466 219.594L270.274 223.747C279.41 231.702 285.529 238.171 289.726 244.422C295.058 252.333 294.359 257.71 287.758 260.07C284.655 261.163 275.213 261.075 267.87 259.852C260.876 258.671 249.249 255.699 239.414 252.596C235.174 251.241 231.546 250.148 231.284 250.148C230.672 250.148 229.71 252.377 230.147 252.77C230.322 252.945 233.644 254.169 237.491 255.524C278.623 269.774 302.183 271.741 303.582 261.032C303.844 259.108 302.533 255 300.741 252.115C296.02 244.597 284.742 233.319 271.061 222.479L266.209 218.589L267.039 216.797C268.176 214.262 268.132 209.891 266.952 207.312C265.859 204.864 263.848 202.722 261.532 201.542C259.171 200.318 254.363 200.056 251.74 201.061Z"/>
<path d="M122.137 217.89C121.087 231.003 120.781 240.663 120.781 262.824C120.781 283.324 120.913 288.831 121.568 295.169C123.71 316.063 127.163 327.515 132.146 329.875C134.07 330.793 137.61 330.487 140.801 329.176C146.309 326.816 151.292 318.161 156.1 302.338C158.242 295.388 161.652 282.187 161.652 280.876C161.652 279.128 160.777 281.313 159.247 286.864C154.439 304.523 149.369 314.839 144.298 317.243C142.287 318.205 137.435 318.773 135.556 318.248C133.764 317.768 131.316 315.014 129.917 311.867C127.382 306.272 125.021 293.683 124.06 280.745C122.967 265.709 123.098 239.788 124.366 219.201L124.628 214.742H123.492C122.443 214.742 122.355 214.874 122.137 217.89Z"/>
</mask>
<path d="M172.798 1.26129C165.105 5.23893 156.45 24.0781 147.883 55.6806C146.309 61.363 144.036 70.3236 142.812 75.5688C140.058 87.5891 135.469 110.187 135.775 110.493C135.906 110.624 136.43 110.712 136.911 110.712C137.742 110.712 138.004 109.925 139.709 101.402C146.397 68.75 154.133 42.6987 161.87 27.0067C171.618 7.2496 179.399 7.86155 184.119 28.7551C186.043 37.366 187.879 53.2766 187.879 61.8438V65.6903L186.13 65.9525C183.464 66.3896 180.011 68.6626 178.393 71.0666C173.803 77.9292 177.082 86.8024 185.168 89.119C188.971 90.2555 193.255 89.1627 196.315 86.2778C200.03 82.8684 200.992 76.749 198.588 72.2468C197.058 69.4931 194.304 67.1764 191.55 66.4771L189.671 65.9525V56.3363C189.671 31.7711 184.688 7.94897 178.306 2.17921C176.339 0.387083 174.896 0.168531 172.798 1.26129Z" fill="#F0F2FF"/>
<path d="M14.7814 98.5167C-4.27669 99.6094 -4.67009 109.007 13.6449 127.671C20.2453 134.447 37.555 149.264 38.1233 148.696C38.2107 148.609 38.5604 147.822 38.9101 146.991L39.522 145.505L34.7138 141.309C28.4631 135.933 21.819 129.289 18.1472 124.699C13.1641 118.492 11.1534 113.64 11.8965 109.707C12.2462 107.827 14.9126 105.029 17.5352 103.806C23.6985 100.921 36.3748 100.79 51.5426 103.5C53.5534 103.849 56.0012 104.243 56.9628 104.374C60.7657 104.811 53.4222 102.8 46.035 101.314C34.2767 98.9975 23.6111 98.0358 14.7814 98.5167Z" fill="#F0F2FF"/>
<path d="M259.565 107.04C258.953 107.128 256.506 107.521 254.145 107.914C202.26 116.132 84.8512 175.228 29.6438 220.862C22.8686 226.413 12.1593 237.122 9.40552 241.056C4.99067 247.35 3.98531 251.721 6.34572 254.562C8.40016 257.01 10.7606 257.71 17.2298 257.928C23.6554 258.147 28.9882 257.491 37.9053 255.349C40.8777 254.65 43.4129 254.082 43.6315 254.082C43.8063 254.082 44.5494 255.043 45.2488 256.18C50.2756 264.266 61.6842 263.742 65.9242 255.262C69.8582 247.35 64.3069 238.346 55.4772 238.346C48.702 238.346 43.6752 243.329 43.6315 250.017C43.6315 252.596 43.5878 252.727 42.4513 252.945C35.2389 254.431 25.6224 254.694 21.8195 253.513C17.2736 252.115 14.9131 249.361 15.394 245.908C17.7981 228.161 75.6718 186.243 145.916 151.406C196.009 126.535 238.977 111.892 258.429 113.029C265.597 113.466 268.526 115.607 268.176 120.153C267.608 127.846 254.451 141.965 232.858 158.006C226.826 162.552 225.077 164.388 230.279 160.804C242.736 152.193 256.2 141.309 264.505 133.135C270.887 126.841 273.771 123.213 276.044 118.711C277.4 115.957 277.574 115.258 277.4 113.16C277.181 110.318 276.35 109.226 273.553 107.958C271.979 107.215 270.537 107.04 266.122 106.953C263.106 106.909 260.177 106.953 259.565 107.04Z" fill="#F0F2FF"/>
<path d="M83.9332 111.236C84.2829 112.111 120.52 158.094 121.044 158.269C121.263 158.356 123.055 157.526 125.022 156.477C137.13 149.92 160.953 138.468 175.421 132.348C179.268 130.687 182.502 129.289 182.59 129.245C182.852 129.026 179.574 125.136 178.524 124.481C178 124.131 159.466 121.333 132.365 117.531C107.494 114.034 86.3373 111.018 85.4194 110.843C84.0206 110.624 83.7584 110.668 83.9332 111.236Z" fill="#F0F2FF"/>
<path d="M78.1194 119.541C75.147 124.699 74.0542 126.404 73.5297 126.622C73.2674 126.71 70.1202 126.666 66.5359 126.448C62.8641 126.273 59.7169 126.273 59.3235 126.491C58.3619 126.972 45.6856 149.046 45.467 150.532C45.3359 151.45 45.5982 151.843 46.9532 152.63C47.8274 153.155 48.7891 153.504 49.0951 153.373C49.401 153.286 52.6357 149.614 56.3074 145.243C59.9792 140.916 63.5635 137.025 64.2192 136.676C65.0497 136.282 66.8418 136.064 69.7705 136.064C74.0542 136.064 74.0542 136.064 75.4093 137.463C77.42 139.648 79.1684 142.183 78.9062 142.489C78.7313 142.62 77.0703 142.708 75.1907 142.664C72.3932 142.577 71.6501 142.708 71.0818 143.363C69.7268 144.85 57.5751 166.399 57.7062 167.054C57.8373 167.797 60.5037 169.721 61.3342 169.721C61.5965 169.721 64.6563 166.355 68.1095 162.246C77.2014 151.406 76.1086 152.237 81.0917 152.237C86.1622 152.237 87.6484 152.849 90.0088 155.865C90.9268 157.045 91.7136 158.181 91.7136 158.4C91.7136 158.618 89.9651 158.793 87.8233 158.793C85.2443 158.793 83.8018 158.968 83.4959 159.318C82.4031 160.716 69.8579 182.921 69.8579 183.489C69.8579 184.145 72.8303 185.894 73.9231 185.894C74.2728 185.894 74.8847 185.413 75.2344 184.845C75.6278 184.276 78.9062 180.342 82.5779 176.059L89.1783 168.278L94.2925 168.497C97.1338 168.628 99.7565 168.934 100.237 169.24C100.98 169.721 101.986 169.284 108.105 165.831C111.952 163.645 115.099 161.678 115.099 161.416C115.099 161.022 80.3924 116.394 80.0864 116.394C79.9989 116.394 79.1247 117.837 78.1194 119.541Z" fill="#F0F2FF"/>
<path d="M177.388 140.041C165.936 145.287 127.732 164.388 127.076 165.175C126.727 165.612 128.388 168.016 134.201 175.447C138.354 180.779 142.244 185.5 142.856 185.937C143.73 186.549 153.784 188.123 189.19 193.106C214.062 196.646 235.305 199.619 236.398 199.793L238.322 200.012L235.48 196.559C233.907 194.679 222.542 180.168 210.215 164.344C197.845 148.565 187.529 135.627 187.267 135.67C187.004 135.67 182.546 137.637 177.388 140.041Z" fill="#F0F2FF"/>
<path d="M109.854 174.485C103.822 177.807 96.8716 181.741 94.38 183.183L89.8778 185.806L85.9875 192.537C83.8456 196.209 82.0972 199.444 82.0972 199.75C82.0972 200.405 84.8073 202.066 85.9437 202.066C86.5557 202.066 88.4353 200.143 92.0196 195.859C99.4505 186.943 100.762 185.631 103.079 185.019C105.614 184.32 109.81 184.67 112.345 185.806C114.181 186.593 117.066 189.827 117.066 191.095C117.066 191.357 115.58 191.401 113.001 191.27C109.81 191.095 108.848 191.139 108.455 191.663C108.149 191.969 104.871 197.564 101.112 204.033L94.2926 215.835L95.4291 216.797C96.9153 218.108 98.5326 218.501 99.4505 217.758C99.8439 217.409 103.079 213.65 106.663 209.41C110.204 205.126 113.526 201.454 114.006 201.192C114.575 200.886 116.629 200.842 120.039 201.017C125.721 201.367 124.934 200.974 128.606 205.345C129.961 207.006 129.786 207.18 134.988 198.613C138.397 192.887 138.966 191.751 138.528 191.051C138.004 190.221 120.956 168.409 120.825 168.409C120.782 168.409 115.842 171.119 109.854 174.485Z" fill="#F0F2FF"/>
<path d="M136.081 199.706C133.677 203.727 131.666 207.137 131.579 207.312C131.36 207.836 134.026 208.623 136.037 208.623C137.043 208.623 138.135 208.885 138.529 209.191C139.403 209.847 144.605 217.933 144.605 218.633C144.605 218.895 142.9 223.834 140.845 229.604C138.791 235.374 137.174 240.4 137.348 240.75C137.742 241.799 140.583 242.979 141.414 242.455C142.157 241.974 154.483 220.993 155.183 218.982C155.576 217.89 155.401 217.409 153.565 214.655C152.429 212.95 151.686 211.42 151.904 211.202C152.473 210.634 158.723 211.639 159.51 212.469C160.953 213.999 164.712 220.425 164.712 221.343C164.712 221.867 163.138 226.632 161.215 231.964C159.292 237.297 157.718 242.149 157.718 242.804C157.718 243.679 158.068 244.203 159.029 244.684C161.521 245.995 161.783 245.777 165.411 239.308C167.291 236.029 169.87 231.615 171.137 229.473C175.989 221.474 176.12 220.774 173.76 217.146C172.842 215.835 172.143 214.524 172.143 214.262C172.143 213.912 172.929 213.825 174.765 214.043C179.268 214.568 179.748 214.874 182.415 219.07C183.726 221.212 184.819 223.441 184.819 224.053C184.819 224.665 183.245 229.56 181.322 234.893C179.399 240.226 177.825 244.99 177.825 245.514C177.825 246.214 178.306 246.695 179.355 247.219C181.453 248.225 181.978 248.181 182.852 246.782C184.207 244.728 195.572 225.058 195.878 224.184C196.096 223.616 195.659 222.523 194.435 220.6C192.643 217.758 192.206 216.229 193.255 216.622C193.605 216.753 195.004 216.972 196.446 217.146C197.845 217.321 199.331 217.627 199.725 217.846C200.424 218.196 203.921 223.484 204.926 225.714C205.363 226.675 205.145 227.55 203.265 232.489C200.817 238.871 198.369 246.52 198.369 247.875C198.369 248.924 201.123 251.241 201.997 250.891C202.303 250.76 203.833 248.443 205.363 245.733C206.893 242.979 209.778 238.04 211.745 234.718C216.51 226.85 216.728 225.626 214.062 221.998C213.362 221.08 212.925 220.119 213.056 219.9C213.45 219.332 217.471 219.9 219.657 220.862C221.099 221.518 221.711 222.129 222.673 224.009C223.329 225.277 224.203 226.806 224.64 227.375C225.121 227.943 225.47 228.773 225.47 229.211C225.47 229.604 223.809 234.631 221.755 240.313C219.701 245.995 218.04 250.803 218.04 251.022C218.04 251.459 220.487 252.989 221.842 253.382C222.629 253.645 222.935 253.426 223.547 252.246C223.941 251.459 227 246.083 230.322 240.269C233.644 234.499 236.398 229.385 236.398 228.905C236.398 228.467 234.825 225.626 232.901 222.61C230.978 219.594 229.404 216.709 229.404 216.185C229.404 215.617 230.585 213.213 232.027 210.765C233.47 208.361 234.65 206.175 234.65 206C234.65 205.782 233.994 205.52 233.251 205.388C229.317 204.733 141.588 192.45 141.064 192.45C140.714 192.45 138.485 195.728 136.081 199.706Z" fill="#F0F2FF"/>
<path d="M251.74 201.061C248.987 202.066 245.883 205.301 244.921 208.142C242.211 216.403 248.506 224.49 257.117 223.834C260.133 223.572 262.187 222.698 264.154 220.818L265.466 219.594L270.274 223.747C279.41 231.702 285.529 238.171 289.726 244.422C295.058 252.333 294.359 257.71 287.758 260.07C284.655 261.163 275.213 261.075 267.87 259.852C260.876 258.671 249.249 255.699 239.414 252.596C235.174 251.241 231.546 250.148 231.284 250.148C230.672 250.148 229.71 252.377 230.147 252.77C230.322 252.945 233.644 254.169 237.491 255.524C278.623 269.774 302.183 271.741 303.582 261.032C303.844 259.108 302.533 255 300.741 252.115C296.02 244.597 284.742 233.319 271.061 222.479L266.209 218.589L267.039 216.797C268.176 214.262 268.132 209.891 266.952 207.312C265.859 204.864 263.848 202.722 261.532 201.542C259.171 200.318 254.363 200.056 251.74 201.061Z" fill="#F0F2FF"/>
<path d="M122.137 217.89C121.087 231.003 120.781 240.663 120.781 262.824C120.781 283.324 120.913 288.831 121.568 295.169C123.71 316.063 127.163 327.515 132.146 329.875C134.07 330.793 137.61 330.487 140.801 329.176C146.309 326.816 151.292 318.161 156.1 302.338C158.242 295.388 161.652 282.187 161.652 280.876C161.652 279.128 160.777 281.313 159.247 286.864C154.439 304.523 149.369 314.839 144.298 317.243C142.287 318.205 137.435 318.773 135.556 318.248C133.764 317.768 131.316 315.014 129.917 311.867C127.382 306.272 125.021 293.683 124.06 280.745C122.967 265.709 123.098 239.788 124.366 219.201L124.628 214.742H123.492C122.443 214.742 122.355 214.874 122.137 217.89Z" fill="#F0F2FF"/>
<path d="M172.798 1.26129C165.105 5.23893 156.45 24.0781 147.883 55.6806C146.309 61.363 144.036 70.3236 142.812 75.5688C140.058 87.5891 135.469 110.187 135.775 110.493C135.906 110.624 136.43 110.712 136.911 110.712C137.742 110.712 138.004 109.925 139.709 101.402C146.397 68.75 154.133 42.6987 161.87 27.0067C171.618 7.2496 179.399 7.86155 184.119 28.7551C186.043 37.366 187.879 53.2766 187.879 61.8438V65.6903L186.13 65.9525C183.464 66.3896 180.011 68.6626 178.393 71.0666C173.803 77.9292 177.082 86.8024 185.168 89.119C188.971 90.2555 193.255 89.1627 196.315 86.2778C200.03 82.8684 200.992 76.749 198.588 72.2468C197.058 69.4931 194.304 67.1764 191.55 66.4771L189.671 65.9525V56.3363C189.671 31.7711 184.688 7.94897 178.306 2.17921C176.339 0.387083 174.896 0.168531 172.798 1.26129Z" stroke="#F0F2FF" stroke-width="0.266667" mask="url(#path-1-inside-1_35_52)"/>
<path d="M14.7814 98.5167C-4.27669 99.6094 -4.67009 109.007 13.6449 127.671C20.2453 134.447 37.555 149.264 38.1233 148.696C38.2107 148.609 38.5604 147.822 38.9101 146.991L39.522 145.505L34.7138 141.309C28.4631 135.933 21.819 129.289 18.1472 124.699C13.1641 118.492 11.1534 113.64 11.8965 109.707C12.2462 107.827 14.9126 105.029 17.5352 103.806C23.6985 100.921 36.3748 100.79 51.5426 103.5C53.5534 103.849 56.0012 104.243 56.9628 104.374C60.7657 104.811 53.4222 102.8 46.035 101.314C34.2767 98.9975 23.6111 98.0358 14.7814 98.5167Z" stroke="#F0F2FF" stroke-width="0.266667" mask="url(#path-1-inside-1_35_52)"/>
<path d="M259.565 107.04C258.953 107.128 256.506 107.521 254.145 107.914C202.26 116.132 84.8512 175.228 29.6438 220.862C22.8686 226.413 12.1593 237.122 9.40552 241.056C4.99067 247.35 3.98531 251.721 6.34572 254.562C8.40016 257.01 10.7606 257.71 17.2298 257.928C23.6554 258.147 28.9882 257.491 37.9053 255.349C40.8777 254.65 43.4129 254.082 43.6315 254.082C43.8063 254.082 44.5494 255.043 45.2488 256.18C50.2756 264.266 61.6842 263.742 65.9242 255.262C69.8582 247.35 64.3069 238.346 55.4772 238.346C48.702 238.346 43.6752 243.329 43.6315 250.017C43.6315 252.596 43.5878 252.727 42.4513 252.945C35.2389 254.431 25.6224 254.694 21.8195 253.513C17.2736 252.115 14.9131 249.361 15.394 245.908C17.7981 228.161 75.6718 186.243 145.916 151.406C196.009 126.535 238.977 111.892 258.429 113.029C265.597 113.466 268.526 115.607 268.176 120.153C267.608 127.846 254.451 141.965 232.858 158.006C226.826 162.552 225.077 164.388 230.279 160.804C242.736 152.193 256.2 141.309 264.505 133.135C270.887 126.841 273.771 123.213 276.044 118.711C277.4 115.957 277.574 115.258 277.4 113.16C277.181 110.318 276.35 109.226 273.553 107.958C271.979 107.215 270.537 107.04 266.122 106.953C263.106 106.909 260.177 106.953 259.565 107.04Z" stroke="#F0F2FF" stroke-width="0.266667" mask="url(#path-1-inside-1_35_52)"/>
<path d="M83.9332 111.236C84.2829 112.111 120.52 158.094 121.044 158.269C121.263 158.356 123.055 157.526 125.022 156.477C137.13 149.92 160.953 138.468 175.421 132.348C179.268 130.687 182.502 129.289 182.59 129.245C182.852 129.026 179.574 125.136 178.524 124.481C178 124.131 159.466 121.333 132.365 117.531C107.494 114.034 86.3373 111.018 85.4194 110.843C84.0206 110.624 83.7584 110.668 83.9332 111.236Z" stroke="#F0F2FF" stroke-width="0.266667" mask="url(#path-1-inside-1_35_52)"/>
<path d="M78.1194 119.541C75.147 124.699 74.0542 126.404 73.5297 126.622C73.2674 126.71 70.1202 126.666 66.5359 126.448C62.8641 126.273 59.7169 126.273 59.3235 126.491C58.3619 126.972 45.6856 149.046 45.467 150.532C45.3359 151.45 45.5982 151.843 46.9532 152.63C47.8274 153.155 48.7891 153.504 49.0951 153.373C49.401 153.286 52.6357 149.614 56.3074 145.243C59.9792 140.916 63.5635 137.025 64.2192 136.676C65.0497 136.282 66.8418 136.064 69.7705 136.064C74.0542 136.064 74.0542 136.064 75.4093 137.463C77.42 139.648 79.1684 142.183 78.9062 142.489C78.7313 142.62 77.0703 142.708 75.1907 142.664C72.3932 142.577 71.6501 142.708 71.0818 143.363C69.7268 144.85 57.5751 166.399 57.7062 167.054C57.8373 167.797 60.5037 169.721 61.3342 169.721C61.5965 169.721 64.6563 166.355 68.1095 162.246C77.2014 151.406 76.1086 152.237 81.0917 152.237C86.1622 152.237 87.6484 152.849 90.0088 155.865C90.9268 157.045 91.7136 158.181 91.7136 158.4C91.7136 158.618 89.9651 158.793 87.8233 158.793C85.2443 158.793 83.8018 158.968 83.4959 159.318C82.4031 160.716 69.8579 182.921 69.8579 183.489C69.8579 184.145 72.8303 185.894 73.9231 185.894C74.2728 185.894 74.8847 185.413 75.2344 184.845C75.6278 184.276 78.9062 180.342 82.5779 176.059L89.1783 168.278L94.2925 168.497C97.1338 168.628 99.7565 168.934 100.237 169.24C100.98 169.721 101.986 169.284 108.105 165.831C111.952 163.645 115.099 161.678 115.099 161.416C115.099 161.022 80.3924 116.394 80.0864 116.394C79.9989 116.394 79.1247 117.837 78.1194 119.541Z" stroke="#F0F2FF" stroke-width="0.266667" mask="url(#path-1-inside-1_35_52)"/>
<path d="M177.388 140.041C165.936 145.287 127.732 164.388 127.076 165.175C126.727 165.612 128.388 168.016 134.201 175.447C138.354 180.779 142.244 185.5 142.856 185.937C143.73 186.549 153.784 188.123 189.19 193.106C214.062 196.646 235.305 199.619 236.398 199.793L238.322 200.012L235.48 196.559C233.907 194.679 222.542 180.168 210.215 164.344C197.845 148.565 187.529 135.627 187.267 135.67C187.004 135.67 182.546 137.637 177.388 140.041Z" stroke="#F0F2FF" stroke-width="0.266667" mask="url(#path-1-inside-1_35_52)"/>
<path d="M109.854 174.485C103.822 177.807 96.8716 181.741 94.38 183.183L89.8778 185.806L85.9875 192.537C83.8456 196.209 82.0972 199.444 82.0972 199.75C82.0972 200.405 84.8073 202.066 85.9437 202.066C86.5557 202.066 88.4353 200.143 92.0196 195.859C99.4505 186.943 100.762 185.631 103.079 185.019C105.614 184.32 109.81 184.67 112.345 185.806C114.181 186.593 117.066 189.827 117.066 191.095C117.066 191.357 115.58 191.401 113.001 191.27C109.81 191.095 108.848 191.139 108.455 191.663C108.149 191.969 104.871 197.564 101.112 204.033L94.2926 215.835L95.4291 216.797C96.9153 218.108 98.5326 218.501 99.4505 217.758C99.8439 217.409 103.079 213.65 106.663 209.41C110.204 205.126 113.526 201.454 114.006 201.192C114.575 200.886 116.629 200.842 120.039 201.017C125.721 201.367 124.934 200.974 128.606 205.345C129.961 207.006 129.786 207.18 134.988 198.613C138.397 192.887 138.966 191.751 138.528 191.051C138.004 190.221 120.956 168.409 120.825 168.409C120.782 168.409 115.842 171.119 109.854 174.485Z" stroke="#F0F2FF" stroke-width="0.266667" mask="url(#path-1-inside-1_35_52)"/>
<path d="M136.081 199.706C133.677 203.727 131.666 207.137 131.579 207.312C131.36 207.836 134.026 208.623 136.037 208.623C137.043 208.623 138.135 208.885 138.529 209.191C139.403 209.847 144.605 217.933 144.605 218.633C144.605 218.895 142.9 223.834 140.845 229.604C138.791 235.374 137.174 240.4 137.348 240.75C137.742 241.799 140.583 242.979 141.414 242.455C142.157 241.974 154.483 220.993 155.183 218.982C155.576 217.89 155.401 217.409 153.565 214.655C152.429 212.95 151.686 211.42 151.904 211.202C152.473 210.634 158.723 211.639 159.51 212.469C160.953 213.999 164.712 220.425 164.712 221.343C164.712 221.867 163.138 226.632 161.215 231.964C159.292 237.297 157.718 242.149 157.718 242.804C157.718 243.679 158.068 244.203 159.029 244.684C161.521 245.995 161.783 245.777 165.411 239.308C167.291 236.029 169.87 231.615 171.137 229.473C175.989 221.474 176.12 220.774 173.76 217.146C172.842 215.835 172.143 214.524 172.143 214.262C172.143 213.912 172.929 213.825 174.765 214.043C179.268 214.568 179.748 214.874 182.415 219.07C183.726 221.212 184.819 223.441 184.819 224.053C184.819 224.665 183.245 229.56 181.322 234.893C179.399 240.226 177.825 244.99 177.825 245.514C177.825 246.214 178.306 246.695 179.355 247.219C181.453 248.225 181.978 248.181 182.852 246.782C184.207 244.728 195.572 225.058 195.878 224.184C196.096 223.616 195.659 222.523 194.435 220.6C192.643 217.758 192.206 216.229 193.255 216.622C193.605 216.753 195.004 216.972 196.446 217.146C197.845 217.321 199.331 217.627 199.725 217.846C200.424 218.196 203.921 223.484 204.926 225.714C205.363 226.675 205.145 227.55 203.265 232.489C200.817 238.871 198.369 246.52 198.369 247.875C198.369 248.924 201.123 251.241 201.997 250.891C202.303 250.76 203.833 248.443 205.363 245.733C206.893 242.979 209.778 238.04 211.745 234.718C216.51 226.85 216.728 225.626 214.062 221.998C213.362 221.08 212.925 220.119 213.056 219.9C213.45 219.332 217.471 219.9 219.657 220.862C221.099 221.518 221.711 222.129 222.673 224.009C223.329 225.277 224.203 226.806 224.64 227.375C225.121 227.943 225.47 228.773 225.47 229.211C225.47 229.604 223.809 234.631 221.755 240.313C219.701 245.995 218.04 250.803 218.04 251.022C218.04 251.459 220.487 252.989 221.842 253.382C222.629 253.645 222.935 253.426 223.547 252.246C223.941 251.459 227 246.083 230.322 240.269C233.644 234.499 236.398 229.385 236.398 228.905C236.398 228.467 234.825 225.626 232.901 222.61C230.978 219.594 229.404 216.709 229.404 216.185C229.404 215.617 230.585 213.213 232.027 210.765C233.47 208.361 234.65 206.175 234.65 206C234.65 205.782 233.994 205.52 233.251 205.388C229.317 204.733 141.588 192.45 141.064 192.45C140.714 192.45 138.485 195.728 136.081 199.706Z" stroke="#F0F2FF" stroke-width="0.266667" mask="url(#path-1-inside-1_35_52)"/>
<path d="M251.74 201.061C248.987 202.066 245.883 205.301 244.921 208.142C242.211 216.403 248.506 224.49 257.117 223.834C260.133 223.572 262.187 222.698 264.154 220.818L265.466 219.594L270.274 223.747C279.41 231.702 285.529 238.171 289.726 244.422C295.058 252.333 294.359 257.71 287.758 260.07C284.655 261.163 275.213 261.075 267.87 259.852C260.876 258.671 249.249 255.699 239.414 252.596C235.174 251.241 231.546 250.148 231.284 250.148C230.672 250.148 229.71 252.377 230.147 252.77C230.322 252.945 233.644 254.169 237.491 255.524C278.623 269.774 302.183 271.741 303.582 261.032C303.844 259.108 302.533 255 300.741 252.115C296.02 244.597 284.742 233.319 271.061 222.479L266.209 218.589L267.039 216.797C268.176 214.262 268.132 209.891 266.952 207.312C265.859 204.864 263.848 202.722 261.532 201.542C259.171 200.318 254.363 200.056 251.74 201.061Z" stroke="#F0F2FF" stroke-width="0.266667" mask="url(#path-1-inside-1_35_52)"/>
<path d="M122.137 217.89C121.087 231.003 120.781 240.663 120.781 262.824C120.781 283.324 120.913 288.831 121.568 295.169C123.71 316.063 127.163 327.515 132.146 329.875C134.07 330.793 137.61 330.487 140.801 329.176C146.309 326.816 151.292 318.161 156.1 302.338C158.242 295.388 161.652 282.187 161.652 280.876C161.652 279.128 160.777 281.313 159.247 286.864C154.439 304.523 149.369 314.839 144.298 317.243C142.287 318.205 137.435 318.773 135.556 318.248C133.764 317.768 131.316 315.014 129.917 311.867C127.382 306.272 125.021 293.683 124.06 280.745C122.967 265.709 123.098 239.788 124.366 219.201L124.628 214.742H123.492C122.443 214.742 122.355 214.874 122.137 217.89Z" stroke="#F0F2FF" stroke-width="0.266667" mask="url(#path-1-inside-1_35_52)"/>
</svg>
