<svg width="339" height="332" viewBox="0 0 339 332" fill="none" xmlns="http://www.w3.org/2000/svg">
<path d="M171.07 0.692383C237.262 0.692484 294.441 39.4801 321.005 95.4941C330.835 97.9267 338.135 107.007 338.135 117.811C338.135 130.469 328.111 140.767 315.745 140.767C303.373 140.767 293.356 130.469 293.355 117.811C293.355 108.903 298.314 101.17 305.563 97.3652C280.493 48.6769 229.654 15.3409 171.07 15.3408C90.0944 15.3408 23.9144 79.0306 20.1426 158.897H95.0225L201.229 45.6357L202.449 44.335L202.083 46.0811L161.295 240.704L239.789 158.888V158.562H240.122L240.465 158.246L240.634 158.562H328.438V158.694H336.689L336.709 159.174C336.801 161.469 336.853 163.777 336.853 166.097C336.852 257.387 262.568 331.5 171.07 331.5C103.86 331.5 45.9388 291.508 19.9268 234.099C9.07044 232.506 0.730562 222.926 0.730469 211.376C0.730469 198.718 10.7511 188.419 23.1201 188.419C35.4883 188.419 45.5088 198.718 45.5088 211.376C45.5087 219.704 41.1709 227.002 34.6865 231.026C59.0254 281.771 110.974 316.852 171.07 316.852C252.324 316.851 318.677 252.726 322.034 172.481H245.802L139.389 283.399L138.181 284.658L138.538 282.95L179.122 89.3086L101.107 172.504V172.817H100.813L100.577 173.068L100.324 172.817H13.3242V172.749H5.4209L5.40332 172.268C5.32754 170.214 5.29004 168.159 5.29004 166.097C5.29004 74.8063 79.5743 0.692383 171.07 0.692383ZM23.1201 199.562C16.7837 199.562 11.6172 204.844 11.6172 211.376C11.6173 217.908 16.7838 223.189 23.1201 223.189C29.4557 223.189 34.622 217.908 34.6221 211.376C34.6221 204.844 29.4558 199.563 23.1201 199.562ZM315.745 105.997C309.41 105.997 304.241 111.279 304.241 117.811C304.241 124.342 309.41 129.624 315.745 129.624C322.08 129.624 327.249 124.342 327.249 117.811C327.249 111.279 322.08 105.997 315.745 105.997Z" fill="#F0F2FF" stroke="#F0F2FF"/>
</svg>
