<svg width="337" height="330" viewBox="0 0 337 330" fill="none" xmlns="http://www.w3.org/2000/svg">
<path fill-rule="evenodd" clip-rule="evenodd" d="M33.0409 229.838C57.3772 280.968 109.615 316.351 170.07 316.351C251.768 316.351 318.454 251.737 321.557 170.981H244.59L138.028 282.053L178.977 86.6671L99.6072 171.307V171.317H99.5975L99.5649 171.352L99.53 171.317H12.8242V171.249H4.90312C4.82756 169.201 4.78979 167.153 4.78979 165.096C4.78979 74.0831 78.8491 0.192383 170.07 0.192383C236.146 0.192383 293.216 38.9615 319.656 94.9235C329.376 97.215 336.634 106.15 336.634 116.81C336.634 129.205 326.823 139.267 314.745 139.267C302.661 139.267 292.856 129.205 292.856 116.81C292.856 107.91 297.91 100.212 305.237 96.5796C280.165 47.4898 229.026 13.8411 170.07 13.8411C88.65 13.8411 22.1357 78.019 18.6165 158.397H94.2386L200.594 44.9781L159.448 241.309L239.289 158.088V158.061H239.318L239.329 158.051L239.335 158.061H326.938V158.194H335.209C335.301 160.484 335.352 162.784 335.352 165.096C335.352 256.109 261.293 330 170.07 330C102.965 330 45.1469 290.014 19.2679 232.643C8.53223 231.207 0.230469 221.779 0.230469 210.376C0.230469 197.982 10.0388 187.919 22.1197 187.919C34.2 187.919 44.0084 197.982 44.0084 210.376C44.0084 218.691 39.5933 225.957 33.0409 229.838ZM22.1197 198.063C28.7437 198.063 34.1216 203.58 34.1216 210.376C34.1216 217.172 28.7437 222.69 22.1197 222.69C15.4951 222.69 10.1173 217.172 10.1173 210.376C10.1173 203.58 15.4951 198.063 22.1197 198.063ZM314.745 104.497C321.368 104.497 326.749 110.015 326.749 116.81C326.749 123.606 321.368 129.124 314.745 129.124C308.122 129.124 302.741 123.606 302.741 116.81C302.741 110.015 308.122 104.497 314.745 104.497Z" fill="#040828"/>
</svg>
