<svg width="323" height="330" viewBox="0 0 323 330" fill="none" xmlns="http://www.w3.org/2000/svg">
<path fill-rule="evenodd" clip-rule="evenodd" d="M240.302 88.5939C230.009 75.7446 227.975 59.1562 233.917 46.7605L232.4 44.8668C230.24 42.1696 230.367 38.4369 232.68 36.5692L238.29 32.0464L248.107 24.1293L253.717 19.6038C256.031 17.7364 259.691 18.4157 261.851 21.1128L262.874 22.3913C276.598 18.2042 293.327 23.6619 304.111 37.1285L306.566 40.1908L242.756 91.6587L240.302 88.5939Z" fill="#040828"/>
<path fill-rule="evenodd" clip-rule="evenodd" d="M273.047 108.256L255.703 86.6023L266.923 77.5538L284.267 99.2073C287.146 102.803 286.978 107.779 283.893 110.267C280.808 112.758 275.927 111.851 273.047 108.256Z" fill="#040828"/>
<path fill-rule="evenodd" clip-rule="evenodd" d="M314.866 74.5985C317.745 78.1939 317.577 83.1703 314.492 85.6583C311.407 88.1464 306.526 87.2424 303.646 83.6471L286.302 61.9935L297.522 52.945L314.866 74.5985Z" fill="#040828"/>
<path fill-rule="evenodd" clip-rule="evenodd" d="M289.074 247.961C262.337 288.177 216.714 314.695 164.966 314.695C82.6869 314.695 15.887 247.662 15.887 165.096C15.887 82.5308 82.6869 15.4977 164.966 15.4977C197.968 15.4977 228.48 26.2814 253.189 44.5277C256.579 47.0311 261.356 46.3015 263.851 42.8993C266.346 39.4978 265.619 34.7036 262.229 32.2002C234.988 12.084 201.35 0.192383 164.966 0.192383C74.2692 0.192383 0.634766 74.0832 0.634766 165.096C0.634766 256.109 74.2692 330 164.966 330C222.002 330 272.292 300.781 301.761 256.455C304.097 252.942 303.151 248.187 299.65 245.842C296.149 243.498 291.41 244.448 289.074 247.961Z" fill="#040828"/>
<path d="M173.909 70.787C170.151 90.2947 155.097 101.095 138.558 109.619C123.537 117.302 107.469 123.314 93.9993 133.473C75.0684 147.62 63.1804 170.395 73.2616 193.619C73.541 194.204 73.8465 194.85 74.1259 195.433C76.9511 200.867 81.7347 205.451 87.5651 206.787C87.262 208.712 86.9849 210.706 86.8641 212.718C86.471 219.52 86.6865 226.335 88.4602 232.217C89.3909 235.066 90.6271 237.504 91.804 239.132C92.917 240.781 93.7412 241.625 93.7412 241.625L94.821 242.756C95.3917 243.309 96.0311 243.839 96.8481 244.229C100.415 245.995 104.796 244.512 106.619 240.912C108.421 237.243 106.943 232.844 103.289 231.04C103.289 231.04 102.925 230.864 102.219 230.358C101.511 229.854 100.505 228.923 99.4839 227.316C98.5177 226.071 97.6509 224.258 96.8931 222.105C95.9648 219.474 94.7263 216.72 94.3403 213.937C93.1562 205.383 93.9709 197.148 96.6397 188.874C98.1838 184.09 99.967 178.506 101.322 173.489C101.79 171.75 105.764 159.999 106.619 159.999C107.474 159.999 110.481 174.071 111.336 174.071C112.189 174.071 118.358 160.445 124.667 154.797C130.952 149.081 130.49 147.706 131.179 147.34C130.72 148.183 127.47 155.089 126.225 156.439C120.555 162.572 116.066 172.242 115.166 175.692C113.821 179.107 112.144 183.986 111.336 183.986C110.221 183.986 106.835 172.277 106.11 172.277C105.388 172.277 102.257 186.666 101.322 190.164C100.386 193.914 99.7278 197.747 99.4554 201.604C99.0884 206.773 99.3726 210.535 104.241 213.208C112.603 217.659 121.391 217.11 130.118 214.467L136.756 212.108C145.665 208.488 153.986 203.415 161.297 197.182L167.577 191.241C173.076 185.651 177.89 179.399 181.812 172.553L185.788 164.782C187.538 160.978 189.018 157.045 190.16 153.005C191.154 149.623 191.903 146.178 192.4 142.668L193.359 134.904C193.96 127.195 193.546 119.391 192.144 111.787L190.406 104.075C187.28 92.0104 181.649 80.5326 173.909 70.787Z" fill="#040828"/>
</svg>
