<svg width="323" height="330" viewBox="0 0 323 330" fill="none" xmlns="http://www.w3.org/2000/svg">
<path d="M242.756 91.6587L240.302 88.5933C240.142 88.3926 239.983 88.1909 239.826 87.9885C239.199 87.1783 238.604 86.3543 238.041 85.5179C237.619 84.8903 237.215 84.256 236.829 83.6155C236.572 83.1888 236.323 82.7593 236.082 82.3274C235.84 81.8954 235.607 81.461 235.382 81.0244C234.706 79.7143 234.103 78.3845 233.571 77.0414C233.394 76.5937 233.225 76.1445 233.064 75.6941C232.983 75.4691 232.905 75.2438 232.828 75.0181C232.522 74.1148 232.246 73.2071 232.004 72.2968C231.154 69.1121 230.695 65.8967 230.622 62.7336C230.612 62.2816 230.609 61.8306 230.615 61.3809C230.617 61.156 230.622 60.9315 230.629 60.7073C230.642 60.2594 230.663 59.8129 230.692 59.3682C230.721 58.923 230.758 58.4796 230.803 58.0381C230.848 57.5964 230.9 57.1567 230.961 56.7191C231.082 55.8445 231.234 54.9784 231.418 54.123C231.51 53.6953 231.609 53.2703 231.717 52.8481C232.255 50.7367 232.989 48.6975 233.917 46.7606L232.4 44.8662C232.265 44.6977 232.139 44.5253 232.022 44.3495C231.905 44.1736 231.797 43.9941 231.698 43.8122C231.598 43.6303 231.508 43.4458 231.426 43.2593C231.345 43.0727 231.271 42.8843 231.207 42.6946C231.176 42.6 231.146 42.5051 231.118 42.41C230.98 41.9333 230.898 41.4512 230.87 40.9749L230.86 40.6897C230.858 40.5005 230.864 40.3125 230.879 40.1264C230.901 39.8473 230.944 39.5725 231.006 39.3046C231.026 39.2152 231.049 39.1267 231.074 39.0389C231.174 38.6877 231.309 38.3503 231.478 38.032C231.604 37.7935 231.75 37.5657 231.916 37.3512C232.136 37.0652 232.391 36.8025 232.68 36.5691L238.29 32.0467L248.107 24.1295L253.717 19.6039C254.368 19.0788 255.125 18.7553 255.926 18.6212C256.014 18.6063 256.104 18.5939 256.194 18.5837C256.284 18.5735 256.374 18.5655 256.465 18.5599C256.828 18.5376 257.196 18.5521 257.565 18.6026C257.842 18.6405 258.118 18.6984 258.393 18.7762C258.576 18.8281 258.758 18.8886 258.938 18.958C259.028 18.9926 259.118 19.0291 259.207 19.0681C259.386 19.146 259.562 19.233 259.736 19.328C259.822 19.3755 259.908 19.425 259.994 19.4767C260.677 19.8904 261.311 20.4384 261.85 21.1126L262.875 22.3912C263.303 22.2605 263.735 22.1392 264.169 22.0272C264.604 21.9151 265.041 21.8127 265.481 21.7193C265.92 21.6259 266.362 21.5414 266.806 21.4666C267.028 21.4292 267.251 21.3949 267.474 21.3621C267.92 21.2966 268.368 21.2401 268.818 21.193C269.942 21.0753 271.077 21.0144 272.219 21.0108C273.817 21.0058 275.427 21.1121 277.039 21.3271C279.11 21.6036 281.183 22.0608 283.232 22.6928C284.143 22.9738 285.049 23.2894 285.949 23.6393C286.174 23.7268 286.398 23.8164 286.622 23.9082C289.086 24.9175 291.494 26.1847 293.8 27.7027C294.429 28.1168 295.051 28.5501 295.664 29.0013C296.89 29.9035 298.083 30.8792 299.234 31.9276C299.618 32.2769 299.996 32.6345 300.37 32.9998C300.932 33.548 301.483 34.1139 302.021 34.6979C302.56 35.2819 303.087 35.884 303.601 36.5036C303.772 36.7101 303.943 36.9181 304.111 37.1285L306.566 40.191L242.756 91.6587Z" fill="#F0F2FF" stroke="#F0F2FF" stroke-width="0.00038893"/>
<path d="M286.256 105.896C286.192 106.387 286.082 106.865 285.926 107.324C285.809 107.667 285.666 108 285.497 108.317C285.226 108.827 284.888 109.299 284.484 109.721C284.468 109.738 284.453 109.756 284.437 109.772C284.352 109.859 284.264 109.944 284.173 110.027L283.893 110.267C283.797 110.345 283.698 110.419 283.599 110.49C283.499 110.561 283.397 110.63 283.294 110.695C283.089 110.824 282.876 110.939 282.659 111.042C282.225 111.249 281.77 111.405 281.301 111.509C281.067 111.561 280.83 111.601 280.59 111.629C280.111 111.683 279.622 111.687 279.131 111.644C278.762 111.612 278.393 111.552 278.025 111.466C277.658 111.38 277.292 111.267 276.931 111.129C276.691 111.036 276.453 110.933 276.218 110.817C276.1 110.76 275.984 110.698 275.868 110.635C275.637 110.508 275.409 110.371 275.185 110.222C274.85 109.998 274.525 109.75 274.213 109.477C274.006 109.295 273.804 109.102 273.61 108.898C273.415 108.695 273.227 108.48 273.047 108.255L255.704 86.6022L266.923 77.5539L284.267 99.2079C284.716 99.7694 285.092 100.365 285.393 100.979C285.635 101.47 285.829 101.974 285.976 102.482C286.123 102.991 286.223 103.504 286.276 104.014C286.329 104.523 286.335 105.03 286.295 105.526C286.285 105.65 286.272 105.774 286.256 105.896Z" fill="#F0F2FF" stroke="#F0F2FF" stroke-width="0.00038893"/>
<path d="M314.866 74.5991C315.046 74.8236 315.214 75.0534 315.37 75.2876C315.604 75.6395 315.811 76.0014 315.992 76.3701C316.113 76.6159 316.222 76.8646 316.319 77.1156C316.611 77.8683 316.795 78.6399 316.874 79.4047C316.994 80.552 316.877 81.684 316.525 82.715C316.408 83.0585 316.266 83.3911 316.097 83.7089C315.988 83.9142 315.867 84.1132 315.737 84.3056C315.463 84.7093 315.141 85.0827 314.773 85.418L314.492 85.6583C314.396 85.736 314.297 85.8101 314.198 85.8812C313.998 86.0236 313.792 86.1531 313.58 86.2693C313.051 86.5596 312.486 86.7688 311.901 86.8994C311.667 86.9516 311.429 86.9906 311.19 87.0178C310.71 87.0724 310.221 87.0776 309.73 87.0344C309.484 87.0128 309.238 86.9796 308.992 86.9341C308.009 86.7519 307.033 86.3797 306.122 85.8283C305.667 85.5525 305.228 85.232 304.812 84.868C304.709 84.777 304.607 84.683 304.506 84.5866L304.209 84.2895C304.111 84.1876 304.016 84.0829 303.922 83.9756C303.828 83.8687 303.736 83.7586 303.647 83.6464L286.303 61.9934L297.522 52.9451L314.866 74.5991Z" fill="#F0F2FF" stroke="#F0F2FF" stroke-width="0.00038893"/>
<path d="M164.967 0.192383C168.946 0.19239 172.893 0.335512 176.802 0.615234C177.36 0.655192 177.918 0.697611 178.475 0.743164C179.588 0.834285 180.699 0.936462 181.807 1.0498C182.914 1.16311 184.018 1.28756 185.118 1.42285C186.769 1.62584 188.413 1.85362 190.049 2.10547C192.23 2.44127 194.397 2.82011 196.549 3.24121C197.625 3.45177 198.697 3.67275 199.766 3.9043C200.3 4.02006 200.833 4.13879 201.365 4.25977C205.091 5.10659 208.769 6.08037 212.395 7.17676C213.948 7.64664 215.492 8.13886 217.026 8.65332C218.049 8.99619 219.067 9.34855 220.08 9.71094C221.601 10.2547 223.111 10.8211 224.61 11.4082C226.11 11.9952 227.598 12.6038 229.076 13.2334C230.062 13.6532 231.042 14.082 232.018 14.5205C234.456 15.6164 236.862 16.7705 239.235 17.9805C242.083 19.4324 244.884 20.9646 247.634 22.5752C250.384 24.1859 253.083 25.8744 255.729 27.6377C257.933 29.1071 260.1 30.6286 262.229 32.2002C262.334 32.2784 262.438 32.3588 262.539 32.4414C262.942 32.7717 263.302 33.1363 263.62 33.5273C263.938 33.9186 264.213 34.3367 264.444 34.7744C264.675 35.212 264.862 35.6691 265.004 36.1387C265.11 36.4908 265.191 36.8498 265.246 37.2129C265.283 37.4549 265.309 37.6987 265.322 37.9434C265.343 38.3106 265.336 38.6798 265.304 39.0479C265.228 39.9059 265.008 40.758 264.637 41.5654C264.584 41.681 264.527 41.7955 264.468 41.9092C264.29 42.2494 264.084 42.5806 263.851 42.8994C262.681 44.494 261.01 45.5018 259.216 45.8643C259.096 45.8884 258.976 45.9093 258.855 45.9277C258.614 45.9645 258.372 45.9903 258.128 46.0039C257.884 46.0176 257.639 46.0186 257.395 46.0088C257.272 46.0039 257.15 45.9962 257.027 45.9854C256.416 45.9311 255.808 45.8034 255.218 45.5986C254.863 45.4757 254.515 45.3249 254.176 45.1465C253.95 45.0277 253.728 44.8967 253.511 44.7529C253.402 44.681 253.295 44.6055 253.189 44.5273L252.026 43.6777C250.082 42.2706 248.103 40.9086 246.09 39.5947C245.285 39.0692 244.474 38.5513 243.658 38.041C243.25 37.7858 242.84 37.5327 242.43 37.2812C241.609 36.7787 240.783 36.2838 239.951 35.7969C239.535 35.5534 239.118 35.3118 238.7 35.0723C236.609 33.8746 234.486 32.7263 232.333 31.6289C231.902 31.4093 231.47 31.192 231.037 30.9766C230.171 30.5459 229.301 30.1232 228.426 29.709C227.988 29.5017 227.549 29.2968 227.108 29.0938C225.788 28.4848 224.458 27.8942 223.118 27.3232C222.671 27.1329 222.223 26.9449 221.774 26.7588C215.937 24.3397 209.914 22.2827 203.732 20.6143C203.257 20.4859 202.78 20.3591 202.303 20.2354C198.007 19.1219 193.636 18.1968 189.199 17.4678C188.706 17.3868 188.212 17.3076 187.718 17.2314C186.729 17.0792 185.736 16.9373 184.741 16.8047C183.746 16.672 182.747 16.5493 181.745 16.4365C180.243 16.2674 178.734 16.12 177.219 15.9961C176.209 15.9135 175.195 15.8416 174.18 15.7793C172.148 15.6547 170.105 15.5702 168.053 15.5283C167.027 15.5074 165.998 15.4971 164.967 15.4971C161.753 15.4971 158.562 15.5993 155.398 15.8008C154.133 15.8814 152.871 15.9777 151.614 16.0898C144.074 16.7628 136.694 18.0005 129.518 19.7598C128.321 20.053 127.131 20.3606 125.946 20.6826C124.762 21.0046 123.583 21.341 122.41 21.6914C121.824 21.8666 121.239 22.0453 120.655 22.2275C118.322 22.9566 116.013 23.7415 113.729 24.5811C113.159 24.7909 112.59 25.0041 112.022 25.2207C105.213 27.8205 98.6421 30.9069 92.3516 34.4375C91.8275 34.7316 91.3053 35.0288 90.7852 35.3291C80.3797 41.3362 70.7635 48.5676 62.1318 56.8262C61.2684 57.6522 60.4148 58.4885 59.5713 59.335C50.2952 68.6434 42.2343 79.1712 35.6494 90.6572C35.0508 91.7014 34.4647 92.7537 33.8906 93.8135C32.7427 95.9329 31.6439 98.0831 30.5967 100.263C30.3348 100.808 30.0767 101.355 29.8213 101.903C29.3104 103.001 28.8121 104.105 28.3271 105.217C28.0848 105.772 27.8452 106.33 27.6094 106.889C26.9018 108.566 26.2238 110.26 25.5762 111.968C24.7126 114.245 23.9027 116.55 23.1484 118.879C22.5828 120.626 22.0485 122.387 21.5459 124.161C21.0433 125.935 20.5721 127.723 20.1338 129.523C19.2572 133.124 18.5106 136.776 17.8994 140.474C17.7975 141.09 17.6998 141.707 17.6055 142.326C17.4168 143.564 17.2432 144.806 17.085 146.054C17.0058 146.678 16.9308 147.303 16.8594 147.929C16.2881 152.937 15.9635 158.019 15.8984 163.164C15.8903 163.807 15.8867 164.452 15.8867 165.097C15.8867 165.742 15.8903 166.385 15.8984 167.028C15.9879 174.103 16.5678 181.06 17.6055 187.866C17.6998 188.485 17.7975 189.103 17.8994 189.719C18.5106 193.416 19.2572 197.068 20.1338 200.669C20.426 201.869 20.7328 203.064 21.0537 204.253C22.0164 207.819 23.1074 211.333 24.3213 214.788C24.726 215.94 25.1443 217.086 25.5762 218.225C26.8715 221.641 28.2887 224.997 29.8213 228.289C30.3321 229.386 30.8553 230.476 31.3916 231.559C32.1963 233.183 33.0295 234.79 33.8906 236.38C34.7516 237.969 35.6406 239.542 36.5566 241.096C38.6944 244.722 40.9805 248.251 43.4062 251.673C43.7527 252.162 44.1019 252.648 44.4541 253.133C49.033 259.431 54.0898 265.358 59.5713 270.858C59.9929 271.282 60.4171 271.702 60.8438 272.12C62.1236 273.374 63.4261 274.605 64.75 275.812C65.1914 276.215 65.6349 276.615 66.0811 277.013C67.4195 278.205 68.7794 279.373 70.1602 280.517C71.0805 281.279 72.0105 282.03 72.9492 282.771C74.3578 283.882 75.7867 284.968 77.2354 286.028C77.718 286.382 78.2025 286.732 78.6895 287.08C85.9968 292.296 93.7926 296.867 101.993 300.712C102.54 300.968 103.088 301.222 103.638 301.472C104.738 301.971 105.846 302.458 106.961 302.932C107.518 303.168 108.077 303.402 108.638 303.632C117.609 307.313 127.017 310.141 136.761 312.017C137.369 312.134 137.98 312.247 138.591 312.356C139.814 312.576 141.042 312.78 142.275 312.97C142.892 313.064 143.51 313.156 144.129 313.243C146.605 313.591 149.101 313.878 151.614 314.103C152.871 314.215 154.133 314.311 155.398 314.392C156.664 314.472 157.933 314.536 159.207 314.585C159.844 314.609 160.482 314.63 161.121 314.646C162.399 314.679 163.681 314.695 164.967 314.695C165.371 314.695 165.774 314.694 166.178 314.69C169.002 314.668 171.808 314.566 174.594 314.388C176.186 314.286 177.771 314.159 179.349 314.007C180.926 313.855 182.497 313.678 184.06 313.478C185.232 313.327 186.4 313.162 187.563 312.984C189.115 312.747 190.659 312.486 192.194 312.201C192.578 312.13 192.962 312.058 193.345 311.983C194.11 311.835 194.874 311.681 195.635 311.521C196.016 311.44 196.396 311.358 196.775 311.275C200.952 310.363 205.063 309.275 209.101 308.02C209.468 307.905 209.834 307.79 210.2 307.673C213.493 306.62 216.736 305.456 219.926 304.185C220.28 304.043 220.633 303.9 220.986 303.756C223.105 302.892 225.199 301.982 227.268 301.024C227.957 300.705 228.643 300.381 229.327 300.052C234.798 297.417 240.084 294.458 245.16 291.198C245.795 290.791 246.426 290.379 247.054 289.962C247.996 289.337 248.93 288.701 249.856 288.055C250.166 287.839 250.474 287.623 250.781 287.405C254.775 284.577 258.625 281.557 262.316 278.358C263.453 277.374 264.574 276.372 265.68 275.354C268.72 272.556 271.645 269.633 274.445 266.593C274.7 266.316 274.953 266.039 275.206 265.761C276.216 264.647 277.21 263.519 278.188 262.375C278.432 262.089 278.675 261.802 278.917 261.515C280.612 259.501 282.254 257.441 283.843 255.338C284.75 254.136 285.641 252.921 286.513 251.691C287.385 250.462 288.239 249.219 289.074 247.962C289.585 247.193 290.211 246.547 290.914 246.031C291.014 245.958 291.116 245.887 291.22 245.818C291.426 245.682 291.639 245.556 291.856 245.441C292.074 245.326 292.297 245.222 292.523 245.129C292.977 244.943 293.446 244.802 293.925 244.706C294.403 244.61 294.891 244.56 295.381 244.557C295.748 244.554 296.117 244.579 296.483 244.631C296.605 244.648 296.727 244.668 296.849 244.691C297.7 244.854 298.536 245.165 299.317 245.633C299.429 245.7 299.54 245.769 299.649 245.843L299.971 246.069C300.284 246.303 300.574 246.557 300.842 246.828C301.109 247.099 301.353 247.387 301.573 247.689C302.087 248.395 302.47 249.177 302.717 249.998C302.752 250.115 302.785 250.234 302.814 250.353C302.874 250.59 302.921 250.83 302.957 251.072C302.993 251.315 303.018 251.559 303.031 251.804C303.104 253.151 302.823 254.527 302.16 255.783C302.04 256.011 301.907 256.236 301.761 256.455C300.84 257.84 299.899 259.211 298.938 260.566C298.217 261.583 297.484 262.591 296.741 263.59C296.246 264.256 295.746 264.918 295.241 265.576C294.736 266.235 294.226 266.889 293.711 267.539C290.108 272.092 286.27 276.45 282.216 280.594C280.189 282.665 278.108 284.684 275.976 286.646C275.062 287.488 274.138 288.318 273.205 289.139C272.583 289.686 271.957 290.229 271.326 290.767C269.751 292.111 268.15 293.425 266.524 294.71C265.224 295.738 263.908 296.747 262.576 297.735C261.244 298.724 259.897 299.694 258.535 300.643C256.832 301.829 255.106 302.984 253.357 304.106C252.308 304.78 251.252 305.442 250.187 306.092C249.831 306.309 249.475 306.524 249.118 306.738C248.405 307.166 247.687 307.589 246.967 308.007C246.607 308.216 246.246 308.423 245.884 308.629C244.436 309.453 242.974 310.256 241.499 311.037C238.549 312.599 235.546 314.074 232.493 315.458C230.585 316.323 228.658 317.152 226.713 317.945C225.935 318.263 225.153 318.574 224.369 318.88C223.585 319.185 222.799 319.486 222.009 319.779C221.614 319.926 221.218 320.071 220.821 320.215C219.236 320.791 217.639 321.342 216.031 321.87C215.63 322.002 215.227 322.133 214.824 322.262C212.808 322.906 210.774 323.512 208.725 324.079C207.905 324.306 207.083 324.527 206.259 324.741C205.434 324.956 204.606 325.164 203.776 325.366C203.362 325.467 202.946 325.566 202.53 325.664C201.698 325.86 200.863 326.049 200.026 326.231C196.679 326.963 193.293 327.592 189.873 328.114C189.018 328.245 188.161 328.369 187.302 328.486C186.443 328.604 185.581 328.714 184.718 328.818C181.696 329.182 178.648 329.464 175.578 329.661C175.139 329.689 174.7 329.716 174.261 329.74C173.382 329.79 172.501 329.832 171.618 329.867C170.736 329.903 169.852 329.93 168.966 329.951C168.08 329.972 167.191 329.987 166.302 329.994C165.857 329.998 165.412 330 164.967 330C163.55 330 162.136 329.981 160.728 329.945C157.206 329.856 153.712 329.655 150.249 329.346C149.556 329.284 148.865 329.218 148.175 329.147C146.104 328.936 144.045 328.686 141.998 328.398C139.951 328.111 137.915 327.785 135.893 327.422C133.196 326.938 130.522 326.388 127.873 325.773C126.549 325.466 125.23 325.144 123.918 324.805C119.981 323.787 116.101 322.626 112.284 321.329C110.376 320.68 108.483 319.998 106.606 319.281C104.104 318.326 101.631 317.311 99.1895 316.238C97.358 315.434 95.544 314.596 93.748 313.728C91.9523 312.859 90.1748 311.958 88.416 311.026C87.8296 310.716 87.2453 310.402 86.6631 310.084C84.3348 308.814 82.04 307.49 79.7812 306.112C78.6521 305.423 77.5321 304.721 76.4209 304.006C69.7524 299.714 63.4127 294.952 57.4482 289.767C56.9513 289.335 56.4566 288.9 55.9648 288.462C54.4896 287.148 53.0384 285.808 51.6113 284.442C51.1356 283.987 50.6627 283.529 50.1924 283.068C47.3705 280.303 44.647 277.438 42.0283 274.477C41.1556 273.49 40.2946 272.492 39.4453 271.484C32.2253 262.917 25.8599 253.602 20.4814 243.672C20.165 243.088 19.8516 242.502 19.542 241.913C18.6135 240.148 17.7164 238.364 16.8506 236.562C15.9846 234.76 15.1505 232.94 14.3486 231.102C11.6762 224.976 9.36409 218.656 7.43945 212.17C7.24697 211.521 7.05873 210.871 6.87402 210.219C6.13526 207.611 5.45889 204.977 4.84668 202.318C4.23451 199.66 3.68628 196.977 3.2041 194.271C2.72186 191.565 2.30483 188.837 1.95605 186.087C1.60731 183.337 1.32708 180.566 1.11523 177.776C1.00932 176.381 0.920655 174.982 0.849609 173.577C0.778553 172.172 0.724218 170.763 0.688477 169.35C0.670612 168.643 0.657399 167.935 0.648438 167.227L0.634766 165.097L0.648438 162.966C0.666364 161.548 0.702414 160.135 0.755859 158.726C0.836032 156.612 0.956349 154.509 1.11523 152.416C1.22114 151.021 1.34403 149.631 1.48438 148.246C1.90546 144.091 2.4808 139.981 3.2041 135.922C3.32467 135.245 3.44935 134.57 3.57812 133.896C3.83567 132.549 4.10936 131.208 4.39941 129.872C4.5444 129.205 4.69366 128.539 4.84668 127.874C7.14247 117.904 10.34 108.28 14.3486 99.0908C15.1505 97.2528 15.9846 95.4322 16.8506 93.6299C17.7164 91.828 18.6135 90.0441 19.542 88.2793C19.8516 87.6908 20.165 87.1047 20.4814 86.5205C26.1763 76.0063 32.9779 66.1816 40.7285 57.2041C41.159 56.7055 41.592 56.2092 42.0283 55.7158C44.647 52.7547 47.3705 49.889 50.1924 47.124C51.133 46.2023 52.0845 45.2916 53.0469 44.3926C60.264 37.6503 68.0857 31.551 76.4209 26.1865C77.5319 25.4715 78.6522 24.7698 79.7812 24.0811C81.4757 23.0474 83.19 22.0434 84.9238 21.0703C86.0793 20.4218 87.2436 19.7871 88.416 19.166C90.1748 18.2343 91.9523 17.3337 93.748 16.4648C95.544 15.5959 97.358 14.7587 99.1895 13.9541C102.242 12.6132 105.343 11.3628 108.488 10.2061C109.746 9.74339 111.012 9.29571 112.284 8.86328C116.101 7.56595 119.981 6.40513 123.918 5.3877C125.23 5.04861 126.549 4.72608 127.873 4.41895C130.522 3.8046 133.196 3.2544 135.893 2.77051C137.915 2.40754 139.951 2.08181 141.998 1.79395C143.363 1.6021 144.732 1.4265 146.107 1.26855C147.483 1.11056 148.864 0.970319 150.249 0.84668C154.405 0.475818 158.605 0.260015 162.844 0.206055L164.967 0.192383Z" fill="#F0F2FF" stroke="#F0F2FF" stroke-width="0.000868465"/>
<path d="M173.91 70.79C181.648 80.5349 187.278 92.0123 190.404 104.076L192.142 111.787C193.544 119.391 193.959 127.195 193.357 134.904L192.398 142.667C191.963 145.738 191.336 148.76 190.519 151.733L190.158 153.005C189.017 157.044 187.536 160.977 185.786 164.781L181.81 172.552C177.889 179.398 173.075 185.65 167.576 191.239L161.296 197.181C153.985 203.414 145.664 208.487 136.756 212.106L130.117 214.466C121.391 217.108 112.603 217.657 104.242 213.206C101.808 211.87 100.52 210.261 99.8865 208.341C99.253 206.421 99.2733 204.188 99.4568 201.604C99.7291 197.748 100.388 193.915 101.323 190.165C101.791 188.416 102.808 183.944 103.798 179.909C104.292 177.892 104.781 175.984 105.19 174.581C105.395 173.879 105.581 173.303 105.737 172.903C105.815 172.703 105.886 172.546 105.949 172.44C105.98 172.387 106.01 172.347 106.037 172.32C106.064 172.293 106.088 172.279 106.11 172.279C106.132 172.279 106.157 172.29 106.184 172.312C106.212 172.334 106.242 172.367 106.274 172.41C106.339 172.496 106.413 172.621 106.495 172.781C106.659 173.101 106.856 173.559 107.074 174.107C107.511 175.205 108.037 176.668 108.575 178.132C109.113 179.595 109.663 181.059 110.149 182.157C110.392 182.706 110.619 183.163 110.82 183.483C110.92 183.643 111.014 183.77 111.1 183.855C111.187 183.941 111.266 183.987 111.337 183.987C111.388 183.987 111.442 183.968 111.499 183.932C111.556 183.895 111.616 183.84 111.678 183.77C111.804 183.63 111.942 183.426 112.088 183.171C112.379 182.66 112.707 181.943 113.052 181.12C113.74 179.474 114.495 177.4 115.168 175.692C115.618 173.967 116.964 170.687 118.908 167.072C120.852 163.457 123.392 159.507 126.226 156.44C126.538 156.103 126.975 155.418 127.462 154.567C127.949 153.717 128.485 152.7 128.998 151.7C130.023 149.7 130.95 147.763 131.18 147.341L131.178 147.34L131.177 147.339L131.178 147.338C131.006 147.43 130.904 147.585 130.753 147.854C130.601 148.124 130.397 148.509 130.019 149.061C129.263 150.165 127.808 151.938 124.666 154.795C121.511 157.619 118.391 162.439 115.954 166.552C114.735 168.608 113.687 170.488 112.89 171.853C112.492 172.536 112.156 173.09 111.893 173.474C111.762 173.665 111.65 173.815 111.556 173.916C111.51 173.966 111.467 174.004 111.43 174.03C111.394 174.056 111.363 174.069 111.337 174.069C111.311 174.069 111.281 174.056 111.251 174.029C111.22 174.003 111.187 173.963 111.153 173.912C111.084 173.809 111.007 173.658 110.925 173.466C110.759 173.081 110.568 172.531 110.36 171.872C109.945 170.553 109.462 168.793 108.979 167.034C108.497 165.275 108.014 163.516 107.598 162.197C107.391 161.538 107.2 160.987 107.034 160.602C106.951 160.41 106.875 160.258 106.805 160.155C106.771 160.104 106.738 160.064 106.707 160.037C106.676 160.01 106.646 159.997 106.619 159.997C106.592 159.997 106.562 160.009 106.529 160.031C106.496 160.054 106.461 160.087 106.423 160.13C106.346 160.216 106.259 160.343 106.164 160.506C105.972 160.831 105.745 161.297 105.495 161.861C104.995 162.99 104.403 164.513 103.824 166.091C102.665 169.246 101.555 172.619 101.32 173.489C99.9656 178.505 98.1824 184.09 96.6384 188.873C93.9695 197.148 93.1546 205.382 94.3386 213.937C94.7246 216.72 95.9631 219.475 96.8914 222.105C97.6491 224.258 98.5159 226.072 99.4822 227.317C100.503 228.924 101.509 229.855 102.218 230.359C102.57 230.612 102.839 230.783 103.018 230.891C103.108 230.944 103.175 230.982 103.22 231.007C103.243 231.019 103.26 231.027 103.271 231.033C103.277 231.036 103.281 231.039 103.284 231.04C103.285 231.041 103.287 231.041 103.288 231.041L103.289 231.042C106.828 232.789 108.325 236.971 106.777 240.565L106.617 240.911C104.794 244.51 100.415 245.992 96.8494 244.227C96.0326 243.838 95.3927 243.308 94.822 242.755L93.7429 241.623H93.7419L93.74 241.621C93.7384 241.619 93.7363 241.617 93.7332 241.613C93.7269 241.607 93.7172 241.597 93.7048 241.584C93.6801 241.558 93.6437 241.518 93.5964 241.466C93.5018 241.361 93.3637 241.204 93.1912 240.995C92.8461 240.578 92.3617 239.955 91.8054 239.131C90.6286 237.503 89.3923 235.065 88.4617 232.216C86.6881 226.335 86.4729 219.52 86.866 212.719C86.9867 210.706 87.263 208.712 87.5662 206.787L87.5906 206.791L87.5652 206.785C81.7356 205.45 76.9527 200.866 74.1277 195.432C73.8483 194.85 73.5428 194.204 73.2634 193.619C63.1828 170.396 75.0703 147.621 94.0007 133.475C100.735 128.395 108.12 124.352 115.698 120.619C123.276 116.886 131.048 113.462 138.558 109.621C155.097 101.097 170.151 90.2968 173.91 70.79ZM103.25 231.018C103.242 231.013 103.233 231.008 103.222 231.003C103.206 230.994 103.187 230.982 103.165 230.97C103.201 230.99 103.229 231.007 103.25 231.018Z" fill="#F0F2FF" stroke="#F0F2FF" stroke-width="0.00358936"/>
</svg>
