<svg width="469" height="330" viewBox="0 0 469 330" fill="none" xmlns="http://www.w3.org/2000/svg">
<mask id="path-1-inside-1_43_66" fill="white">
<path fill-rule="evenodd" clip-rule="evenodd" d="M271.952 111.046L302.786 147.568L234.959 183.957V125.175C248.534 124.509 261.24 119.399 271.952 111.046ZM194.454 112.957C204.775 120.288 216.788 124.686 229.582 125.175V183.912L165.224 147.613L194.454 112.957ZM160.02 53.8202C160.02 53.909 160.02 53.9979 160.063 54.1311C163.533 76.924 174.548 96.6062 189.9 109.447L161.365 143.303L119.081 48.2664C119.038 48.2664 160.02 53.8202 160.02 53.8202ZM303.741 54.1311L348.756 48.1331L306.646 143.259L276.332 107.314C290.34 94.5183 300.357 75.8576 303.697 54.4422C303.741 54.3533 303.741 54.2645 303.741 54.1311ZM165.571 54.5755L188.816 57.73C190.16 84.5216 208.939 105.803 231.923 105.803C254.822 105.803 273.557 84.6548 274.988 57.9522L298.19 54.8421C291.858 91.3638 264.58 118.866 231.88 118.866C199.138 118.91 171.773 91.2749 165.571 54.5755ZM232.271 63.6837L194.237 58.4854C195.885 81.4558 212.148 99.4943 231.923 99.4943C251.656 99.4943 267.876 81.5447 269.61 58.6631L232.271 63.6837Z"/>
<path fill-rule="evenodd" clip-rule="evenodd" d="M110.972 45.6446L154.426 138.815L112.446 100.96C112.62 100.783 120.903 88.3866 120.903 88.3866C121.987 86.7427 121.727 84.3879 120.34 83.0994L52.2953 21.5189L110.972 45.6446ZM32.9533 13.5215L0.557617 0.192383L107.329 96.3837C107.416 96.1621 113.66 86.7871 113.66 86.7871C113.66 86.7871 33.1268 13.7436 32.9533 13.5215Z"/>
<path fill-rule="evenodd" clip-rule="evenodd" d="M358.514 45.6446L315.06 138.815L357.039 100.96C356.865 100.783 348.582 88.3866 348.582 88.3866C347.498 86.7427 347.758 84.3879 349.146 83.0994L417.146 21.4301L358.514 45.6446ZM436.488 13.5215L468.885 0.192383L362.156 96.3837C362.07 96.1621 355.824 86.7871 355.824 86.7871C355.824 86.7871 436.358 13.7436 436.488 13.5215Z"/>
<path fill-rule="evenodd" clip-rule="evenodd" d="M196.924 261.933L230.361 283.037V330L196.924 261.933ZM234.308 329.822V282.992L267.83 261.71L234.308 329.822ZM230.317 278.194L196.057 256.557C195.84 256.423 195.58 256.334 195.363 256.289L219.129 204.484H230.317V278.194ZM269.305 256.245C269.002 256.245 268.654 256.379 268.35 256.557L234.308 278.194V204.484H246.017L269.305 256.245Z"/>
<path fill-rule="evenodd" clip-rule="evenodd" d="M41.8868 116.6L72.2009 108.514C64.7849 118.866 59.7976 131.262 58.1497 144.902C53.119 187.378 82.6524 226.076 124.155 231.274C151.563 234.696 177.368 222.655 193.197 201.773L183.352 241.315C179.709 243.538 175.893 245.493 171.99 247.18L176.153 262.553C168.13 265.886 159.76 268.285 151.173 269.663L147.01 254.29C142.804 254.911 138.597 255.223 134.347 255.267L132.439 271.129C123.765 271.04 115.135 269.973 106.722 267.885L108.63 252.023C104.509 250.913 100.477 249.58 96.5739 247.936L88.8974 261.843C80.9177 258.377 73.3284 253.978 66.3462 248.78L74.0222 234.874C70.6396 232.252 67.4303 229.409 64.3947 226.387L52.0782 236.251C46.0067 229.942 40.6291 222.921 36.1189 215.324L48.3919 205.505C46.2236 201.773 44.3153 197.863 42.6674 193.864L27.6621 198.13C24.4096 189.91 22.0678 181.335 20.7234 172.537L35.7286 168.272C35.1214 163.962 34.8179 159.653 34.7745 155.299L19.2922 153.344C19.379 144.457 20.4198 135.616 22.458 126.996L37.9403 128.951C38.9811 124.73 40.2821 120.599 41.8868 116.6Z"/>
<path fill-rule="evenodd" clip-rule="evenodd" d="M423.652 117.488L393.338 109.402C400.754 119.754 405.741 132.106 407.39 145.746C412.507 188.221 382.973 226.965 341.471 232.207C314.063 235.673 288.215 223.632 272.386 202.75L282.274 242.248C285.916 244.47 289.733 246.425 293.636 248.113L289.473 263.487C297.495 266.819 305.909 269.174 314.453 270.595L318.616 255.223C322.822 255.844 327.029 256.156 331.279 256.2L333.188 272.062C341.861 271.972 350.491 270.906 358.904 268.818L356.996 252.956C361.116 251.846 365.149 250.512 369.052 248.869L376.728 262.775C384.708 259.31 392.297 254.911 399.279 249.713L391.603 235.806C394.986 233.185 398.195 230.341 401.231 227.32L413.504 237.139C419.575 230.785 424.953 223.766 429.463 216.212L417.19 206.393C419.359 202.661 421.267 198.751 422.915 194.753L437.92 199.018C441.172 190.799 443.471 182.178 444.859 173.426L429.854 169.16C430.461 164.851 430.764 160.541 430.808 156.187L446.291 154.232C446.203 145.346 445.162 136.505 443.125 127.885L427.642 129.84C426.601 125.663 425.257 121.532 423.652 117.488Z"/>
<path fill-rule="evenodd" clip-rule="evenodd" d="M114.918 141.437L150.436 168.806C145.752 174.582 138.423 177.869 130.617 176.892C118.431 175.381 109.714 163.963 111.231 151.478C111.665 147.746 112.966 144.325 114.918 141.437Z"/>
<path fill-rule="evenodd" clip-rule="evenodd" d="M350.622 142.414L315.104 169.827C319.787 175.603 327.117 178.891 334.923 177.913C347.109 176.358 355.826 164.984 354.309 152.5C353.918 148.723 352.574 145.302 350.622 142.414Z"/>
<path fill-rule="evenodd" clip-rule="evenodd" d="M148.139 186.889C153.04 184.534 157.377 181.069 160.759 176.759C160.759 176.759 164.229 180.446 164.185 180.891C162.928 199.196 149.137 214.436 132.44 218.168C130.228 218.123 128.017 217.99 125.762 217.679C115.05 216.346 105.292 212.303 97.0952 206.261C100.999 207.06 105.075 207.549 108.414 207.772C124.981 209.015 140.03 200.44 148.139 186.889ZM167.871 182.268L182.53 193.553C173.466 205.416 160.499 213.814 145.841 216.88C157.767 209.77 166.527 196.975 167.871 182.268ZM89.5928 199.863C83.2178 193.42 78.2305 185.6 75.0212 176.981C82.6539 184.178 93.2791 189.333 103.731 190.088C109.629 190.487 115.353 189.688 120.601 187.867C123.29 188.933 126.108 189.688 129.1 190.043C133.524 190.621 137.905 190.266 141.981 189.199C134.175 199.019 121.988 204.927 108.718 203.994C102.863 203.55 94.4934 202.484 89.5928 199.863ZM72.4192 168.228C70.9013 161.297 70.511 153.966 71.3784 146.502C71.4217 146.235 71.4651 145.924 71.4651 145.658C77.0596 158.765 88.8555 169.25 102.907 172.271C105.899 177.603 110.236 182.091 115.44 185.245C111.754 186.133 107.894 186.445 103.905 186.178C91.6744 185.334 79.1412 177.825 72.4192 168.228ZM72.9396 138.104C74.7176 131.173 77.5366 124.731 81.2662 118.999C81.8734 132.372 88.3352 144.369 98.266 152.144C97.9631 157.609 98.8737 162.941 100.739 167.739C87.2076 163.608 76.3656 151.878 72.9396 138.104ZM85.0392 118.377L104.641 133.484C101.779 137.616 99.7844 142.37 98.7864 147.613C90.6336 140.46 85.4295 129.973 85.0392 118.377Z"/>
<path fill-rule="evenodd" clip-rule="evenodd" d="M304.826 177.781C304.826 177.781 301.79 180.801 301.79 181.113C302.961 198.441 315.538 214.347 331.064 219.189C333.969 219.234 336.875 219.1 339.824 218.701C349.278 217.501 357.995 214.213 365.541 209.281C362.939 209.903 360.337 210.303 357.865 210.481C340.605 211.725 324.948 202.351 317.099 187.777C317.143 187.777 308.166 182.001 304.826 177.781ZM298.19 182.934L283.055 194.62C292.076 206.438 305 214.791 319.528 217.901C308.122 210.303 299.665 197.152 298.19 182.934ZM322.954 189.998C330.673 200.929 343.553 207.682 357.648 206.66C363.459 206.261 370.268 204.395 375.082 201.728C381.371 195.642 386.358 188.266 389.74 180.091C382.541 187.11 372.956 191.998 362.636 192.754C355.74 193.243 349.104 192.042 343.12 189.51C340.995 190.221 338.826 190.71 336.528 191.02C331.844 191.598 327.247 191.199 322.954 189.998ZM348.324 187.289C352.748 188.666 357.517 189.244 362.375 188.888C374.909 187.999 386.314 180.313 392.862 170.405L392.906 170.361C394.554 163.474 395.075 156.232 394.337 148.811C388.743 162.496 376.556 172.849 361.594 175.337C361.551 175.337 361.464 175.337 361.421 175.337C358.125 180.357 353.615 184.49 348.324 187.289ZM363.893 170.894C378.421 167.25 389.566 155.477 392.862 140.814C392.906 140.725 392.906 140.547 392.906 140.415C391.301 133.394 388.613 126.953 384.969 121.088C384.536 134.994 377.771 147.434 367.319 155.299C367.405 160.853 366.148 166.14 363.893 170.894ZM381.24 118.776L360.944 134.461C364.153 139.126 366.365 144.591 367.102 150.634C376.036 142.991 381.543 131.439 381.24 118.776Z"/>
</mask>
<path fill-rule="evenodd" clip-rule="evenodd" d="M271.952 111.046L302.786 147.568L234.959 183.957V125.175C248.534 124.509 261.24 119.399 271.952 111.046ZM194.454 112.957C204.775 120.288 216.788 124.686 229.582 125.175V183.912L165.224 147.613L194.454 112.957ZM160.02 53.8202C160.02 53.909 160.02 53.9979 160.063 54.1311C163.533 76.924 174.548 96.6062 189.9 109.447L161.365 143.303L119.081 48.2664C119.038 48.2664 160.02 53.8202 160.02 53.8202ZM303.741 54.1311L348.756 48.1331L306.646 143.259L276.332 107.314C290.34 94.5183 300.357 75.8576 303.697 54.4422C303.741 54.3533 303.741 54.2645 303.741 54.1311ZM165.571 54.5755L188.816 57.73C190.16 84.5216 208.939 105.803 231.923 105.803C254.822 105.803 273.557 84.6548 274.988 57.9522L298.19 54.8421C291.858 91.3638 264.58 118.866 231.88 118.866C199.138 118.91 171.773 91.2749 165.571 54.5755ZM232.271 63.6837L194.237 58.4854C195.885 81.4558 212.148 99.4943 231.923 99.4943C251.656 99.4943 267.876 81.5447 269.61 58.6631L232.271 63.6837Z" fill="#040828"/>
<path fill-rule="evenodd" clip-rule="evenodd" d="M110.972 45.6446L154.426 138.815L112.446 100.96C112.62 100.783 120.903 88.3866 120.903 88.3866C121.987 86.7427 121.727 84.3879 120.34 83.0994L52.2953 21.5189L110.972 45.6446ZM32.9533 13.5215L0.557617 0.192383L107.329 96.3837C107.416 96.1621 113.66 86.7871 113.66 86.7871C113.66 86.7871 33.1268 13.7436 32.9533 13.5215Z" fill="#040828"/>
<path fill-rule="evenodd" clip-rule="evenodd" d="M358.514 45.6446L315.06 138.815L357.039 100.96C356.865 100.783 348.582 88.3866 348.582 88.3866C347.498 86.7427 347.758 84.3879 349.146 83.0994L417.146 21.4301L358.514 45.6446ZM436.488 13.5215L468.885 0.192383L362.156 96.3837C362.07 96.1621 355.824 86.7871 355.824 86.7871C355.824 86.7871 436.358 13.7436 436.488 13.5215Z" fill="#040828"/>
<path fill-rule="evenodd" clip-rule="evenodd" d="M196.924 261.933L230.361 283.037V330L196.924 261.933ZM234.308 329.822V282.992L267.83 261.71L234.308 329.822ZM230.317 278.194L196.057 256.557C195.84 256.423 195.58 256.334 195.363 256.289L219.129 204.484H230.317V278.194ZM269.305 256.245C269.002 256.245 268.654 256.379 268.35 256.557L234.308 278.194V204.484H246.017L269.305 256.245Z" fill="#040828"/>
<path fill-rule="evenodd" clip-rule="evenodd" d="M41.8868 116.6L72.2009 108.514C64.7849 118.866 59.7976 131.262 58.1497 144.902C53.119 187.378 82.6524 226.076 124.155 231.274C151.563 234.696 177.368 222.655 193.197 201.773L183.352 241.315C179.709 243.538 175.893 245.493 171.99 247.18L176.153 262.553C168.13 265.886 159.76 268.285 151.173 269.663L147.01 254.29C142.804 254.911 138.597 255.223 134.347 255.267L132.439 271.129C123.765 271.04 115.135 269.973 106.722 267.885L108.63 252.023C104.509 250.913 100.477 249.58 96.5739 247.936L88.8974 261.843C80.9177 258.377 73.3284 253.978 66.3462 248.78L74.0222 234.874C70.6396 232.252 67.4303 229.409 64.3947 226.387L52.0782 236.251C46.0067 229.942 40.6291 222.921 36.1189 215.324L48.3919 205.505C46.2236 201.773 44.3153 197.863 42.6674 193.864L27.6621 198.13C24.4096 189.91 22.0678 181.335 20.7234 172.537L35.7286 168.272C35.1214 163.962 34.8179 159.653 34.7745 155.299L19.2922 153.344C19.379 144.457 20.4198 135.616 22.458 126.996L37.9403 128.951C38.9811 124.73 40.2821 120.599 41.8868 116.6Z" fill="#040828"/>
<path fill-rule="evenodd" clip-rule="evenodd" d="M423.652 117.488L393.338 109.402C400.754 119.754 405.741 132.106 407.39 145.746C412.507 188.221 382.973 226.965 341.471 232.207C314.063 235.673 288.215 223.632 272.386 202.75L282.274 242.248C285.916 244.47 289.733 246.425 293.636 248.113L289.473 263.487C297.495 266.819 305.909 269.174 314.453 270.595L318.616 255.223C322.822 255.844 327.029 256.156 331.279 256.2L333.188 272.062C341.861 271.972 350.491 270.906 358.904 268.818L356.996 252.956C361.116 251.846 365.149 250.512 369.052 248.869L376.728 262.775C384.708 259.31 392.297 254.911 399.279 249.713L391.603 235.806C394.986 233.185 398.195 230.341 401.231 227.32L413.504 237.139C419.575 230.785 424.953 223.766 429.463 216.212L417.19 206.393C419.359 202.661 421.267 198.751 422.915 194.753L437.92 199.018C441.172 190.799 443.471 182.178 444.859 173.426L429.854 169.16C430.461 164.851 430.764 160.541 430.808 156.187L446.291 154.232C446.203 145.346 445.162 136.505 443.125 127.885L427.642 129.84C426.601 125.663 425.257 121.532 423.652 117.488Z" fill="#040828"/>
<path fill-rule="evenodd" clip-rule="evenodd" d="M114.918 141.437L150.436 168.806C145.752 174.582 138.423 177.869 130.617 176.892C118.431 175.381 109.714 163.963 111.231 151.478C111.665 147.746 112.966 144.325 114.918 141.437Z" fill="#040828"/>
<path fill-rule="evenodd" clip-rule="evenodd" d="M350.622 142.414L315.104 169.827C319.787 175.603 327.117 178.891 334.923 177.913C347.109 176.358 355.826 164.984 354.309 152.5C353.918 148.723 352.574 145.302 350.622 142.414Z" fill="#040828"/>
<path fill-rule="evenodd" clip-rule="evenodd" d="M148.139 186.889C153.04 184.534 157.377 181.069 160.759 176.759C160.759 176.759 164.229 180.446 164.185 180.891C162.928 199.196 149.137 214.436 132.44 218.168C130.228 218.123 128.017 217.99 125.762 217.679C115.05 216.346 105.292 212.303 97.0952 206.261C100.999 207.06 105.075 207.549 108.414 207.772C124.981 209.015 140.03 200.44 148.139 186.889ZM167.871 182.268L182.53 193.553C173.466 205.416 160.499 213.814 145.841 216.88C157.767 209.77 166.527 196.975 167.871 182.268ZM89.5928 199.863C83.2178 193.42 78.2305 185.6 75.0212 176.981C82.6539 184.178 93.2791 189.333 103.731 190.088C109.629 190.487 115.353 189.688 120.601 187.867C123.29 188.933 126.108 189.688 129.1 190.043C133.524 190.621 137.905 190.266 141.981 189.199C134.175 199.019 121.988 204.927 108.718 203.994C102.863 203.55 94.4934 202.484 89.5928 199.863ZM72.4192 168.228C70.9013 161.297 70.511 153.966 71.3784 146.502C71.4217 146.235 71.4651 145.924 71.4651 145.658C77.0596 158.765 88.8555 169.25 102.907 172.271C105.899 177.603 110.236 182.091 115.44 185.245C111.754 186.133 107.894 186.445 103.905 186.178C91.6744 185.334 79.1412 177.825 72.4192 168.228ZM72.9396 138.104C74.7176 131.173 77.5366 124.731 81.2662 118.999C81.8734 132.372 88.3352 144.369 98.266 152.144C97.9631 157.609 98.8737 162.941 100.739 167.739C87.2076 163.608 76.3656 151.878 72.9396 138.104ZM85.0392 118.377L104.641 133.484C101.779 137.616 99.7844 142.37 98.7864 147.613C90.6336 140.46 85.4295 129.973 85.0392 118.377Z" fill="#040828"/>
<path fill-rule="evenodd" clip-rule="evenodd" d="M304.826 177.781C304.826 177.781 301.79 180.801 301.79 181.113C302.961 198.441 315.538 214.347 331.064 219.189C333.969 219.234 336.875 219.1 339.824 218.701C349.278 217.501 357.995 214.213 365.541 209.281C362.939 209.903 360.337 210.303 357.865 210.481C340.605 211.725 324.948 202.351 317.099 187.777C317.143 187.777 308.166 182.001 304.826 177.781ZM298.19 182.934L283.055 194.62C292.076 206.438 305 214.791 319.528 217.901C308.122 210.303 299.665 197.152 298.19 182.934ZM322.954 189.998C330.673 200.929 343.553 207.682 357.648 206.66C363.459 206.261 370.268 204.395 375.082 201.728C381.371 195.642 386.358 188.266 389.74 180.091C382.541 187.11 372.956 191.998 362.636 192.754C355.74 193.243 349.104 192.042 343.12 189.51C340.995 190.221 338.826 190.71 336.528 191.02C331.844 191.598 327.247 191.199 322.954 189.998ZM348.324 187.289C352.748 188.666 357.517 189.244 362.375 188.888C374.909 187.999 386.314 180.313 392.862 170.405L392.906 170.361C394.554 163.474 395.075 156.232 394.337 148.811C388.743 162.496 376.556 172.849 361.594 175.337C361.551 175.337 361.464 175.337 361.421 175.337C358.125 180.357 353.615 184.49 348.324 187.289ZM363.893 170.894C378.421 167.25 389.566 155.477 392.862 140.814C392.906 140.725 392.906 140.547 392.906 140.415C391.301 133.394 388.613 126.953 384.969 121.088C384.536 134.994 377.771 147.434 367.319 155.299C367.405 160.853 366.148 166.14 363.893 170.894ZM381.24 118.776L360.944 134.461C364.153 139.126 366.365 144.591 367.102 150.634C376.036 142.991 381.543 131.439 381.24 118.776Z" fill="#040828"/>
<path fill-rule="evenodd" clip-rule="evenodd" d="M271.952 111.046L302.786 147.568L234.959 183.957V125.175C248.534 124.509 261.24 119.399 271.952 111.046ZM194.454 112.957C204.775 120.288 216.788 124.686 229.582 125.175V183.912L165.224 147.613L194.454 112.957ZM160.02 53.8202C160.02 53.909 160.02 53.9979 160.063 54.1311C163.533 76.924 174.548 96.6062 189.9 109.447L161.365 143.303L119.081 48.2664C119.038 48.2664 160.02 53.8202 160.02 53.8202ZM303.741 54.1311L348.756 48.1331L306.646 143.259L276.332 107.314C290.34 94.5183 300.357 75.8576 303.697 54.4422C303.741 54.3533 303.741 54.2645 303.741 54.1311ZM165.571 54.5755L188.816 57.73C190.16 84.5216 208.939 105.803 231.923 105.803C254.822 105.803 273.557 84.6548 274.988 57.9522L298.19 54.8421C291.858 91.3638 264.58 118.866 231.88 118.866C199.138 118.91 171.773 91.2749 165.571 54.5755ZM232.271 63.6837L194.237 58.4854C195.885 81.4558 212.148 99.4943 231.923 99.4943C251.656 99.4943 267.876 81.5447 269.61 58.6631L232.271 63.6837Z" stroke="#040828" stroke-width="2" mask="url(#path-1-inside-1_43_66)"/>
<path fill-rule="evenodd" clip-rule="evenodd" d="M110.972 45.6446L154.426 138.815L112.446 100.96C112.62 100.783 120.903 88.3866 120.903 88.3866C121.987 86.7427 121.727 84.3879 120.34 83.0994L52.2953 21.5189L110.972 45.6446ZM32.9533 13.5215L0.557617 0.192383L107.329 96.3837C107.416 96.1621 113.66 86.7871 113.66 86.7871C113.66 86.7871 33.1268 13.7436 32.9533 13.5215Z" stroke="#040828" stroke-width="2" mask="url(#path-1-inside-1_43_66)"/>
<path fill-rule="evenodd" clip-rule="evenodd" d="M358.514 45.6446L315.06 138.815L357.039 100.96C356.865 100.783 348.582 88.3866 348.582 88.3866C347.498 86.7427 347.758 84.3879 349.146 83.0994L417.146 21.4301L358.514 45.6446ZM436.488 13.5215L468.885 0.192383L362.156 96.3837C362.07 96.1621 355.824 86.7871 355.824 86.7871C355.824 86.7871 436.358 13.7436 436.488 13.5215Z" stroke="#040828" stroke-width="2" mask="url(#path-1-inside-1_43_66)"/>
<path fill-rule="evenodd" clip-rule="evenodd" d="M196.924 261.933L230.361 283.037V330L196.924 261.933ZM234.308 329.822V282.992L267.83 261.71L234.308 329.822ZM230.317 278.194L196.057 256.557C195.84 256.423 195.58 256.334 195.363 256.289L219.129 204.484H230.317V278.194ZM269.305 256.245C269.002 256.245 268.654 256.379 268.35 256.557L234.308 278.194V204.484H246.017L269.305 256.245Z" stroke="#040828" stroke-width="2" mask="url(#path-1-inside-1_43_66)"/>
<path fill-rule="evenodd" clip-rule="evenodd" d="M41.8868 116.6L72.2009 108.514C64.7849 118.866 59.7976 131.262 58.1497 144.902C53.119 187.378 82.6524 226.076 124.155 231.274C151.563 234.696 177.368 222.655 193.197 201.773L183.352 241.315C179.709 243.538 175.893 245.493 171.99 247.18L176.153 262.553C168.13 265.886 159.76 268.285 151.173 269.663L147.01 254.29C142.804 254.911 138.597 255.223 134.347 255.267L132.439 271.129C123.765 271.04 115.135 269.973 106.722 267.885L108.63 252.023C104.509 250.913 100.477 249.58 96.5739 247.936L88.8974 261.843C80.9177 258.377 73.3284 253.978 66.3462 248.78L74.0222 234.874C70.6396 232.252 67.4303 229.409 64.3947 226.387L52.0782 236.251C46.0067 229.942 40.6291 222.921 36.1189 215.324L48.3919 205.505C46.2236 201.773 44.3153 197.863 42.6674 193.864L27.6621 198.13C24.4096 189.91 22.0678 181.335 20.7234 172.537L35.7286 168.272C35.1214 163.962 34.8179 159.653 34.7745 155.299L19.2922 153.344C19.379 144.457 20.4198 135.616 22.458 126.996L37.9403 128.951C38.9811 124.73 40.2821 120.599 41.8868 116.6Z" stroke="#040828" stroke-width="2" mask="url(#path-1-inside-1_43_66)"/>
<path fill-rule="evenodd" clip-rule="evenodd" d="M423.652 117.488L393.338 109.402C400.754 119.754 405.741 132.106 407.39 145.746C412.507 188.221 382.973 226.965 341.471 232.207C314.063 235.673 288.215 223.632 272.386 202.75L282.274 242.248C285.916 244.47 289.733 246.425 293.636 248.113L289.473 263.487C297.495 266.819 305.909 269.174 314.453 270.595L318.616 255.223C322.822 255.844 327.029 256.156 331.279 256.2L333.188 272.062C341.861 271.972 350.491 270.906 358.904 268.818L356.996 252.956C361.116 251.846 365.149 250.512 369.052 248.869L376.728 262.775C384.708 259.31 392.297 254.911 399.279 249.713L391.603 235.806C394.986 233.185 398.195 230.341 401.231 227.32L413.504 237.139C419.575 230.785 424.953 223.766 429.463 216.212L417.19 206.393C419.359 202.661 421.267 198.751 422.915 194.753L437.92 199.018C441.172 190.799 443.471 182.178 444.859 173.426L429.854 169.16C430.461 164.851 430.764 160.541 430.808 156.187L446.291 154.232C446.203 145.346 445.162 136.505 443.125 127.885L427.642 129.84C426.601 125.663 425.257 121.532 423.652 117.488Z" stroke="#040828" stroke-width="2" mask="url(#path-1-inside-1_43_66)"/>
<path fill-rule="evenodd" clip-rule="evenodd" d="M114.918 141.437L150.436 168.806C145.752 174.582 138.423 177.869 130.617 176.892C118.431 175.381 109.714 163.963 111.231 151.478C111.665 147.746 112.966 144.325 114.918 141.437Z" stroke="#040828" stroke-width="2" mask="url(#path-1-inside-1_43_66)"/>
<path fill-rule="evenodd" clip-rule="evenodd" d="M350.622 142.414L315.104 169.827C319.787 175.603 327.117 178.891 334.923 177.913C347.109 176.358 355.826 164.984 354.309 152.5C353.918 148.723 352.574 145.302 350.622 142.414Z" stroke="#040828" stroke-width="2" mask="url(#path-1-inside-1_43_66)"/>
<path fill-rule="evenodd" clip-rule="evenodd" d="M148.139 186.889C153.04 184.534 157.377 181.069 160.759 176.759C160.759 176.759 164.229 180.446 164.185 180.891C162.928 199.196 149.137 214.436 132.44 218.168C130.228 218.123 128.017 217.99 125.762 217.679C115.05 216.346 105.292 212.303 97.0952 206.261C100.999 207.06 105.075 207.549 108.414 207.772C124.981 209.015 140.03 200.44 148.139 186.889ZM167.871 182.268L182.53 193.553C173.466 205.416 160.499 213.814 145.841 216.88C157.767 209.77 166.527 196.975 167.871 182.268ZM89.5928 199.863C83.2178 193.42 78.2305 185.6 75.0212 176.981C82.6539 184.178 93.2791 189.333 103.731 190.088C109.629 190.487 115.353 189.688 120.601 187.867C123.29 188.933 126.108 189.688 129.1 190.043C133.524 190.621 137.905 190.266 141.981 189.199C134.175 199.019 121.988 204.927 108.718 203.994C102.863 203.55 94.4934 202.484 89.5928 199.863ZM72.4192 168.228C70.9013 161.297 70.511 153.966 71.3784 146.502C71.4217 146.235 71.4651 145.924 71.4651 145.658C77.0596 158.765 88.8555 169.25 102.907 172.271C105.899 177.603 110.236 182.091 115.44 185.245C111.754 186.133 107.894 186.445 103.905 186.178C91.6744 185.334 79.1412 177.825 72.4192 168.228ZM72.9396 138.104C74.7176 131.173 77.5366 124.731 81.2662 118.999C81.8734 132.372 88.3352 144.369 98.266 152.144C97.9631 157.609 98.8737 162.941 100.739 167.739C87.2076 163.608 76.3656 151.878 72.9396 138.104ZM85.0392 118.377L104.641 133.484C101.779 137.616 99.7844 142.37 98.7864 147.613C90.6336 140.46 85.4295 129.973 85.0392 118.377Z" stroke="#040828" stroke-width="2" mask="url(#path-1-inside-1_43_66)"/>
<path fill-rule="evenodd" clip-rule="evenodd" d="M304.826 177.781C304.826 177.781 301.79 180.801 301.79 181.113C302.961 198.441 315.538 214.347 331.064 219.189C333.969 219.234 336.875 219.1 339.824 218.701C349.278 217.501 357.995 214.213 365.541 209.281C362.939 209.903 360.337 210.303 357.865 210.481C340.605 211.725 324.948 202.351 317.099 187.777C317.143 187.777 308.166 182.001 304.826 177.781ZM298.19 182.934L283.055 194.62C292.076 206.438 305 214.791 319.528 217.901C308.122 210.303 299.665 197.152 298.19 182.934ZM322.954 189.998C330.673 200.929 343.553 207.682 357.648 206.66C363.459 206.261 370.268 204.395 375.082 201.728C381.371 195.642 386.358 188.266 389.74 180.091C382.541 187.11 372.956 191.998 362.636 192.754C355.74 193.243 349.104 192.042 343.12 189.51C340.995 190.221 338.826 190.71 336.528 191.02C331.844 191.598 327.247 191.199 322.954 189.998ZM348.324 187.289C352.748 188.666 357.517 189.244 362.375 188.888C374.909 187.999 386.314 180.313 392.862 170.405L392.906 170.361C394.554 163.474 395.075 156.232 394.337 148.811C388.743 162.496 376.556 172.849 361.594 175.337C361.551 175.337 361.464 175.337 361.421 175.337C358.125 180.357 353.615 184.49 348.324 187.289ZM363.893 170.894C378.421 167.25 389.566 155.477 392.862 140.814C392.906 140.725 392.906 140.547 392.906 140.415C391.301 133.394 388.613 126.953 384.969 121.088C384.536 134.994 377.771 147.434 367.319 155.299C367.405 160.853 366.148 166.14 363.893 170.894ZM381.24 118.776L360.944 134.461C364.153 139.126 366.365 144.591 367.102 150.634C376.036 142.991 381.543 131.439 381.24 118.776Z" stroke="#040828" stroke-width="2" mask="url(#path-1-inside-1_43_66)"/>
</svg>
