<svg width="238" height="330" viewBox="0 0 238 330" fill="none" xmlns="http://www.w3.org/2000/svg">
<mask id="path-1-inside-1_51_93" fill="white">
<path fill-rule="evenodd" clip-rule="evenodd" d="M128.856 0.292909L136.488 1.86768C140.679 2.75176 145.813 3.88449 147.867 4.43704C149.92 4.98959 153.417 6.01181 155.637 6.75775C157.858 7.47607 161.271 8.71931 163.269 9.49288C165.24 10.2941 168.625 11.786 170.762 12.8082C172.899 13.8304 176.008 15.4328 177.701 16.3998C179.366 17.3667 182.696 19.4112 185.055 20.9859C187.414 22.5607 191.05 25.1853 193.103 26.843C195.157 28.473 198.876 31.8159 201.401 34.2472C203.899 36.6784 207.202 40.1318 208.756 41.9553C210.282 43.751 212.475 46.4309 213.612 47.8952C214.722 49.3594 217.054 52.6471 218.774 55.2441C220.495 57.8135 222.687 61.2945 223.659 62.9798C224.63 64.6375 226.184 67.6212 227.1 69.6104C228.044 71.572 229.542 75.0531 230.43 77.3461C231.291 79.6116 232.567 83.3413 233.206 85.6344C233.872 87.8999 234.732 91.3257 235.148 93.232C235.537 95.1383 236.12 98.2878 236.397 100.277C236.675 102.239 237.063 105.609 237.258 107.736C237.452 110.168 237.507 114.726 237.424 120.031C237.341 125.225 237.119 129.894 236.841 132.187C236.591 134.231 236.12 137.464 235.814 139.37C235.481 141.276 234.926 144.177 234.566 145.862C234.177 147.52 233.428 150.449 232.873 152.355C232.345 154.261 231.346 157.245 230.708 158.986C230.042 160.726 228.876 163.599 228.099 165.34C227.322 167.08 225.907 169.871 224.963 171.556C224.047 173.214 222.243 176.142 220.967 178.049C219.69 179.955 217.581 182.856 216.221 184.541C214.889 186.199 211.864 189.514 209.477 191.862C207.118 194.238 203.677 197.36 201.845 198.797C200.014 200.233 197.46 202.167 196.156 203.079C194.852 203.991 192.409 205.593 190.744 206.643C189.051 207.693 186.998 208.826 186.165 209.185C185.333 209.516 183.751 209.903 182.696 210.069C181.475 210.235 180.115 210.235 179.005 210.069C178.061 209.931 176.701 209.599 175.952 209.323C175.231 209.047 174.009 208.466 173.26 208.024C172.483 207.582 171.179 206.533 170.346 205.676C169.403 204.737 168.431 203.328 167.821 202.057C167.238 200.952 166.627 199.322 166.461 198.493C166.239 197.581 166.156 196.062 166.239 194.625C166.35 193.188 166.627 191.641 167.016 190.619C167.377 189.707 168.043 188.326 168.542 187.58C169.042 186.806 170.096 185.563 170.929 184.762C171.762 183.988 174.925 181.447 177.978 179.126C181.031 176.805 184.583 174.015 185.888 172.91C187.192 171.832 189.44 169.705 190.911 168.213C192.382 166.694 194.352 164.428 195.323 163.13C196.267 161.831 197.738 159.593 198.598 158.157C199.459 156.72 200.735 154.234 201.457 152.631C202.178 151.029 203.261 148.1 203.899 146.139C204.537 144.15 205.37 141.083 205.731 139.287C206.119 137.519 206.674 134.148 207.007 131.828C207.396 128.927 207.618 125.39 207.729 120.307C207.84 115.5 207.784 111.742 207.562 109.394C207.368 107.405 206.98 104.421 206.674 102.763C206.369 101.078 205.675 98.0392 205.148 95.9947C204.621 93.9503 203.538 90.5797 202.789 88.5353C202.012 86.4908 200.347 82.6783 199.07 80.1089C197.793 77.5119 195.906 74.1137 194.879 72.5113C193.88 70.9089 192.021 68.229 190.744 66.5714C189.495 64.8861 187.22 62.151 185.693 60.4933C184.167 58.8081 181.697 56.3216 180.171 54.9678C178.672 53.5864 176.479 51.7078 175.342 50.7961C174.204 49.8844 171.956 48.1714 170.346 47.0387C168.736 45.8784 166.128 44.1378 164.518 43.1709C162.908 42.1763 160.3 40.6844 158.69 39.8279C157.08 38.9991 154.028 37.5625 151.891 36.6508C149.754 35.7391 146.562 34.5511 144.814 33.9709C143.065 33.4183 140.373 32.6448 138.847 32.2856C137.321 31.9264 134.684 31.3739 133.019 31.0976C131.326 30.7937 128.412 30.4069 126.497 30.2412C124.332 30.0202 120.475 29.9649 116.229 30.0478C112.399 30.1307 107.903 30.3793 105.96 30.628C104.045 30.8766 100.687 31.4568 98.4671 31.8988C96.2469 32.3409 92.8888 33.1421 90.9739 33.6946C89.059 34.2748 86.1172 35.2141 84.4521 35.8496C82.7592 36.485 79.3456 38.0045 76.8201 39.2478C74.2946 40.5186 70.6035 42.6183 68.6331 43.9168C66.6349 45.2429 63.8319 47.2597 62.3888 48.4201C60.9457 49.5805 58.1982 52.0946 56.2832 54.0009C54.3683 55.9072 51.7041 58.8081 50.3719 60.4933C49.0121 62.151 47.1526 64.6375 46.2091 66.0188C45.2655 67.3726 43.6558 69.942 42.6012 71.6825C41.5744 73.423 39.9092 76.4621 38.9379 78.4512C37.9666 80.4128 36.4957 83.7834 35.6631 85.9107C34.8305 88.038 33.8314 90.8284 33.4429 92.1269C33.0266 93.4254 32.3883 95.7737 31.9998 97.3761C31.6112 98.9785 31.0562 101.714 30.7509 103.454C30.4456 105.195 30.0571 108.123 29.8906 109.947C29.6963 112.019 29.613 115.804 29.7241 120.031C29.8351 124.948 30.0293 127.849 30.4734 130.667C30.8064 132.795 31.6112 136.635 32.2495 139.232C32.9156 141.801 34.1089 145.669 34.9138 147.796C35.7186 149.924 37.1895 153.405 38.2163 155.532C39.2432 157.659 40.9638 160.892 42.0462 162.715C43.1285 164.539 44.9324 167.329 46.0425 168.931C47.1804 170.534 49.0953 173.076 50.3164 174.595C51.5098 176.115 54.8956 179.734 57.8096 182.635C60.6959 185.536 64.3315 188.934 65.8579 190.177C67.3842 191.448 69.993 193.492 71.6859 194.763C73.351 196.006 76.1818 197.996 77.9302 199.184C79.6786 200.344 82.4261 202.085 84.0358 203.024C85.6454 203.991 88.5594 205.648 90.5576 206.726C92.528 207.803 96.1081 209.572 98.4671 210.649C100.826 211.754 104.767 213.439 107.209 214.434C109.651 215.429 114.591 217.197 118.171 218.385C121.751 219.573 127.302 221.313 130.521 222.225C133.713 223.137 139.541 224.711 143.426 225.706C147.312 226.728 151.447 227.833 152.585 228.22C153.722 228.579 155.443 229.353 156.387 229.905C157.358 230.486 158.662 231.397 159.301 231.95C159.967 232.475 161.077 233.773 161.798 234.851C162.492 235.901 163.353 237.558 163.686 238.553C164.13 239.851 164.296 241.012 164.296 242.697C164.296 244.299 164.13 245.626 163.741 246.841C163.408 247.836 162.659 249.411 162.02 250.35C161.41 251.317 160.355 252.643 159.661 253.334C158.968 254.024 157.83 254.964 157.08 255.406C156.359 255.875 154.971 256.511 153.972 256.815C152.779 257.174 151.391 257.34 149.865 257.34C148.2 257.34 146.007 257.008 141.817 256.096C138.653 255.406 133.685 254.218 130.799 253.472C127.885 252.726 122.834 251.317 119.559 250.322C116.284 249.355 111.594 247.836 109.152 246.979C106.71 246.123 102.658 244.603 100.132 243.609C97.6068 242.614 93.8602 241.067 91.8065 240.155C89.7528 239.244 85.7564 237.365 82.9257 235.956C80.0949 234.547 75.8488 232.309 73.4898 230.955C71.1308 229.629 67.4953 227.474 65.4416 226.176C63.3879 224.905 60.2518 222.833 58.5034 221.617C56.755 220.402 53.8133 218.274 51.9816 216.893C50.1499 215.511 47.1526 213.136 45.321 211.616C43.4893 210.096 39.937 206.864 37.4393 204.433C34.9415 202.002 31.5557 198.521 29.9461 196.67C28.3364 194.846 25.8664 191.862 24.4788 190.039C23.0912 188.243 21.093 185.453 20.0107 183.85C18.9283 182.248 17.0966 179.264 15.9033 177.22C14.7099 175.175 13.017 171.998 12.1567 170.175C11.2964 168.351 9.93648 165.312 9.18717 163.406C8.4101 161.5 7.21673 158.212 6.52292 156.085C5.8291 153.957 4.83002 150.476 4.27496 148.349C3.74767 146.222 2.99835 142.934 2.60981 141.028C2.22128 139.121 1.66623 135.889 1.36095 133.844C1.05567 131.8 0.694885 128.678 0.52837 126.938C0.361854 125.197 0.139836 121.633 0.0565786 119.064C-0.0544316 116.329 0.00107262 112.295 0.19534 109.394C0.389608 106.659 0.722639 102.985 0.94466 101.244C1.16668 99.5034 1.72173 96.1881 2.19353 93.9227C2.63757 91.6296 3.49789 88.0104 4.10845 85.8278C4.71901 83.6728 5.80136 80.3299 6.49517 78.3684C7.18898 76.4344 8.27133 73.6717 8.88189 72.235C9.49244 70.7984 10.8801 67.8699 11.9347 65.7426C13.017 63.6152 14.4601 60.8801 15.154 59.6645C15.8478 58.4489 17.9292 55.1612 19.8164 52.3432C21.6758 49.5252 24.5066 45.6021 26.0885 43.6405C27.6704 41.6514 30.2791 38.6123 31.8887 36.8718C33.4984 35.1312 36.3014 32.3409 38.1331 30.6832C39.937 29.0256 42.629 26.7048 44.0721 25.5445C45.5152 24.3841 47.7632 22.6712 49.0676 21.7595C50.3719 20.8202 52.7864 19.1902 54.4793 18.1403C56.1445 17.0905 58.892 15.4881 60.5849 14.5764C62.25 13.6646 65.1363 12.228 66.968 11.3716C68.7996 10.5427 71.5471 9.35474 73.0735 8.74694C74.5999 8.13913 77.7082 7.03403 80.0117 6.26046C82.2874 5.51452 86.1727 4.38179 88.6149 3.77398C91.0572 3.13855 95.6086 2.14395 98.7446 1.50852C101.881 0.900715 104.489 0.320537 104.545 0.237654C104.628 0.182399 110.123 0.154771 128.856 0.292909ZM118.033 46.2928C119.864 46.2928 123.111 46.4033 125.248 46.5691C127.691 46.7348 129.356 47.0111 129.744 47.2597C130.105 47.4808 130.521 47.9781 130.688 48.4201C130.827 48.8345 131.409 50.6579 131.937 52.4813C132.464 54.3048 133.047 56.9294 133.213 58.2831C133.491 60.4105 133.463 61.1288 133.075 63.2008C132.825 64.527 132.353 66.2675 132.075 67.0687C131.604 68.3119 130.771 69.2789 125.803 74.169C122.64 77.2909 119.226 80.468 118.227 81.214C117.2 81.9876 115.479 83.065 114.425 83.6176C113.342 84.1701 110.817 85.1924 108.791 85.883C106.793 86.6014 104.212 87.596 103.102 88.1485C102.019 88.7011 100.188 89.8062 99.0499 90.5797C97.912 91.3533 95.9971 93.0662 94.7483 94.3647C93.4994 95.6632 91.8065 97.8458 90.9739 99.1995C90.1413 100.553 88.9757 102.846 88.3652 104.283C87.7824 105.72 86.922 108.344 86.478 110.085C86.0062 111.825 85.4512 113.649 85.2014 114.091C84.9794 114.56 81.7323 118.042 77.9857 121.826C74.2391 125.639 70.659 129.093 70.0485 129.507C69.4102 129.921 68.0226 130.529 66.968 130.861C65.2473 131.386 64.609 131.413 61.2787 131.275C59.225 131.192 56.5885 130.916 55.4506 130.667C54.3128 130.419 52.7587 129.949 52.0093 129.617C51.26 129.286 50.2609 128.568 49.7614 128.043C49.2896 127.518 48.6513 126.385 48.346 125.556C47.8742 124.23 47.8187 123.263 47.8187 117.682C47.8187 112.35 47.902 111.135 48.2905 110.085C48.5403 109.394 49.0398 108.565 49.4006 108.234C49.7614 107.902 50.7327 107.322 51.5653 106.963C52.3979 106.576 54.0908 105.996 55.3119 105.664C56.533 105.333 58.0039 104.808 58.5589 104.532C59.1417 104.255 59.8078 103.73 60.0298 103.399C60.2518 103.04 61.2232 100.719 62.1945 98.2049C63.1936 95.6908 64.6922 92.0992 65.5803 90.1929C66.4407 88.2866 67.2455 86.3803 67.301 85.9107C67.4398 85.2752 67.1345 84.474 65.9134 82.3191C65.053 80.7996 64.0539 78.8657 63.6654 78.0368C63.2769 77.208 62.9438 76.02 62.9438 75.4122C62.9438 74.6386 63.1936 73.8927 63.7764 73.0086C64.2205 72.2627 66.6904 69.5552 69.2437 66.9582C72.0189 64.1678 74.3501 62.0405 75.0162 61.7366C75.6268 61.4327 76.4871 61.184 76.9589 61.184C77.4029 61.184 78.3465 61.3774 79.0403 61.6261C79.7341 61.8471 81.538 62.814 83.0644 63.7258C85.0904 64.969 86.1727 65.4663 87.0885 65.5492C88.0876 65.6321 88.7537 65.4663 90.5576 64.6375C91.7787 64.0573 95.5253 62.5101 98.8834 61.1564C102.241 59.8026 105.266 58.5042 105.599 58.2831C106.016 58.0069 106.404 57.2885 106.682 56.2939C106.904 55.4099 107.514 53.3378 108.042 51.6525C108.819 49.1108 109.124 48.4754 109.957 47.7294C110.65 47.094 111.317 46.7901 112.121 46.6796C112.787 46.6243 113.62 46.5138 114.009 46.4585C114.397 46.3757 116.201 46.3204 118.033 46.2928ZM170.901 60.1618C171.206 60.2171 171.9 63.339 173.871 73.6164C175.286 80.993 176.396 87.2368 176.368 87.4855C176.341 87.817 174.87 86.9882 164.934 80.3023L164.324 81.1864C163.991 81.656 156.303 93.7845 147.256 108.096C138.209 122.434 130.521 134.48 130.16 134.839C129.827 135.198 129.383 135.502 129.189 135.502C129.023 135.53 128.495 135.171 128.051 134.756C127.607 134.342 124.471 130.446 121.058 126.109C117.644 121.771 114.591 117.931 114.286 117.544C113.786 116.936 113.648 116.909 113.315 117.268C113.12 117.489 107.181 126.578 100.104 137.436C93.0553 148.294 85.2291 160.256 82.7314 164.041C78.6795 170.147 78.069 170.948 76.8756 171.611C76.1541 172.026 75.0995 172.357 74.5444 172.357C73.8506 172.385 73.1568 172.136 72.3242 171.556C71.6026 171.059 70.8811 170.23 70.5203 169.484C70.104 168.628 69.9375 167.964 70.0485 167.412C70.1595 166.97 70.437 166.086 70.6868 165.478C70.9643 164.87 80.2614 150.835 91.3624 134.259C102.491 117.71 111.983 103.73 112.454 103.233C112.926 102.736 113.537 102.349 113.786 102.349C114.064 102.349 114.619 102.708 115.035 103.123C115.479 103.565 118.56 107.405 128.024 119.423L128.606 118.566C128.912 118.069 135.35 108.123 156.609 75.1912L155.915 74.6663C155.526 74.3624 153.14 72.5942 150.559 70.7432C148.005 68.9197 146.007 67.345 146.09 67.2621C146.174 67.1792 151.696 65.5492 158.385 63.6152C165.045 61.7089 170.679 60.1618 170.901 60.1618ZM177.423 104.67C181.697 104.78 182.002 104.836 185.471 105.913C187.442 106.521 189.384 107.239 189.745 107.515C190.106 107.792 190.633 108.317 190.911 108.703C191.216 109.09 191.577 110.278 191.743 111.328C191.938 112.461 191.993 115.776 191.938 119.34C191.854 124.976 191.799 125.501 191.216 126.606C190.883 127.241 190.134 128.07 189.551 128.429C188.996 128.816 187.025 129.562 185.194 130.115C183.362 130.667 181.614 131.247 181.308 131.413C181.003 131.579 180.476 131.966 180.115 132.297C179.754 132.601 179.033 134.065 178.478 135.502C177.923 136.939 176.424 140.53 175.147 143.459C173.149 148.073 172.844 148.984 172.844 150.366C172.844 151.802 173.01 152.272 174.787 155.532C175.869 157.521 176.84 159.51 176.979 159.953C177.09 160.422 177.118 161.058 177.035 161.417C176.951 161.748 176.313 162.715 175.619 163.599C174.925 164.456 172.067 167.329 169.236 169.981C166.405 172.634 163.797 174.927 163.408 175.065C163.019 175.203 162.464 175.258 162.159 175.175C161.854 175.092 160.91 174.512 160.078 173.877C159.245 173.241 157.913 172.44 157.164 172.081C156.387 171.722 155.027 171.28 154.111 171.114C152.862 170.893 151.946 170.893 150.503 171.142C149.254 171.335 147.867 171.832 146.618 172.495C145.535 173.076 143.87 173.987 142.871 174.54C141.844 175.092 139.818 175.838 138.153 176.253C136.544 176.667 134.962 177.164 134.601 177.385C134.268 177.607 133.741 178.297 133.463 178.96C133.158 179.596 132.464 181.557 131.909 183.298C131.354 185.038 130.66 186.806 130.355 187.249C130.077 187.663 129.356 188.243 128.773 188.519C128.218 188.823 126.775 189.182 125.581 189.348C124.416 189.514 121.474 189.652 119.059 189.652C116.673 189.652 113.759 189.514 112.621 189.376C110.956 189.155 110.373 188.934 109.762 188.326C109.207 187.801 108.736 186.751 108.125 184.817C107.653 183.298 107.043 180.949 106.765 179.568C106.488 178.214 106.238 176.032 106.238 174.733C106.238 173.241 106.432 171.584 106.793 170.175C107.098 168.959 107.653 167.467 108.014 166.859C108.402 166.252 111.539 162.936 115.035 159.51C119.337 155.256 121.751 153.101 122.612 152.686C123.306 152.383 125.11 151.83 126.636 151.498C128.162 151.195 130.271 150.614 131.354 150.228C132.408 149.841 134.157 149.095 135.239 148.57C136.294 148.017 137.987 147.078 138.986 146.443C139.985 145.807 141.65 144.536 142.732 143.625C143.787 142.685 145.452 140.972 146.396 139.757C147.367 138.569 148.588 136.828 149.143 135.917C149.698 135.005 150.503 133.513 150.919 132.601C151.363 131.69 151.974 130.142 152.307 129.148C152.64 128.153 153.14 126.164 153.445 124.727C153.75 123.291 154.25 121.55 154.555 120.86C154.943 119.975 156.359 118.373 159.467 115.334C161.854 112.986 164.657 110.112 165.656 108.98C166.794 107.681 168.043 106.604 168.986 106.106C169.819 105.664 171.04 105.139 171.734 104.946C172.594 104.697 174.343 104.615 177.423 104.67ZM89.4475 252.201C91.2237 252.311 93.0276 252.753 98.4671 254.439C102.214 255.599 112.26 258.776 120.808 261.511C129.356 264.246 139.541 267.534 143.426 268.833C148.56 270.518 150.947 271.457 152.168 272.231C153.084 272.811 154.555 274.054 155.415 274.994C156.303 275.933 157.386 277.452 157.83 278.419C158.274 279.359 158.773 280.685 158.94 281.376C159.106 282.066 159.245 283.503 159.245 284.553C159.245 285.63 159.051 287.233 158.801 288.144C158.579 289.056 157.941 290.603 157.441 291.598C156.914 292.592 155.887 294.029 155.166 294.803C154.416 295.576 153.14 296.654 152.307 297.179C151.474 297.703 150.059 298.422 149.171 298.753C148.311 299.057 146.868 299.416 145.979 299.499C144.953 299.61 143.62 299.527 142.177 299.223C140.956 298.974 132.408 296.322 123.167 293.366C113.925 290.382 101.326 286.293 95.1368 284.249C87.2551 281.68 83.3697 280.243 82.1208 279.525C81.1495 278.944 79.6231 277.701 78.735 276.762C77.8192 275.795 76.7924 274.441 76.4316 273.723C76.0708 272.977 75.5435 271.706 75.266 270.877C74.9052 269.827 74.7664 268.612 74.7664 266.871C74.7942 265.048 74.9607 263.915 75.4047 262.589C75.7655 261.594 76.6258 259.937 77.3196 258.887C78.0412 257.837 79.2623 256.4 80.0394 255.71C80.8442 255.019 82.0931 254.107 82.8147 253.693C83.564 253.278 84.8683 252.753 85.7009 252.532C86.7278 252.228 87.9489 252.118 89.4475 252.201ZM82.8979 291.929C83.453 292.012 96.6909 296.212 112.343 301.267C127.996 306.323 141.262 310.688 141.817 310.965C142.705 311.407 142.871 311.628 142.871 312.401C142.871 313.009 142.455 313.948 141.511 315.357C140.762 316.49 139.236 318.424 138.125 319.612C136.988 320.8 135.128 322.485 133.99 323.342C132.852 324.226 130.605 325.58 128.995 326.381C127.385 327.182 125.082 328.121 123.861 328.481C122.64 328.867 120.503 329.337 119.143 329.586C117.755 329.807 115.341 330 113.731 330C112.121 330 109.679 329.807 108.319 329.586C106.932 329.337 104.684 328.757 103.324 328.315C101.936 327.845 99.827 326.961 98.6059 326.326C97.3847 325.69 95.4421 324.475 94.3042 323.618C93.1664 322.762 91.2792 321.104 90.1413 319.888C88.9757 318.7 87.3938 316.766 86.6168 315.634C85.8674 314.501 84.8406 312.816 84.3688 311.904C83.9248 310.992 83.1754 309.197 82.7037 307.898C82.2596 306.6 81.649 304.5 81.3715 303.201C81.0662 301.654 80.872 299.582 80.872 297.123C80.8442 293.863 80.8997 293.255 81.3715 292.592C81.8156 291.929 82.0376 291.819 82.8979 291.929Z"/>
</mask>
<path fill-rule="evenodd" clip-rule="evenodd" d="M128.856 0.292909L136.488 1.86768C140.679 2.75176 145.813 3.88449 147.867 4.43704C149.92 4.98959 153.417 6.01181 155.637 6.75775C157.858 7.47607 161.271 8.71931 163.269 9.49288C165.24 10.2941 168.625 11.786 170.762 12.8082C172.899 13.8304 176.008 15.4328 177.701 16.3998C179.366 17.3667 182.696 19.4112 185.055 20.9859C187.414 22.5607 191.05 25.1853 193.103 26.843C195.157 28.473 198.876 31.8159 201.401 34.2472C203.899 36.6784 207.202 40.1318 208.756 41.9553C210.282 43.751 212.475 46.4309 213.612 47.8952C214.722 49.3594 217.054 52.6471 218.774 55.2441C220.495 57.8135 222.687 61.2945 223.659 62.9798C224.63 64.6375 226.184 67.6212 227.1 69.6104C228.044 71.572 229.542 75.0531 230.43 77.3461C231.291 79.6116 232.567 83.3413 233.206 85.6344C233.872 87.8999 234.732 91.3257 235.148 93.232C235.537 95.1383 236.12 98.2878 236.397 100.277C236.675 102.239 237.063 105.609 237.258 107.736C237.452 110.168 237.507 114.726 237.424 120.031C237.341 125.225 237.119 129.894 236.841 132.187C236.591 134.231 236.12 137.464 235.814 139.37C235.481 141.276 234.926 144.177 234.566 145.862C234.177 147.52 233.428 150.449 232.873 152.355C232.345 154.261 231.346 157.245 230.708 158.986C230.042 160.726 228.876 163.599 228.099 165.34C227.322 167.08 225.907 169.871 224.963 171.556C224.047 173.214 222.243 176.142 220.967 178.049C219.69 179.955 217.581 182.856 216.221 184.541C214.889 186.199 211.864 189.514 209.477 191.862C207.118 194.238 203.677 197.36 201.845 198.797C200.014 200.233 197.46 202.167 196.156 203.079C194.852 203.991 192.409 205.593 190.744 206.643C189.051 207.693 186.998 208.826 186.165 209.185C185.333 209.516 183.751 209.903 182.696 210.069C181.475 210.235 180.115 210.235 179.005 210.069C178.061 209.931 176.701 209.599 175.952 209.323C175.231 209.047 174.009 208.466 173.26 208.024C172.483 207.582 171.179 206.533 170.346 205.676C169.403 204.737 168.431 203.328 167.821 202.057C167.238 200.952 166.627 199.322 166.461 198.493C166.239 197.581 166.156 196.062 166.239 194.625C166.35 193.188 166.627 191.641 167.016 190.619C167.377 189.707 168.043 188.326 168.542 187.58C169.042 186.806 170.096 185.563 170.929 184.762C171.762 183.988 174.925 181.447 177.978 179.126C181.031 176.805 184.583 174.015 185.888 172.91C187.192 171.832 189.44 169.705 190.911 168.213C192.382 166.694 194.352 164.428 195.323 163.13C196.267 161.831 197.738 159.593 198.598 158.157C199.459 156.72 200.735 154.234 201.457 152.631C202.178 151.029 203.261 148.1 203.899 146.139C204.537 144.15 205.37 141.083 205.731 139.287C206.119 137.519 206.674 134.148 207.007 131.828C207.396 128.927 207.618 125.39 207.729 120.307C207.84 115.5 207.784 111.742 207.562 109.394C207.368 107.405 206.98 104.421 206.674 102.763C206.369 101.078 205.675 98.0392 205.148 95.9947C204.621 93.9503 203.538 90.5797 202.789 88.5353C202.012 86.4908 200.347 82.6783 199.07 80.1089C197.793 77.5119 195.906 74.1137 194.879 72.5113C193.88 70.9089 192.021 68.229 190.744 66.5714C189.495 64.8861 187.22 62.151 185.693 60.4933C184.167 58.8081 181.697 56.3216 180.171 54.9678C178.672 53.5864 176.479 51.7078 175.342 50.7961C174.204 49.8844 171.956 48.1714 170.346 47.0387C168.736 45.8784 166.128 44.1378 164.518 43.1709C162.908 42.1763 160.3 40.6844 158.69 39.8279C157.08 38.9991 154.028 37.5625 151.891 36.6508C149.754 35.7391 146.562 34.5511 144.814 33.9709C143.065 33.4183 140.373 32.6448 138.847 32.2856C137.321 31.9264 134.684 31.3739 133.019 31.0976C131.326 30.7937 128.412 30.4069 126.497 30.2412C124.332 30.0202 120.475 29.9649 116.229 30.0478C112.399 30.1307 107.903 30.3793 105.96 30.628C104.045 30.8766 100.687 31.4568 98.4671 31.8988C96.2469 32.3409 92.8888 33.1421 90.9739 33.6946C89.059 34.2748 86.1172 35.2141 84.4521 35.8496C82.7592 36.485 79.3456 38.0045 76.8201 39.2478C74.2946 40.5186 70.6035 42.6183 68.6331 43.9168C66.6349 45.2429 63.8319 47.2597 62.3888 48.4201C60.9457 49.5805 58.1982 52.0946 56.2832 54.0009C54.3683 55.9072 51.7041 58.8081 50.3719 60.4933C49.0121 62.151 47.1526 64.6375 46.2091 66.0188C45.2655 67.3726 43.6558 69.942 42.6012 71.6825C41.5744 73.423 39.9092 76.4621 38.9379 78.4512C37.9666 80.4128 36.4957 83.7834 35.6631 85.9107C34.8305 88.038 33.8314 90.8284 33.4429 92.1269C33.0266 93.4254 32.3883 95.7737 31.9998 97.3761C31.6112 98.9785 31.0562 101.714 30.7509 103.454C30.4456 105.195 30.0571 108.123 29.8906 109.947C29.6963 112.019 29.613 115.804 29.7241 120.031C29.8351 124.948 30.0293 127.849 30.4734 130.667C30.8064 132.795 31.6112 136.635 32.2495 139.232C32.9156 141.801 34.1089 145.669 34.9138 147.796C35.7186 149.924 37.1895 153.405 38.2163 155.532C39.2432 157.659 40.9638 160.892 42.0462 162.715C43.1285 164.539 44.9324 167.329 46.0425 168.931C47.1804 170.534 49.0953 173.076 50.3164 174.595C51.5098 176.115 54.8956 179.734 57.8096 182.635C60.6959 185.536 64.3315 188.934 65.8579 190.177C67.3842 191.448 69.993 193.492 71.6859 194.763C73.351 196.006 76.1818 197.996 77.9302 199.184C79.6786 200.344 82.4261 202.085 84.0358 203.024C85.6454 203.991 88.5594 205.648 90.5576 206.726C92.528 207.803 96.1081 209.572 98.4671 210.649C100.826 211.754 104.767 213.439 107.209 214.434C109.651 215.429 114.591 217.197 118.171 218.385C121.751 219.573 127.302 221.313 130.521 222.225C133.713 223.137 139.541 224.711 143.426 225.706C147.312 226.728 151.447 227.833 152.585 228.22C153.722 228.579 155.443 229.353 156.387 229.905C157.358 230.486 158.662 231.397 159.301 231.95C159.967 232.475 161.077 233.773 161.798 234.851C162.492 235.901 163.353 237.558 163.686 238.553C164.13 239.851 164.296 241.012 164.296 242.697C164.296 244.299 164.13 245.626 163.741 246.841C163.408 247.836 162.659 249.411 162.02 250.35C161.41 251.317 160.355 252.643 159.661 253.334C158.968 254.024 157.83 254.964 157.08 255.406C156.359 255.875 154.971 256.511 153.972 256.815C152.779 257.174 151.391 257.34 149.865 257.34C148.2 257.34 146.007 257.008 141.817 256.096C138.653 255.406 133.685 254.218 130.799 253.472C127.885 252.726 122.834 251.317 119.559 250.322C116.284 249.355 111.594 247.836 109.152 246.979C106.71 246.123 102.658 244.603 100.132 243.609C97.6068 242.614 93.8602 241.067 91.8065 240.155C89.7528 239.244 85.7564 237.365 82.9257 235.956C80.0949 234.547 75.8488 232.309 73.4898 230.955C71.1308 229.629 67.4953 227.474 65.4416 226.176C63.3879 224.905 60.2518 222.833 58.5034 221.617C56.755 220.402 53.8133 218.274 51.9816 216.893C50.1499 215.511 47.1526 213.136 45.321 211.616C43.4893 210.096 39.937 206.864 37.4393 204.433C34.9415 202.002 31.5557 198.521 29.9461 196.67C28.3364 194.846 25.8664 191.862 24.4788 190.039C23.0912 188.243 21.093 185.453 20.0107 183.85C18.9283 182.248 17.0966 179.264 15.9033 177.22C14.7099 175.175 13.017 171.998 12.1567 170.175C11.2964 168.351 9.93648 165.312 9.18717 163.406C8.4101 161.5 7.21673 158.212 6.52292 156.085C5.8291 153.957 4.83002 150.476 4.27496 148.349C3.74767 146.222 2.99835 142.934 2.60981 141.028C2.22128 139.121 1.66623 135.889 1.36095 133.844C1.05567 131.8 0.694885 128.678 0.52837 126.938C0.361854 125.197 0.139836 121.633 0.0565786 119.064C-0.0544316 116.329 0.00107262 112.295 0.19534 109.394C0.389608 106.659 0.722639 102.985 0.94466 101.244C1.16668 99.5034 1.72173 96.1881 2.19353 93.9227C2.63757 91.6296 3.49789 88.0104 4.10845 85.8278C4.71901 83.6728 5.80136 80.3299 6.49517 78.3684C7.18898 76.4344 8.27133 73.6717 8.88189 72.235C9.49244 70.7984 10.8801 67.8699 11.9347 65.7426C13.017 63.6152 14.4601 60.8801 15.154 59.6645C15.8478 58.4489 17.9292 55.1612 19.8164 52.3432C21.6758 49.5252 24.5066 45.6021 26.0885 43.6405C27.6704 41.6514 30.2791 38.6123 31.8887 36.8718C33.4984 35.1312 36.3014 32.3409 38.1331 30.6832C39.937 29.0256 42.629 26.7048 44.0721 25.5445C45.5152 24.3841 47.7632 22.6712 49.0676 21.7595C50.3719 20.8202 52.7864 19.1902 54.4793 18.1403C56.1445 17.0905 58.892 15.4881 60.5849 14.5764C62.25 13.6646 65.1363 12.228 66.968 11.3716C68.7996 10.5427 71.5471 9.35474 73.0735 8.74694C74.5999 8.13913 77.7082 7.03403 80.0117 6.26046C82.2874 5.51452 86.1727 4.38179 88.6149 3.77398C91.0572 3.13855 95.6086 2.14395 98.7446 1.50852C101.881 0.900715 104.489 0.320537 104.545 0.237654C104.628 0.182399 110.123 0.154771 128.856 0.292909ZM118.033 46.2928C119.864 46.2928 123.111 46.4033 125.248 46.5691C127.691 46.7348 129.356 47.0111 129.744 47.2597C130.105 47.4808 130.521 47.9781 130.688 48.4201C130.827 48.8345 131.409 50.6579 131.937 52.4813C132.464 54.3048 133.047 56.9294 133.213 58.2831C133.491 60.4105 133.463 61.1288 133.075 63.2008C132.825 64.527 132.353 66.2675 132.075 67.0687C131.604 68.3119 130.771 69.2789 125.803 74.169C122.64 77.2909 119.226 80.468 118.227 81.214C117.2 81.9876 115.479 83.065 114.425 83.6176C113.342 84.1701 110.817 85.1924 108.791 85.883C106.793 86.6014 104.212 87.596 103.102 88.1485C102.019 88.7011 100.188 89.8062 99.0499 90.5797C97.912 91.3533 95.9971 93.0662 94.7483 94.3647C93.4994 95.6632 91.8065 97.8458 90.9739 99.1995C90.1413 100.553 88.9757 102.846 88.3652 104.283C87.7824 105.72 86.922 108.344 86.478 110.085C86.0062 111.825 85.4512 113.649 85.2014 114.091C84.9794 114.56 81.7323 118.042 77.9857 121.826C74.2391 125.639 70.659 129.093 70.0485 129.507C69.4102 129.921 68.0226 130.529 66.968 130.861C65.2473 131.386 64.609 131.413 61.2787 131.275C59.225 131.192 56.5885 130.916 55.4506 130.667C54.3128 130.419 52.7587 129.949 52.0093 129.617C51.26 129.286 50.2609 128.568 49.7614 128.043C49.2896 127.518 48.6513 126.385 48.346 125.556C47.8742 124.23 47.8187 123.263 47.8187 117.682C47.8187 112.35 47.902 111.135 48.2905 110.085C48.5403 109.394 49.0398 108.565 49.4006 108.234C49.7614 107.902 50.7327 107.322 51.5653 106.963C52.3979 106.576 54.0908 105.996 55.3119 105.664C56.533 105.333 58.0039 104.808 58.5589 104.532C59.1417 104.255 59.8078 103.73 60.0298 103.399C60.2518 103.04 61.2232 100.719 62.1945 98.2049C63.1936 95.6908 64.6922 92.0992 65.5803 90.1929C66.4407 88.2866 67.2455 86.3803 67.301 85.9107C67.4398 85.2752 67.1345 84.474 65.9134 82.3191C65.053 80.7996 64.0539 78.8657 63.6654 78.0368C63.2769 77.208 62.9438 76.02 62.9438 75.4122C62.9438 74.6386 63.1936 73.8927 63.7764 73.0086C64.2205 72.2627 66.6904 69.5552 69.2437 66.9582C72.0189 64.1678 74.3501 62.0405 75.0162 61.7366C75.6268 61.4327 76.4871 61.184 76.9589 61.184C77.4029 61.184 78.3465 61.3774 79.0403 61.6261C79.7341 61.8471 81.538 62.814 83.0644 63.7258C85.0904 64.969 86.1727 65.4663 87.0885 65.5492C88.0876 65.6321 88.7537 65.4663 90.5576 64.6375C91.7787 64.0573 95.5253 62.5101 98.8834 61.1564C102.241 59.8026 105.266 58.5042 105.599 58.2831C106.016 58.0069 106.404 57.2885 106.682 56.2939C106.904 55.4099 107.514 53.3378 108.042 51.6525C108.819 49.1108 109.124 48.4754 109.957 47.7294C110.65 47.094 111.317 46.7901 112.121 46.6796C112.787 46.6243 113.62 46.5138 114.009 46.4585C114.397 46.3757 116.201 46.3204 118.033 46.2928ZM170.901 60.1618C171.206 60.2171 171.9 63.339 173.871 73.6164C175.286 80.993 176.396 87.2368 176.368 87.4855C176.341 87.817 174.87 86.9882 164.934 80.3023L164.324 81.1864C163.991 81.656 156.303 93.7845 147.256 108.096C138.209 122.434 130.521 134.48 130.16 134.839C129.827 135.198 129.383 135.502 129.189 135.502C129.023 135.53 128.495 135.171 128.051 134.756C127.607 134.342 124.471 130.446 121.058 126.109C117.644 121.771 114.591 117.931 114.286 117.544C113.786 116.936 113.648 116.909 113.315 117.268C113.12 117.489 107.181 126.578 100.104 137.436C93.0553 148.294 85.2291 160.256 82.7314 164.041C78.6795 170.147 78.069 170.948 76.8756 171.611C76.1541 172.026 75.0995 172.357 74.5444 172.357C73.8506 172.385 73.1568 172.136 72.3242 171.556C71.6026 171.059 70.8811 170.23 70.5203 169.484C70.104 168.628 69.9375 167.964 70.0485 167.412C70.1595 166.97 70.437 166.086 70.6868 165.478C70.9643 164.87 80.2614 150.835 91.3624 134.259C102.491 117.71 111.983 103.73 112.454 103.233C112.926 102.736 113.537 102.349 113.786 102.349C114.064 102.349 114.619 102.708 115.035 103.123C115.479 103.565 118.56 107.405 128.024 119.423L128.606 118.566C128.912 118.069 135.35 108.123 156.609 75.1912L155.915 74.6663C155.526 74.3624 153.14 72.5942 150.559 70.7432C148.005 68.9197 146.007 67.345 146.09 67.2621C146.174 67.1792 151.696 65.5492 158.385 63.6152C165.045 61.7089 170.679 60.1618 170.901 60.1618ZM177.423 104.67C181.697 104.78 182.002 104.836 185.471 105.913C187.442 106.521 189.384 107.239 189.745 107.515C190.106 107.792 190.633 108.317 190.911 108.703C191.216 109.09 191.577 110.278 191.743 111.328C191.938 112.461 191.993 115.776 191.938 119.34C191.854 124.976 191.799 125.501 191.216 126.606C190.883 127.241 190.134 128.07 189.551 128.429C188.996 128.816 187.025 129.562 185.194 130.115C183.362 130.667 181.614 131.247 181.308 131.413C181.003 131.579 180.476 131.966 180.115 132.297C179.754 132.601 179.033 134.065 178.478 135.502C177.923 136.939 176.424 140.53 175.147 143.459C173.149 148.073 172.844 148.984 172.844 150.366C172.844 151.802 173.01 152.272 174.787 155.532C175.869 157.521 176.84 159.51 176.979 159.953C177.09 160.422 177.118 161.058 177.035 161.417C176.951 161.748 176.313 162.715 175.619 163.599C174.925 164.456 172.067 167.329 169.236 169.981C166.405 172.634 163.797 174.927 163.408 175.065C163.019 175.203 162.464 175.258 162.159 175.175C161.854 175.092 160.91 174.512 160.078 173.877C159.245 173.241 157.913 172.44 157.164 172.081C156.387 171.722 155.027 171.28 154.111 171.114C152.862 170.893 151.946 170.893 150.503 171.142C149.254 171.335 147.867 171.832 146.618 172.495C145.535 173.076 143.87 173.987 142.871 174.54C141.844 175.092 139.818 175.838 138.153 176.253C136.544 176.667 134.962 177.164 134.601 177.385C134.268 177.607 133.741 178.297 133.463 178.96C133.158 179.596 132.464 181.557 131.909 183.298C131.354 185.038 130.66 186.806 130.355 187.249C130.077 187.663 129.356 188.243 128.773 188.519C128.218 188.823 126.775 189.182 125.581 189.348C124.416 189.514 121.474 189.652 119.059 189.652C116.673 189.652 113.759 189.514 112.621 189.376C110.956 189.155 110.373 188.934 109.762 188.326C109.207 187.801 108.736 186.751 108.125 184.817C107.653 183.298 107.043 180.949 106.765 179.568C106.488 178.214 106.238 176.032 106.238 174.733C106.238 173.241 106.432 171.584 106.793 170.175C107.098 168.959 107.653 167.467 108.014 166.859C108.402 166.252 111.539 162.936 115.035 159.51C119.337 155.256 121.751 153.101 122.612 152.686C123.306 152.383 125.11 151.83 126.636 151.498C128.162 151.195 130.271 150.614 131.354 150.228C132.408 149.841 134.157 149.095 135.239 148.57C136.294 148.017 137.987 147.078 138.986 146.443C139.985 145.807 141.65 144.536 142.732 143.625C143.787 142.685 145.452 140.972 146.396 139.757C147.367 138.569 148.588 136.828 149.143 135.917C149.698 135.005 150.503 133.513 150.919 132.601C151.363 131.69 151.974 130.142 152.307 129.148C152.64 128.153 153.14 126.164 153.445 124.727C153.75 123.291 154.25 121.55 154.555 120.86C154.943 119.975 156.359 118.373 159.467 115.334C161.854 112.986 164.657 110.112 165.656 108.98C166.794 107.681 168.043 106.604 168.986 106.106C169.819 105.664 171.04 105.139 171.734 104.946C172.594 104.697 174.343 104.615 177.423 104.67ZM89.4475 252.201C91.2237 252.311 93.0276 252.753 98.4671 254.439C102.214 255.599 112.26 258.776 120.808 261.511C129.356 264.246 139.541 267.534 143.426 268.833C148.56 270.518 150.947 271.457 152.168 272.231C153.084 272.811 154.555 274.054 155.415 274.994C156.303 275.933 157.386 277.452 157.83 278.419C158.274 279.359 158.773 280.685 158.94 281.376C159.106 282.066 159.245 283.503 159.245 284.553C159.245 285.63 159.051 287.233 158.801 288.144C158.579 289.056 157.941 290.603 157.441 291.598C156.914 292.592 155.887 294.029 155.166 294.803C154.416 295.576 153.14 296.654 152.307 297.179C151.474 297.703 150.059 298.422 149.171 298.753C148.311 299.057 146.868 299.416 145.979 299.499C144.953 299.61 143.62 299.527 142.177 299.223C140.956 298.974 132.408 296.322 123.167 293.366C113.925 290.382 101.326 286.293 95.1368 284.249C87.2551 281.68 83.3697 280.243 82.1208 279.525C81.1495 278.944 79.6231 277.701 78.735 276.762C77.8192 275.795 76.7924 274.441 76.4316 273.723C76.0708 272.977 75.5435 271.706 75.266 270.877C74.9052 269.827 74.7664 268.612 74.7664 266.871C74.7942 265.048 74.9607 263.915 75.4047 262.589C75.7655 261.594 76.6258 259.937 77.3196 258.887C78.0412 257.837 79.2623 256.4 80.0394 255.71C80.8442 255.019 82.0931 254.107 82.8147 253.693C83.564 253.278 84.8683 252.753 85.7009 252.532C86.7278 252.228 87.9489 252.118 89.4475 252.201ZM82.8979 291.929C83.453 292.012 96.6909 296.212 112.343 301.267C127.996 306.323 141.262 310.688 141.817 310.965C142.705 311.407 142.871 311.628 142.871 312.401C142.871 313.009 142.455 313.948 141.511 315.357C140.762 316.49 139.236 318.424 138.125 319.612C136.988 320.8 135.128 322.485 133.99 323.342C132.852 324.226 130.605 325.58 128.995 326.381C127.385 327.182 125.082 328.121 123.861 328.481C122.64 328.867 120.503 329.337 119.143 329.586C117.755 329.807 115.341 330 113.731 330C112.121 330 109.679 329.807 108.319 329.586C106.932 329.337 104.684 328.757 103.324 328.315C101.936 327.845 99.827 326.961 98.6059 326.326C97.3847 325.69 95.4421 324.475 94.3042 323.618C93.1664 322.762 91.2792 321.104 90.1413 319.888C88.9757 318.7 87.3938 316.766 86.6168 315.634C85.8674 314.501 84.8406 312.816 84.3688 311.904C83.9248 310.992 83.1754 309.197 82.7037 307.898C82.2596 306.6 81.649 304.5 81.3715 303.201C81.0662 301.654 80.872 299.582 80.872 297.123C80.8442 293.863 80.8997 293.255 81.3715 292.592C81.8156 291.929 82.0376 291.819 82.8979 291.929Z" fill="#F0F2FF" stroke="#F0F2FF" stroke-width="2" mask="url(#path-1-inside-1_51_93)"/>
</svg>
