<svg width="225" height="331" viewBox="0 0 225 331" fill="none" xmlns="http://www.w3.org/2000/svg">
<mask id="path-1-inside-1_34_8" fill="white">
<path fill-rule="evenodd" clip-rule="evenodd" d="M92.4937 0.616603L92.4749 0.618475C92.2676 0.657802 92.0602 0.747693 91.8719 0.890019L91.8341 0.919984L91.7964 0.946201L91.7776 0.970544C91.608 1.12972 91.4762 1.32449 91.4009 1.53236V1.5436C91.3255 1.76458 91.3066 2.00428 91.3443 2.24025V2.25147C91.3443 2.27957 91.3443 2.30579 91.3631 2.33201L92.7195 8.16363C93.36 10.9034 93.7746 12.6937 94.6412 16.3455C94.6977 16.574 94.8111 16.7874 94.9618 16.9616C98.7297 21.1303 111.691 34.4227 119.585 42.9155C112.388 40.2675 104.796 38.5765 96.9024 38.0727C88.1796 37.5146 77.6105 36.4697 68.0777 37.9548C58.1869 39.4978 49.4452 43.7376 44.7919 53.7267C42.3616 58.9552 43.1904 60.5602 43.2469 66.7457C41.9093 67.9574 40.6286 69.2589 39.404 70.6372C34.8071 75.8246 31.1147 82.0683 28.6279 88.5141C28.5902 88.5984 28.5524 88.6864 28.5336 88.7782C26.2917 94.7035 25.0481 100.788 25.0669 106.372C23.6729 106.164 21.7699 105.878 21.1482 105.734C20.1497 105.5 19.2835 105.895 18.7371 106.649C18.0777 107.522 17.9457 108.934 18.5674 109.929C19.208 110.943 20.2632 112.131 22.034 112.887C22.1471 112.94 22.4295 113.013 22.7875 113.095C22.2788 114.252 21.77 115.517 21.2613 116.499C19.2078 117.883 17.0788 119.203 14.9876 120.573C13.9891 121.234 12.4259 121.744 11.1636 122.541C10.0521 123.258 9.14774 124.181 8.77095 125.42C8.3188 126.813 8.46928 128.224 8.99679 129.563C9.65617 131.271 10.9185 132.862 11.9547 134.07C12.6894 134.944 13.6125 135.783 14.6298 136.548C12.8966 138.405 10.8055 140.826 9.12879 142.564C8.16797 142.293 7.37664 142.386 6.69842 142.675C5.926 143.01 5.30435 143.639 4.87104 144.48C3.87254 146.382 3.89133 149.523 4.34348 151.014C4.47535 151.483 4.60721 152.02 4.7956 152.51C4.38114 153.22 3.28835 155.6 3.28835 155.6L3.26949 155.617C3.26949 155.617 2.47838 157.499 2.47838 158.782C2.47838 159.934 2.55386 160.735 3.08138 161.628C3.62772 162.544 5.02183 163.982 5.88845 164.406C5.94496 164.435 6.00121 164.466 6.07657 164.493C5.45486 166.213 4.3059 169.241 3.51465 170.902C2.30892 173.395 0.990133 176.536 0.669861 179.446C0.311911 182.774 1.1974 185.807 4.47549 187.627C12.8026 192.26 20.9975 193.137 27.3465 194.225C31.1332 194.875 34.242 195.523 36.1071 197.435C40.9112 202.334 42.8705 208.36 44.5849 214.495C46.4124 220.999 47.9947 227.629 51.9321 233.361C54.4943 237.089 59.7507 241.479 63.4056 246.205C65.6098 249.044 67.2487 251.987 67.0037 255.013V255.148L66.9471 255.113C64.6488 253.348 62.1243 251.588 59.9578 248.42C56.6797 243.617 54.287 240.352 50.4437 239.241C48.7481 238.749 46.7511 238.662 44.2455 239.097C41.7398 239.537 38.9896 240.37 36.6158 241.298C29.1931 244.176 23.5786 251.865 20.3948 261.411C15.7225 275.448 16.3066 293.431 23.6351 305.161C29.3059 314.224 26.5367 318.955 25.2933 322.448C24.5585 324.497 24.3321 326.234 25.4436 327.994C25.9335 328.802 26.7436 329.416 27.7986 329.817C29.042 330.29 30.7188 330.464 32.6405 330.386C39.3851 330.109 49.351 326.765 52.3466 325.691C61.3707 322.48 73.0326 317.61 80.4366 310.278C82.8292 307.91 83.3189 304.934 83.1493 301.736C82.9987 298.979 82.339 296.05 82.3766 293.323C82.5085 286.069 82.697 277.775 84.3926 269.995C86.0128 262.426 89.0649 255.335 94.9429 250.267C106.171 240.58 116.251 238.683 130.926 238.786C134.939 238.815 137.916 238.505 141.891 239.071C145.3 239.556 147.882 241.031 151.254 241.846C152.327 242.104 154.833 243.103 156.416 243.187C157.848 243.264 158.771 242.659 159.091 241.714C159.469 240.615 159.223 239.562 158.583 238.565C157.961 237.584 156.868 236.658 156.114 235.795C152.705 231.865 148.672 231.186 144.547 230.939C141.042 230.73 137.482 230.913 134.374 228.813C127.234 223.956 124.201 214.404 123.164 206.406C122.92 204.457 122.995 201.858 123.108 199.706C124.013 199.524 124.916 199.302 125.802 199.049C129.645 197.959 133.375 196.304 136.823 195.181C148.391 191.414 163.481 186.631 173.504 179.317C180.851 173.956 184.016 165.644 185.24 156.684C186.409 148.037 185.787 138.795 185.579 131.253C185.391 124.578 185.467 118.52 184.374 112.229C187.614 115.7 192.099 120.517 193.38 121.95C193.398 129.016 195.81 132.813 198.597 134.875C203.006 138.126 208.564 137.066 208.564 137.066C209.035 136.978 209.411 136.669 209.6 136.242C209.789 135.815 209.751 135.325 209.487 134.931L204.004 126.385L210.221 120.858C211.296 121.573 213.688 123.41 218.153 127.866C218.53 128.237 219.076 128.371 219.585 128.214C220.075 128.056 220.452 127.635 220.546 127.119C221.45 122.049 220.376 118.511 218.529 116.03C214.932 111.232 208.188 110.419 206.077 110.28C206.077 110.28 202.12 106.06 199.672 103.464C201.217 103.114 202.818 102.552 204.533 101.782C208.149 100.174 210.674 96.8328 212.314 94.99C215.892 90.9749 220.998 84.6133 223.428 78.07C225.161 73.4314 225.539 68.7028 223.372 64.5585C220.791 59.6444 217.155 58.2436 212.766 58.2961C212.803 58.1051 212.841 57.9159 212.878 57.7249C213.764 53.0806 214.498 47.6853 213.934 42.5934C213.349 37.2711 211.371 32.2823 206.831 28.6886C205.135 27.3514 202.573 26.5218 199.728 26.0612C195.771 25.4225 191.269 25.4506 188.124 25.4506C186.767 25.4506 185.391 25.5443 184.016 25.7277C182.924 24.2202 181.849 22.7259 180.794 21.237C176.085 14.6151 172.11 8.56813 163.236 7.86399C158.187 7.46323 149.747 6.89018 143.003 8.78911C138.141 10.1543 134.148 12.7855 132.528 17.4073C129.796 16.662 125.802 15.8735 122.354 16.3305C121.073 16.4991 119.867 16.8343 118.813 17.3773C116.156 14.6133 109.92 7.83965 108.62 6.52688C108.47 6.3808 108.3 6.26657 108.093 6.1954L93.2282 0.687766L93.1906 0.672786C92.9644 0.594132 92.7197 0.577276 92.4937 0.616603ZM107.452 180.656C109.619 180.416 111.86 179.837 114.065 179.007C123.692 175.4 132.999 166.971 135.015 159.362C135.843 156.192 135.711 154.014 134.732 152.572C133.771 151.194 132.075 150.596 130.079 150.353C126.517 149.926 122.034 150.686 117.965 151.561C113.651 152.486 109.807 153.546 107.885 153.675C105.399 153.842 102.253 152.746 101.141 150.536C100.614 149.445 100.651 148.271 100.99 147.057C101.311 145.875 102.008 144.651 102.008 143.464C102.008 140.383 101.857 137.246 101.047 134.27C99.7093 129.326 96.9775 123.681 94.8298 117.875C92.5691 111.788 90.9487 105.528 91.9095 99.6755C92.8138 94.1547 94.4151 90.7389 95.5643 87.9654C96.3179 86.1658 96.8833 84.6882 96.7515 82.9765C96.6195 81.233 95.7906 79.2817 93.9255 76.5381C92.3618 74.2441 90.5911 72.0137 88.4245 70.2702C84.4306 67.0491 80.3987 63.5396 75.5758 61.7549C62.3317 56.8485 50.2177 62.6951 41.5138 72.4931C37.2749 77.2779 33.846 83.0046 31.4911 88.9355C33.1113 91.2015 35.5041 94.724 35.994 97.2934C36.352 99.1193 36.3518 101.028 35.862 102.87C35.2026 105.361 34.1667 107.528 32.848 109.459C32.7914 109.578 32.7158 109.689 32.6216 109.786C31.755 111.041 30.7564 112.197 29.6636 113.279C29.5694 113.436 29.4377 113.571 29.2681 113.674C27.4784 115.408 25.4628 116.953 23.3527 118.422C23.2397 118.535 23.1078 118.627 22.9572 118.695C20.866 120.135 18.6992 121.505 16.5515 122.916C15.6848 123.489 14.4038 123.96 13.2546 124.581C12.4821 125 11.7097 125.459 11.4649 126.266C11.1446 127.264 11.446 128.266 11.917 129.195C12.501 130.356 13.3863 131.41 14.1022 132.255C14.9877 133.285 16.1369 134.255 17.4369 135.077C17.5122 135.115 17.5877 135.158 17.6443 135.206C19.3775 136.262 21.3557 137.056 23.2961 137.39C26.48 137.935 29.6072 137.201 31.0955 133.946C31.4158 133.241 32.2448 132.928 32.9607 133.249C33.6766 133.57 33.9782 134.403 33.6578 135.109C31.9624 138.808 28.8347 140.313 25.3493 140.363C22.6177 140.403 19.6599 139.502 17.0413 138.089C15.2893 139.939 13.0661 142.525 11.2763 144.394C11.3328 144.504 11.3895 144.619 11.4272 144.735C11.5402 145.033 11.6154 145.351 11.7285 145.647C11.7473 145.685 11.7661 145.724 11.7661 145.763C12.0299 145.685 12.3881 145.588 12.5011 145.575C14.3662 145.366 15.9862 145.941 17.4934 147.066C18.0397 147.476 18.624 148.239 19.1515 149.081C19.7356 150.042 20.2253 151.107 20.4891 151.451C23.1077 154.953 23.5033 154.583 25.9524 158.202C26.9132 159.626 27.5161 160.664 27.8175 161.483C28.2696 162.675 28.213 163.563 27.8175 164.411C27.7797 164.467 27.7608 164.526 27.7232 164.579C27.6666 164.639 27.6293 164.703 27.5727 164.758C27.5163 164.818 27.4595 164.884 27.3842 164.934C27.2523 165.042 27.0828 165.123 26.8944 165.171L26.8754 165.179C26.8378 165.189 26.7816 165.198 26.7439 165.203C21.7326 165.969 15.9863 167.061 10.9939 165.915C10.1649 165.726 9.43031 165.558 8.75209 165.384C8.11154 167.149 6.90548 170.365 6.0577 172.117C4.98386 174.348 3.77838 177.144 3.49578 179.746C3.25088 181.932 3.70303 183.981 5.85073 185.176C13.8576 189.624 21.7323 190.412 27.8175 191.457C32.3201 192.229 35.9184 193.21 38.1415 195.473C43.2846 200.731 45.4515 207.158 47.3166 213.738C49.0498 219.95 50.5003 226.301 54.2682 231.775C56.8116 235.469 62.0301 239.81 65.6474 244.494C68.3038 247.931 70.1123 251.564 69.8297 255.229C69.7731 255.966 69.6976 256.673 69.641 257.346C72.2786 259.825 74.3133 263.019 74.8031 269.199C75.2741 275.238 72.2787 283.533 69.6788 288.602C69.2832 289.369 68.7179 289.634 68.2092 289.7C67.7383 289.761 67.1734 289.639 66.6082 289.137C66.1373 288.695 65.5342 287.737 65.0067 286.472C63.9705 283.943 63.0284 280.111 63.0284 277.875C63.0284 275.231 63.4618 273.734 64.1024 271.716C64.8748 269.293 65.9112 266.041 66.7025 258.506C66.2126 258.107 65.7228 257.723 65.2329 257.337C62.7084 255.41 59.9766 253.457 57.6217 249.996C53.6654 244.203 51.5364 240.683 44.7353 241.865C42.3992 242.273 39.8559 243.053 37.6328 243.914C30.907 246.526 25.9711 253.629 23.0887 262.295C18.6614 275.57 19.0948 292.586 26.0278 303.677C31.6232 312.599 30.0408 317.871 28.5902 321.717C28.2322 322.629 27.8931 323.451 27.6859 324.223C27.4598 325.036 27.3653 325.773 27.8363 326.511C28.1001 326.942 28.6276 327.167 29.2493 327.331C30.1536 327.571 31.2839 327.631 32.5274 327.579C38.9705 327.313 48.5221 324.073 51.4045 323.047C60.0707 319.957 71.3182 315.339 78.4394 308.288C80.2292 306.524 80.4553 304.269 80.3235 301.887C80.1727 299.065 79.513 296.067 79.5508 293.275C79.6826 285.851 79.9089 277.366 81.6232 269.405C83.3942 261.232 86.7478 253.616 93.0779 248.146C104.909 237.947 115.497 235.868 130.945 235.977C135.108 236.007 138.16 235.705 142.286 236.29C145.809 236.787 148.466 238.281 151.914 239.118C152.649 239.294 154.079 239.844 155.38 240.173C155.681 240.249 156.077 240.301 156.378 240.335C156.284 240.128 156.114 239.934 155.945 239.731C155.362 238.992 154.569 238.297 153.986 237.632C151.16 234.387 147.788 233.947 144.378 233.743C140.365 233.503 136.333 233.535 132.792 231.133C124.972 225.83 121.488 215.491 120.358 206.759C120.112 204.832 120.15 202.31 120.263 200.122C117.984 200.321 115.704 200.172 113.462 199.495C111.352 198.859 109.732 197.482 108.526 195.751C106.868 193.384 105.983 190.343 105.474 187.927C105.21 186.629 105.418 184.884 105.662 183.566C101.782 183.631 98.1454 182.659 95.1876 180.358C94.7355 180.007 94.3023 179.625 93.9067 179.217C84.1289 189.753 73.6163 194.568 59.3737 194.568C53.5146 194.568 46.9207 191.687 44.773 188.951C40.5341 183.523 38.7257 179.685 38.3489 171.693C37.6706 158.144 39.724 145.903 53.3074 138.784C56.7174 136.998 60.9187 136.217 64.7619 135.995C71.6572 135.594 76.1786 138.335 78.7408 142.761C80.5682 145.911 81.6797 150.839 81.0391 155.396C80.6057 158.542 79.3438 161.503 77.0454 163.642C72.8442 167.524 65.8169 168.849 60.3911 167.342C56.5478 166.276 53.5337 163.832 52.6106 160.052C51.5933 155.934 52.5349 153.34 54.2117 150.402C55.0594 148.961 56.7172 147.514 58.7895 146.621C61.8791 145.293 65.8355 145.167 69.1513 147.866C69.7541 148.358 69.8297 149.244 69.3398 149.844C68.85 150.441 67.9456 150.529 67.3428 150.036C64.9878 148.1 62.1244 148.247 59.9201 149.197C58.4506 149.825 57.2638 150.789 56.6797 151.797C55.3422 154.114 54.551 156.145 55.3422 159.389C56.0204 162.162 58.3374 163.857 61.1444 164.638C65.6848 165.9 71.5819 164.838 75.1048 161.583C76.9511 159.885 77.8929 157.51 78.232 155.012C78.7784 151.102 77.8741 146.868 76.3103 144.164C74.2192 140.583 70.5077 138.474 64.9124 138.798C61.4647 139 57.6969 139.665 54.626 141.268C42.1732 147.795 40.5531 159.134 41.156 171.556C41.514 178.814 43.1531 182.298 46.9964 187.227C47.6935 188.103 48.9743 188.953 50.5381 189.695C53.0625 190.893 56.3405 191.758 59.3737 191.758C72.9192 191.758 82.8668 187.084 92.1547 176.96C89.781 173.045 89.9314 168.186 95.1688 166.144C97.2977 165.313 99.2006 164.903 100.99 164.758C101.537 163.927 102.083 163.114 102.686 162.346C105.21 159.115 108.413 156.658 113.35 156.578C116.457 156.527 119.773 156.947 122.449 158.508C123.371 159.047 124.031 160.26 124.069 161.804C124.125 164.663 122.147 168.612 117.795 168.854C113.179 169.112 109.694 168.286 106.266 167.801C105.06 167.629 103.835 167.503 102.591 167.507C101.348 169.504 100.218 171.535 98.9178 173.229C97.8816 174.592 96.8267 175.884 95.7718 177.11C96.1297 177.483 96.5255 177.831 96.9212 178.142C99.7848 180.358 103.345 181.051 107.132 180.687C107.245 180.664 107.339 180.656 107.452 180.656ZM69.2455 261.132C68.4732 267.356 67.5123 270.3 66.7964 272.557C66.25 274.3 65.8543 275.591 65.8543 277.875C65.8543 279.971 66.8152 283.662 67.8137 285.846L67.8515 285.912C70.0746 281.205 72.3728 274.467 71.9772 269.416C71.6757 265.534 70.6585 263.029 69.2455 261.132ZM124.145 47.7995C115.591 43.9512 106.397 41.4941 96.7325 40.8761C88.1983 40.3293 77.8366 39.2768 68.511 40.7301C59.5623 42.1271 51.5743 45.8613 47.3543 54.9064C45.4891 58.9384 45.8095 60.6183 45.9979 64.448C54.6264 57.8354 65.2329 54.9252 76.5744 59.1219C81.6799 61.0134 85.9753 64.6764 90.2141 68.0866C92.588 70.0043 94.5472 72.4406 96.2616 74.9614C98.5223 78.2723 99.4267 80.6713 99.5773 82.7762C99.7281 84.9148 99.1064 86.7837 98.1833 89.0347C97.0905 91.6641 95.5644 94.8963 94.6977 100.131C93.8124 105.53 95.3947 111.288 97.4671 116.901C99.6713 122.792 102.422 128.524 103.779 133.541C104.645 136.753 104.834 140.137 104.834 143.464C104.834 144.693 104.306 145.979 103.892 147.219C103.647 147.948 103.364 148.649 103.684 149.295C103.91 149.733 104.306 150.052 104.777 150.293C105.663 150.754 106.755 150.936 107.697 150.872C109.544 150.749 113.236 149.705 117.362 148.815C121.751 147.874 126.593 147.103 130.418 147.564C133.319 147.916 135.674 148.986 137.049 150.984C138.387 152.919 138.858 155.823 137.746 160.076C135.542 168.368 125.557 177.704 115.063 181.637C112.897 182.451 110.712 183.032 108.564 183.331C108.319 184.373 107.98 186.122 108.243 187.356C108.62 189.114 109.185 191.263 110.222 193.126C111.125 194.791 112.407 196.241 114.272 196.806C116.646 197.521 119.057 197.527 121.449 197.152C121.507 197.141 121.563 197.131 121.619 197.125C122.769 196.938 123.899 196.669 125.03 196.349C128.835 195.268 132.528 193.624 135.938 192.513C147.26 188.828 162.03 184.204 171.827 177.052C178.552 172.153 181.322 164.495 182.434 156.308C183.601 147.813 182.942 138.737 182.754 131.328C182.527 123.113 182.716 115.856 180.512 107.884V107.854C180.436 107.61 180.361 107.367 180.304 107.121C179.852 105.573 179.381 104.239 178.891 103.05C177.327 103.679 175.708 104.159 174.163 104.387C169.962 105.007 166.194 103.872 164.404 99.5163C163.066 96.2896 163.519 93.1491 164.913 90.2333C165.685 88.6116 166.779 87.061 167.984 85.6133C163.104 78.5794 157.433 71.9407 151.122 66.0304C150.067 66.051 149.05 66.0454 148.108 66.0248C144.397 65.9442 141.081 66.2251 138.763 62.2775C137.426 59.9796 136.333 57.0713 135.448 53.8877C131.887 51.6386 128.195 49.6292 124.352 47.8969C124.294 47.8708 124.22 47.8389 124.145 47.7995ZM99.0875 167.881C98.1643 168.078 97.2035 168.363 96.1861 168.76C93.2472 169.909 93.021 172.403 94.1136 174.713C94.9803 173.7 95.8282 172.638 96.676 171.527C97.5238 170.423 98.2963 169.172 99.0875 167.881ZM104.4 164.766C105.154 164.824 105.908 164.913 106.68 165.021C109.92 165.481 113.236 166.295 117.645 166.05C119.829 165.929 120.922 164.163 121.186 162.619C121.261 162.132 121.261 161.666 121.168 161.28C121.129 161.136 121.129 160.99 121.017 160.93C118.774 159.625 115.986 159.346 113.387 159.387C109.449 159.451 106.925 161.488 104.928 164.069C104.74 164.297 104.57 164.529 104.4 164.766ZM6.90586 154.548C6.47254 155.426 5.85075 156.763 5.86959 156.75C5.86959 156.75 5.30432 157.955 5.30432 158.782C5.30432 159.349 5.26683 159.76 5.51175 160.199C5.85086 160.743 6.62302 161.635 7.13169 161.885C7.4708 162.048 7.81004 162.187 8.20567 162.314C8.24335 162.325 8.28116 162.338 8.33767 162.353C8.35651 162.361 8.37495 162.369 8.39379 162.377C9.29808 162.662 10.3723 162.887 11.6346 163.177C15.5721 164.085 20.0368 163.428 24.1439 162.771C23.5786 162.194 22.9757 161.949 21.7134 161.067C17.0224 157.827 17.0037 157.911 11.8982 155.327C10.4287 154.583 8.24337 154.651 7.28255 154.589C7.13183 154.58 7.01889 154.566 6.90586 154.548ZM12.8779 148.36C12.7648 148.402 12.2373 148.572 11.9359 148.626C11.446 148.715 11.0129 148.643 10.7115 148.507C9.80718 148.09 9.33593 147.343 9.0345 146.467C8.94031 146.235 8.884 145.995 8.78981 145.763C8.75213 145.659 8.71434 145.559 8.67666 145.464C8.63898 145.419 8.63889 145.362 8.58237 145.341C8.29978 145.229 8.05509 145.173 7.86668 145.238C7.65945 145.308 7.5276 145.506 7.41456 145.722C7.18849 146.137 7.03779 146.658 6.96242 147.197C6.79288 148.319 6.84903 149.525 7.05626 150.22C7.16929 150.63 7.2827 151.106 7.43341 151.533C7.4711 151.615 7.48955 151.699 7.50839 151.775C8.43153 151.804 11.5024 151.97 13.1791 152.823C18.1339 155.329 18.4545 155.409 22.4673 158.173C20.9789 156.216 20.3384 155.95 18.2095 153.13C17.9835 152.808 17.5311 151.928 17.0036 151.014C16.6267 150.346 16.2125 149.628 15.7792 149.308C14.9125 148.647 13.9705 148.258 12.8779 148.36ZM196.225 103.893C192.645 103.947 188.99 102.782 184.223 100.322C183.356 100.861 182.434 101.389 181.473 101.882C182 103.172 182.509 104.627 183.018 106.333C183.056 106.485 183.093 106.636 183.149 106.786C184.845 108.599 195.169 119.642 195.903 120.569C196.111 120.822 196.225 121.137 196.205 121.458C196.111 127.558 197.938 130.882 200.293 132.62C202.14 133.991 204.269 134.372 205.814 134.431L200.971 126.888C200.614 126.307 200.708 125.546 201.235 125.086L209.091 118.085C209.506 117.728 210.071 117.63 210.58 117.83C210.58 117.83 212.502 118.546 218.04 123.823C218.078 121.195 217.38 119.204 216.25 117.704C212.727 112.992 205.436 113.061 205.436 113.061C205.06 113.061 204.682 112.9 204.419 112.616L196.225 103.893ZM74.2006 117.406C73.9745 118.072 73.6542 118.543 73.2397 118.867C72.618 119.335 71.8268 119.496 70.9413 119.601C69.9806 119.716 68.8875 119.74 67.7383 119.811C66.1935 119.91 64.1589 119.766 62.7083 119.028C61.7663 118.548 60.2214 117.779 59.3925 117.13C58.3187 116.283 57.1128 115.607 55.9824 114.857C55.2477 114.384 53.458 112.955 51.8378 112.463C50.877 112.172 49.9729 112.176 49.1816 112.526C48.6164 112.787 48.1077 113.231 47.7121 113.958C45.7716 117.591 46.657 121.452 48.993 124.5C51.2349 127.412 54.7958 129.54 58.1869 129.942C60.7869 130.25 64.046 131.192 66.6271 130.847C67.3618 130.747 68.6241 130.232 69.114 129.673C69.7169 128.977 69.8108 128.212 69.2644 127.451C68.8876 126.931 68.2663 126.633 67.701 126.352C64.0839 124.594 64.0649 124.789 60.5796 122.781C57.0567 120.738 56.2839 120.2 53.213 117.893C52.5913 117.427 51.6875 117.551 51.2353 118.17C50.7643 118.788 50.8771 119.671 51.4988 120.137C54.7016 122.532 55.4929 123.088 59.1666 125.21C62.1245 126.925 62.6521 127.075 64.8752 128.12C62.8027 128.051 60.4664 127.382 58.526 127.151C55.8319 126.833 53.0246 125.109 51.2537 122.796C49.577 120.618 48.8238 117.875 50.1991 115.278C50.3309 115.043 50.5567 115.043 50.7827 115.088C51.0465 115.141 51.3105 115.244 51.5743 115.368C52.7612 115.917 53.8915 116.864 54.4191 117.206C55.4929 117.909 56.6232 118.538 57.6405 119.332C58.5826 120.077 60.3535 120.979 61.4274 121.528C63.2925 122.484 65.9111 122.742 67.9268 122.615C69.3398 122.524 70.6587 122.498 71.8268 122.315C73.2586 122.089 74.4642 121.62 75.4061 120.706C76.2162 119.935 76.8378 118.827 77.1957 117.178V117.156C77.4031 116.141 77.3465 115.073 77.2146 114.045C76.4987 108.786 73.4279 102.589 68.7746 99.7804C65.0067 97.5069 60.052 96.4769 55.7189 96.1042C53.4959 95.9132 51.2539 95.8982 49.0308 95.7858C48.5597 95.7634 47.9005 95.6716 47.2976 95.7147C46.6571 95.7615 46.0545 95.9488 45.5834 96.3065C44.0763 97.4395 43.2846 99.3946 43.3224 101.348C43.36 103.316 44.2457 105.237 45.9036 106.299C46.3369 106.58 47.0529 106.82 47.9007 106.972C49.4078 107.241 51.3856 107.303 52.2145 107.38C56.1709 107.752 57.7345 107.82 61.6343 109.048C66.608 110.611 70.2254 114.239 74.2006 117.406ZM74.3321 113.891C73.5974 109.517 71.1294 104.487 67.305 102.181C63.8951 100.123 59.3928 99.2392 55.4742 98.902C53.2889 98.7148 51.0846 98.7017 48.8803 98.5912C48.5978 98.5781 48.2586 98.5331 47.8818 98.5163C47.7311 98.5088 47.5805 98.5069 47.4485 98.5219C47.3921 98.5294 47.3354 98.5126 47.2788 98.5444C46.4687 99.1548 46.1294 100.237 46.1482 101.288C46.1672 102.327 46.563 103.378 47.4297 103.938C47.75 104.138 48.3525 104.211 48.993 104.297C50.3118 104.473 51.8003 104.52 52.4785 104.584C56.6797 104.981 58.3378 105.065 62.5013 106.37C67.117 107.824 70.6584 110.897 74.3321 113.891ZM26.2914 109.399L26.1221 109.37C25.7641 109.303 22.5427 108.848 21.0543 108.576C21.45 109.183 22.1091 109.861 23.1453 110.305C23.3337 110.39 24.0121 110.539 24.8223 110.689C24.9919 110.685 25.161 110.716 25.3493 110.78C26.2726 110.94 27.29 111.08 27.9306 111.106C28.3263 110.704 28.7032 110.292 29.0611 109.867C28.138 109.719 27.2145 109.563 26.2914 109.399ZM28.6463 98.5556C28.1188 101.387 27.8552 104.172 27.9117 106.829C28.9102 107 29.9089 107.159 30.9074 107.312C31.6421 106.125 32.2638 104.84 32.7348 103.434C32.0754 102.421 31.077 100.923 30.493 100.241C30.0032 99.6643 29.4377 99.1417 28.8348 98.6867C28.7784 98.6418 28.7216 98.5987 28.6463 98.5556ZM169.622 88.046C169.209 88.5872 168.812 89.1433 168.436 89.7126C166.721 92.3887 165.742 95.3607 167.023 98.4508C168.248 101.419 170.885 102.031 173.748 101.608C175.048 101.415 176.405 101.022 177.723 100.507C175.897 96.9189 173.73 94.46 170.81 89.8775C170.432 89.2632 170.037 88.6527 169.622 88.046ZM186.861 98.4939C193.38 101.632 197.505 101.844 203.383 99.2185C206.585 97.7934 208.733 94.7577 210.203 93.1266C213.595 89.3175 218.473 83.3042 220.791 77.0981C222.223 73.2385 222.655 69.3039 220.866 65.8544C218.756 61.8486 215.723 60.9348 212.087 61.1127C208.394 74.5812 198.24 87.1508 188.669 96.9151C188.198 97.3927 187.595 97.9301 186.861 98.4939ZM30.3232 92.1509C29.9277 93.3213 29.5884 94.4937 29.2869 95.6642C29.7203 95.8982 30.1534 96.151 30.5302 96.4432C31.3027 97.0218 32.0188 97.6886 32.6593 98.4226C32.8666 98.6717 33.1301 99.0238 33.4128 99.4226C33.3939 98.8852 33.3188 98.3514 33.2246 97.8271C32.8855 96.121 31.5667 93.9619 30.3232 92.1509ZM180.304 99.3458C181.36 98.8085 182.358 98.2204 183.244 97.6305C183.337 97.5612 183.413 97.5032 183.508 97.4545C184.845 96.5687 185.938 95.681 186.653 94.9544C195.64 85.7706 205.267 74.0643 209.054 61.4516C208.583 61.5246 208.112 61.6089 207.603 61.6969C205.117 62.1445 202.855 62.7288 200.783 63.433C200.915 65.8731 200.915 68.7196 200.256 71.3077C199.558 74.1448 198.108 76.6767 195.451 78.2273C192.324 80.0495 189.347 80.6863 186.465 80.293C184.298 79.9989 182.188 79.1037 180.116 77.6337C178.609 79.055 177.064 80.5382 175.407 82.0683C174.201 83.1732 172.844 84.4373 171.544 85.8268C172.11 86.6714 172.655 87.5198 173.202 88.3756C176.198 93.0966 178.42 95.6623 180.304 99.3458ZM169.924 83.4597C171.13 82.1956 172.374 81.0364 173.485 80.0102C175.029 78.5794 176.5 77.1899 177.913 75.8528C176.725 74.7741 175.558 73.51 174.408 72.0624C173.579 71.0249 170.621 66.7345 167.777 61.4086C164.517 64.2494 159.637 65.4067 154.965 65.8281C160.504 71.2365 165.516 77.1879 169.924 83.4597ZM198.014 64.4872C191.74 67.1446 187.143 71.0287 182.188 75.6673C183.715 76.6655 185.26 77.2929 186.861 77.5101C189.141 77.8247 191.514 77.261 194.019 75.8041C196.525 74.3434 197.467 71.6579 197.845 68.8956C198.033 67.4143 198.07 65.8993 198.014 64.4872ZM182.754 28.7765C180.361 29.2353 178.044 29.9957 175.897 31.0482C173.409 32.2673 170.49 33.5838 168.172 35.5839C169.98 36.9977 171.864 38.6775 173.353 40.5146C175.331 42.9492 176.612 45.6665 176.442 48.4044C176.33 50.1423 175.35 52.279 173.955 54.3503C172.731 56.1705 171.224 57.9552 169.887 59.3654C172.731 64.8074 175.783 69.2721 176.612 70.3133C177.723 71.7029 178.835 72.9126 179.965 73.9239C185.542 68.6952 190.628 64.3786 197.806 61.5302C197.769 61.1463 197.731 60.783 197.694 60.446C196.564 48.4157 189.668 38.3311 182.754 28.7765ZM139.159 56.3428C139.763 58.0133 140.44 59.5452 141.212 60.8654C142.135 62.4329 143.304 62.9404 144.641 63.1071C145.697 63.24 146.808 63.1951 147.976 63.212C145.15 60.7681 142.211 58.4684 139.159 56.3428ZM152.196 63.212C157.038 63.0678 162.521 62.2868 165.949 59.2624C166.118 59.1275 166.269 58.9796 166.439 58.8167C164.969 55.826 163.632 52.6386 162.746 49.5955C161.465 45.1666 161.201 41.0203 162.671 38.0633C163.048 37.3198 163.481 36.6307 163.971 35.9902C163.462 35.6513 163.01 35.3422 162.577 35.0689C154.269 29.6717 144.246 24.1921 134.581 20.9842C134.148 24.0442 134.298 27.7653 134.562 30.3571C135.108 36.0914 135.957 44.7676 137.86 52.0993C142.928 55.3747 147.732 59.1145 152.196 63.212ZM209.826 58.5114C209.94 58.0788 210.014 57.6425 210.109 57.2062C210.938 52.8128 211.653 47.7134 211.126 42.8986C210.618 38.3124 208.979 33.9826 205.06 30.8871C203.703 29.8009 201.574 29.2092 199.276 28.8346C195.471 28.2204 191.138 28.2597 188.124 28.2597C187.388 28.2597 186.653 28.2896 185.901 28.3496C192.758 37.9585 199.37 48.1554 200.52 60.1838L200.539 60.5471C202.554 59.901 204.721 59.3598 207.113 58.9309C208.037 58.7642 208.96 58.62 209.826 58.5114ZM166.232 37.6401C165.854 38.1551 165.516 38.7094 165.215 39.3068C164.593 40.5465 164.423 42.0578 164.517 43.7226C164.668 46.4868 165.591 49.6404 166.835 52.7885C167.362 54.0937 167.926 55.399 168.53 56.6743C169.585 55.517 170.697 54.1649 171.601 52.7922C172.694 51.1891 173.541 49.5767 173.616 48.2321C173.748 46.1497 172.656 44.1309 171.149 42.2788C169.736 40.5409 167.946 38.9603 166.232 37.6401ZM134.506 50.0225C132.999 43.1927 132.245 35.7711 131.736 30.6249C131.453 27.7241 131.34 23.5404 131.868 20.1452C129.438 19.4674 125.84 18.7032 122.732 19.1133C120.715 19.3793 118.926 20.1322 118.021 21.9617C116.891 24.2558 117.569 27.6042 118.794 31.0968C120.734 36.612 124.182 42.423 125.858 45.4999C128.817 46.8538 131.699 48.3651 134.506 50.0225ZM116.571 19.104C113.933 16.3455 108.432 10.3922 106.812 8.71795L99.2761 5.922C98.8993 6.87895 98.5411 7.50256 98.0701 7.95201C98.0324 7.98759 97.9946 8.02317 97.957 8.05688C97.9382 8.0625 97.9381 8.07562 97.9381 8.07562C97.9192 8.08498 97.9004 8.10557 97.9004 8.10557C97.4106 8.49884 96.7703 8.78162 95.8095 8.99511C96.3558 11.2611 97.3167 15.3529 97.3167 15.3529C100.84 19.222 110.825 29.5144 118.474 37.6083C117.606 35.7861 116.778 33.8871 116.137 32.0201C114.631 27.711 114.084 23.5536 115.478 20.7239C115.779 20.1153 116.137 19.5759 116.571 19.104ZM180.945 26.2915C180.116 25.1397 179.287 23.9974 178.477 22.8569C174.275 16.9448 170.922 11.2929 163.01 10.6637C158.205 10.2817 150.18 9.68614 143.775 11.4914C139.875 12.5869 136.559 14.5626 135.222 18.237C145.188 21.5105 155.55 27.1473 164.122 32.7167C164.649 33.0594 165.252 33.4564 165.893 33.8984C168.492 31.5238 171.789 29.9283 174.653 28.5274C176.631 27.5537 178.76 26.8046 180.945 26.2915ZM108.451 22.3663C109.713 21.3306 110.956 20.2951 112.218 19.2594C112.821 18.7632 112.897 17.8774 112.407 17.28C111.899 16.6845 111.013 16.602 110.41 17.0984C109.148 18.1339 107.904 19.1696 106.642 20.2051C106.039 20.7015 105.964 21.5873 106.454 22.1846C106.962 22.7801 107.848 22.8625 108.451 22.3663ZM105.305 18.9729C106.548 17.9355 107.81 16.8998 109.054 15.8642C109.657 15.3679 109.732 14.4821 109.242 13.8867C108.733 13.2892 107.848 13.2087 107.245 13.7031C106.002 14.7388 104.74 15.7762 103.496 16.8118C102.893 17.3062 102.799 18.1939 103.308 18.7894C103.797 19.3867 104.702 19.4674 105.305 18.9729ZM102.045 15.662C103.289 14.6263 104.551 13.5889 105.795 12.5532C106.397 12.0589 106.491 11.1712 105.983 10.5757C105.493 9.98016 104.589 9.89776 103.986 10.3921C102.743 11.4296 101.48 12.4653 100.236 13.5008C99.6336 13.9972 99.5397 14.8829 100.048 15.4784C100.538 16.0758 101.443 16.1563 102.045 15.662Z"/>
</mask>
<path fill-rule="evenodd" clip-rule="evenodd" d="M92.4937 0.616603L92.4749 0.618475C92.2676 0.657802 92.0602 0.747693 91.8719 0.890019L91.8341 0.919984L91.7964 0.946201L91.7776 0.970544C91.608 1.12972 91.4762 1.32449 91.4009 1.53236V1.5436C91.3255 1.76458 91.3066 2.00428 91.3443 2.24025V2.25147C91.3443 2.27957 91.3443 2.30579 91.3631 2.33201L92.7195 8.16363C93.36 10.9034 93.7746 12.6937 94.6412 16.3455C94.6977 16.574 94.8111 16.7874 94.9618 16.9616C98.7297 21.1303 111.691 34.4227 119.585 42.9155C112.388 40.2675 104.796 38.5765 96.9024 38.0727C88.1796 37.5146 77.6105 36.4697 68.0777 37.9548C58.1869 39.4978 49.4452 43.7376 44.7919 53.7267C42.3616 58.9552 43.1904 60.5602 43.2469 66.7457C41.9093 67.9574 40.6286 69.2589 39.404 70.6372C34.8071 75.8246 31.1147 82.0683 28.6279 88.5141C28.5902 88.5984 28.5524 88.6864 28.5336 88.7782C26.2917 94.7035 25.0481 100.788 25.0669 106.372C23.6729 106.164 21.7699 105.878 21.1482 105.734C20.1497 105.5 19.2835 105.895 18.7371 106.649C18.0777 107.522 17.9457 108.934 18.5674 109.929C19.208 110.943 20.2632 112.131 22.034 112.887C22.1471 112.94 22.4295 113.013 22.7875 113.095C22.2788 114.252 21.77 115.517 21.2613 116.499C19.2078 117.883 17.0788 119.203 14.9876 120.573C13.9891 121.234 12.4259 121.744 11.1636 122.541C10.0521 123.258 9.14774 124.181 8.77095 125.42C8.3188 126.813 8.46928 128.224 8.99679 129.563C9.65617 131.271 10.9185 132.862 11.9547 134.07C12.6894 134.944 13.6125 135.783 14.6298 136.548C12.8966 138.405 10.8055 140.826 9.12879 142.564C8.16797 142.293 7.37664 142.386 6.69842 142.675C5.926 143.01 5.30435 143.639 4.87104 144.48C3.87254 146.382 3.89133 149.523 4.34348 151.014C4.47535 151.483 4.60721 152.02 4.7956 152.51C4.38114 153.22 3.28835 155.6 3.28835 155.6L3.26949 155.617C3.26949 155.617 2.47838 157.499 2.47838 158.782C2.47838 159.934 2.55386 160.735 3.08138 161.628C3.62772 162.544 5.02183 163.982 5.88845 164.406C5.94496 164.435 6.00121 164.466 6.07657 164.493C5.45486 166.213 4.3059 169.241 3.51465 170.902C2.30892 173.395 0.990133 176.536 0.669861 179.446C0.311911 182.774 1.1974 185.807 4.47549 187.627C12.8026 192.26 20.9975 193.137 27.3465 194.225C31.1332 194.875 34.242 195.523 36.1071 197.435C40.9112 202.334 42.8705 208.36 44.5849 214.495C46.4124 220.999 47.9947 227.629 51.9321 233.361C54.4943 237.089 59.7507 241.479 63.4056 246.205C65.6098 249.044 67.2487 251.987 67.0037 255.013V255.148L66.9471 255.113C64.6488 253.348 62.1243 251.588 59.9578 248.42C56.6797 243.617 54.287 240.352 50.4437 239.241C48.7481 238.749 46.7511 238.662 44.2455 239.097C41.7398 239.537 38.9896 240.37 36.6158 241.298C29.1931 244.176 23.5786 251.865 20.3948 261.411C15.7225 275.448 16.3066 293.431 23.6351 305.161C29.3059 314.224 26.5367 318.955 25.2933 322.448C24.5585 324.497 24.3321 326.234 25.4436 327.994C25.9335 328.802 26.7436 329.416 27.7986 329.817C29.042 330.29 30.7188 330.464 32.6405 330.386C39.3851 330.109 49.351 326.765 52.3466 325.691C61.3707 322.48 73.0326 317.61 80.4366 310.278C82.8292 307.91 83.3189 304.934 83.1493 301.736C82.9987 298.979 82.339 296.05 82.3766 293.323C82.5085 286.069 82.697 277.775 84.3926 269.995C86.0128 262.426 89.0649 255.335 94.9429 250.267C106.171 240.58 116.251 238.683 130.926 238.786C134.939 238.815 137.916 238.505 141.891 239.071C145.3 239.556 147.882 241.031 151.254 241.846C152.327 242.104 154.833 243.103 156.416 243.187C157.848 243.264 158.771 242.659 159.091 241.714C159.469 240.615 159.223 239.562 158.583 238.565C157.961 237.584 156.868 236.658 156.114 235.795C152.705 231.865 148.672 231.186 144.547 230.939C141.042 230.73 137.482 230.913 134.374 228.813C127.234 223.956 124.201 214.404 123.164 206.406C122.92 204.457 122.995 201.858 123.108 199.706C124.013 199.524 124.916 199.302 125.802 199.049C129.645 197.959 133.375 196.304 136.823 195.181C148.391 191.414 163.481 186.631 173.504 179.317C180.851 173.956 184.016 165.644 185.24 156.684C186.409 148.037 185.787 138.795 185.579 131.253C185.391 124.578 185.467 118.52 184.374 112.229C187.614 115.7 192.099 120.517 193.38 121.95C193.398 129.016 195.81 132.813 198.597 134.875C203.006 138.126 208.564 137.066 208.564 137.066C209.035 136.978 209.411 136.669 209.6 136.242C209.789 135.815 209.751 135.325 209.487 134.931L204.004 126.385L210.221 120.858C211.296 121.573 213.688 123.41 218.153 127.866C218.53 128.237 219.076 128.371 219.585 128.214C220.075 128.056 220.452 127.635 220.546 127.119C221.45 122.049 220.376 118.511 218.529 116.03C214.932 111.232 208.188 110.419 206.077 110.28C206.077 110.28 202.12 106.06 199.672 103.464C201.217 103.114 202.818 102.552 204.533 101.782C208.149 100.174 210.674 96.8328 212.314 94.99C215.892 90.9749 220.998 84.6133 223.428 78.07C225.161 73.4314 225.539 68.7028 223.372 64.5585C220.791 59.6444 217.155 58.2436 212.766 58.2961C212.803 58.1051 212.841 57.9159 212.878 57.7249C213.764 53.0806 214.498 47.6853 213.934 42.5934C213.349 37.2711 211.371 32.2823 206.831 28.6886C205.135 27.3514 202.573 26.5218 199.728 26.0612C195.771 25.4225 191.269 25.4506 188.124 25.4506C186.767 25.4506 185.391 25.5443 184.016 25.7277C182.924 24.2202 181.849 22.7259 180.794 21.237C176.085 14.6151 172.11 8.56813 163.236 7.86399C158.187 7.46323 149.747 6.89018 143.003 8.78911C138.141 10.1543 134.148 12.7855 132.528 17.4073C129.796 16.662 125.802 15.8735 122.354 16.3305C121.073 16.4991 119.867 16.8343 118.813 17.3773C116.156 14.6133 109.92 7.83965 108.62 6.52688C108.47 6.3808 108.3 6.26657 108.093 6.1954L93.2282 0.687766L93.1906 0.672786C92.9644 0.594132 92.7197 0.577276 92.4937 0.616603ZM107.452 180.656C109.619 180.416 111.86 179.837 114.065 179.007C123.692 175.4 132.999 166.971 135.015 159.362C135.843 156.192 135.711 154.014 134.732 152.572C133.771 151.194 132.075 150.596 130.079 150.353C126.517 149.926 122.034 150.686 117.965 151.561C113.651 152.486 109.807 153.546 107.885 153.675C105.399 153.842 102.253 152.746 101.141 150.536C100.614 149.445 100.651 148.271 100.99 147.057C101.311 145.875 102.008 144.651 102.008 143.464C102.008 140.383 101.857 137.246 101.047 134.27C99.7093 129.326 96.9775 123.681 94.8298 117.875C92.5691 111.788 90.9487 105.528 91.9095 99.6755C92.8138 94.1547 94.4151 90.7389 95.5643 87.9654C96.3179 86.1658 96.8833 84.6882 96.7515 82.9765C96.6195 81.233 95.7906 79.2817 93.9255 76.5381C92.3618 74.2441 90.5911 72.0137 88.4245 70.2702C84.4306 67.0491 80.3987 63.5396 75.5758 61.7549C62.3317 56.8485 50.2177 62.6951 41.5138 72.4931C37.2749 77.2779 33.846 83.0046 31.4911 88.9355C33.1113 91.2015 35.5041 94.724 35.994 97.2934C36.352 99.1193 36.3518 101.028 35.862 102.87C35.2026 105.361 34.1667 107.528 32.848 109.459C32.7914 109.578 32.7158 109.689 32.6216 109.786C31.755 111.041 30.7564 112.197 29.6636 113.279C29.5694 113.436 29.4377 113.571 29.2681 113.674C27.4784 115.408 25.4628 116.953 23.3527 118.422C23.2397 118.535 23.1078 118.627 22.9572 118.695C20.866 120.135 18.6992 121.505 16.5515 122.916C15.6848 123.489 14.4038 123.96 13.2546 124.581C12.4821 125 11.7097 125.459 11.4649 126.266C11.1446 127.264 11.446 128.266 11.917 129.195C12.501 130.356 13.3863 131.41 14.1022 132.255C14.9877 133.285 16.1369 134.255 17.4369 135.077C17.5122 135.115 17.5877 135.158 17.6443 135.206C19.3775 136.262 21.3557 137.056 23.2961 137.39C26.48 137.935 29.6072 137.201 31.0955 133.946C31.4158 133.241 32.2448 132.928 32.9607 133.249C33.6766 133.57 33.9782 134.403 33.6578 135.109C31.9624 138.808 28.8347 140.313 25.3493 140.363C22.6177 140.403 19.6599 139.502 17.0413 138.089C15.2893 139.939 13.0661 142.525 11.2763 144.394C11.3328 144.504 11.3895 144.619 11.4272 144.735C11.5402 145.033 11.6154 145.351 11.7285 145.647C11.7473 145.685 11.7661 145.724 11.7661 145.763C12.0299 145.685 12.3881 145.588 12.5011 145.575C14.3662 145.366 15.9862 145.941 17.4934 147.066C18.0397 147.476 18.624 148.239 19.1515 149.081C19.7356 150.042 20.2253 151.107 20.4891 151.451C23.1077 154.953 23.5033 154.583 25.9524 158.202C26.9132 159.626 27.5161 160.664 27.8175 161.483C28.2696 162.675 28.213 163.563 27.8175 164.411C27.7797 164.467 27.7608 164.526 27.7232 164.579C27.6666 164.639 27.6293 164.703 27.5727 164.758C27.5163 164.818 27.4595 164.884 27.3842 164.934C27.2523 165.042 27.0828 165.123 26.8944 165.171L26.8754 165.179C26.8378 165.189 26.7816 165.198 26.7439 165.203C21.7326 165.969 15.9863 167.061 10.9939 165.915C10.1649 165.726 9.43031 165.558 8.75209 165.384C8.11154 167.149 6.90548 170.365 6.0577 172.117C4.98386 174.348 3.77838 177.144 3.49578 179.746C3.25088 181.932 3.70303 183.981 5.85073 185.176C13.8576 189.624 21.7323 190.412 27.8175 191.457C32.3201 192.229 35.9184 193.21 38.1415 195.473C43.2846 200.731 45.4515 207.158 47.3166 213.738C49.0498 219.95 50.5003 226.301 54.2682 231.775C56.8116 235.469 62.0301 239.81 65.6474 244.494C68.3038 247.931 70.1123 251.564 69.8297 255.229C69.7731 255.966 69.6976 256.673 69.641 257.346C72.2786 259.825 74.3133 263.019 74.8031 269.199C75.2741 275.238 72.2787 283.533 69.6788 288.602C69.2832 289.369 68.7179 289.634 68.2092 289.7C67.7383 289.761 67.1734 289.639 66.6082 289.137C66.1373 288.695 65.5342 287.737 65.0067 286.472C63.9705 283.943 63.0284 280.111 63.0284 277.875C63.0284 275.231 63.4618 273.734 64.1024 271.716C64.8748 269.293 65.9112 266.041 66.7025 258.506C66.2126 258.107 65.7228 257.723 65.2329 257.337C62.7084 255.41 59.9766 253.457 57.6217 249.996C53.6654 244.203 51.5364 240.683 44.7353 241.865C42.3992 242.273 39.8559 243.053 37.6328 243.914C30.907 246.526 25.9711 253.629 23.0887 262.295C18.6614 275.57 19.0948 292.586 26.0278 303.677C31.6232 312.599 30.0408 317.871 28.5902 321.717C28.2322 322.629 27.8931 323.451 27.6859 324.223C27.4598 325.036 27.3653 325.773 27.8363 326.511C28.1001 326.942 28.6276 327.167 29.2493 327.331C30.1536 327.571 31.2839 327.631 32.5274 327.579C38.9705 327.313 48.5221 324.073 51.4045 323.047C60.0707 319.957 71.3182 315.339 78.4394 308.288C80.2292 306.524 80.4553 304.269 80.3235 301.887C80.1727 299.065 79.513 296.067 79.5508 293.275C79.6826 285.851 79.9089 277.366 81.6232 269.405C83.3942 261.232 86.7478 253.616 93.0779 248.146C104.909 237.947 115.497 235.868 130.945 235.977C135.108 236.007 138.16 235.705 142.286 236.29C145.809 236.787 148.466 238.281 151.914 239.118C152.649 239.294 154.079 239.844 155.38 240.173C155.681 240.249 156.077 240.301 156.378 240.335C156.284 240.128 156.114 239.934 155.945 239.731C155.362 238.992 154.569 238.297 153.986 237.632C151.16 234.387 147.788 233.947 144.378 233.743C140.365 233.503 136.333 233.535 132.792 231.133C124.972 225.83 121.488 215.491 120.358 206.759C120.112 204.832 120.15 202.31 120.263 200.122C117.984 200.321 115.704 200.172 113.462 199.495C111.352 198.859 109.732 197.482 108.526 195.751C106.868 193.384 105.983 190.343 105.474 187.927C105.21 186.629 105.418 184.884 105.662 183.566C101.782 183.631 98.1454 182.659 95.1876 180.358C94.7355 180.007 94.3023 179.625 93.9067 179.217C84.1289 189.753 73.6163 194.568 59.3737 194.568C53.5146 194.568 46.9207 191.687 44.773 188.951C40.5341 183.523 38.7257 179.685 38.3489 171.693C37.6706 158.144 39.724 145.903 53.3074 138.784C56.7174 136.998 60.9187 136.217 64.7619 135.995C71.6572 135.594 76.1786 138.335 78.7408 142.761C80.5682 145.911 81.6797 150.839 81.0391 155.396C80.6057 158.542 79.3438 161.503 77.0454 163.642C72.8442 167.524 65.8169 168.849 60.3911 167.342C56.5478 166.276 53.5337 163.832 52.6106 160.052C51.5933 155.934 52.5349 153.34 54.2117 150.402C55.0594 148.961 56.7172 147.514 58.7895 146.621C61.8791 145.293 65.8355 145.167 69.1513 147.866C69.7541 148.358 69.8297 149.244 69.3398 149.844C68.85 150.441 67.9456 150.529 67.3428 150.036C64.9878 148.1 62.1244 148.247 59.9201 149.197C58.4506 149.825 57.2638 150.789 56.6797 151.797C55.3422 154.114 54.551 156.145 55.3422 159.389C56.0204 162.162 58.3374 163.857 61.1444 164.638C65.6848 165.9 71.5819 164.838 75.1048 161.583C76.9511 159.885 77.8929 157.51 78.232 155.012C78.7784 151.102 77.8741 146.868 76.3103 144.164C74.2192 140.583 70.5077 138.474 64.9124 138.798C61.4647 139 57.6969 139.665 54.626 141.268C42.1732 147.795 40.5531 159.134 41.156 171.556C41.514 178.814 43.1531 182.298 46.9964 187.227C47.6935 188.103 48.9743 188.953 50.5381 189.695C53.0625 190.893 56.3405 191.758 59.3737 191.758C72.9192 191.758 82.8668 187.084 92.1547 176.96C89.781 173.045 89.9314 168.186 95.1688 166.144C97.2977 165.313 99.2006 164.903 100.99 164.758C101.537 163.927 102.083 163.114 102.686 162.346C105.21 159.115 108.413 156.658 113.35 156.578C116.457 156.527 119.773 156.947 122.449 158.508C123.371 159.047 124.031 160.26 124.069 161.804C124.125 164.663 122.147 168.612 117.795 168.854C113.179 169.112 109.694 168.286 106.266 167.801C105.06 167.629 103.835 167.503 102.591 167.507C101.348 169.504 100.218 171.535 98.9178 173.229C97.8816 174.592 96.8267 175.884 95.7718 177.11C96.1297 177.483 96.5255 177.831 96.9212 178.142C99.7848 180.358 103.345 181.051 107.132 180.687C107.245 180.664 107.339 180.656 107.452 180.656ZM69.2455 261.132C68.4732 267.356 67.5123 270.3 66.7964 272.557C66.25 274.3 65.8543 275.591 65.8543 277.875C65.8543 279.971 66.8152 283.662 67.8137 285.846L67.8515 285.912C70.0746 281.205 72.3728 274.467 71.9772 269.416C71.6757 265.534 70.6585 263.029 69.2455 261.132ZM124.145 47.7995C115.591 43.9512 106.397 41.4941 96.7325 40.8761C88.1983 40.3293 77.8366 39.2768 68.511 40.7301C59.5623 42.1271 51.5743 45.8613 47.3543 54.9064C45.4891 58.9384 45.8095 60.6183 45.9979 64.448C54.6264 57.8354 65.2329 54.9252 76.5744 59.1219C81.6799 61.0134 85.9753 64.6764 90.2141 68.0866C92.588 70.0043 94.5472 72.4406 96.2616 74.9614C98.5223 78.2723 99.4267 80.6713 99.5773 82.7762C99.7281 84.9148 99.1064 86.7837 98.1833 89.0347C97.0905 91.6641 95.5644 94.8963 94.6977 100.131C93.8124 105.53 95.3947 111.288 97.4671 116.901C99.6713 122.792 102.422 128.524 103.779 133.541C104.645 136.753 104.834 140.137 104.834 143.464C104.834 144.693 104.306 145.979 103.892 147.219C103.647 147.948 103.364 148.649 103.684 149.295C103.91 149.733 104.306 150.052 104.777 150.293C105.663 150.754 106.755 150.936 107.697 150.872C109.544 150.749 113.236 149.705 117.362 148.815C121.751 147.874 126.593 147.103 130.418 147.564C133.319 147.916 135.674 148.986 137.049 150.984C138.387 152.919 138.858 155.823 137.746 160.076C135.542 168.368 125.557 177.704 115.063 181.637C112.897 182.451 110.712 183.032 108.564 183.331C108.319 184.373 107.98 186.122 108.243 187.356C108.62 189.114 109.185 191.263 110.222 193.126C111.125 194.791 112.407 196.241 114.272 196.806C116.646 197.521 119.057 197.527 121.449 197.152C121.507 197.141 121.563 197.131 121.619 197.125C122.769 196.938 123.899 196.669 125.03 196.349C128.835 195.268 132.528 193.624 135.938 192.513C147.26 188.828 162.03 184.204 171.827 177.052C178.552 172.153 181.322 164.495 182.434 156.308C183.601 147.813 182.942 138.737 182.754 131.328C182.527 123.113 182.716 115.856 180.512 107.884V107.854C180.436 107.61 180.361 107.367 180.304 107.121C179.852 105.573 179.381 104.239 178.891 103.05C177.327 103.679 175.708 104.159 174.163 104.387C169.962 105.007 166.194 103.872 164.404 99.5163C163.066 96.2896 163.519 93.1491 164.913 90.2333C165.685 88.6116 166.779 87.061 167.984 85.6133C163.104 78.5794 157.433 71.9407 151.122 66.0304C150.067 66.051 149.05 66.0454 148.108 66.0248C144.397 65.9442 141.081 66.2251 138.763 62.2775C137.426 59.9796 136.333 57.0713 135.448 53.8877C131.887 51.6386 128.195 49.6292 124.352 47.8969C124.294 47.8708 124.22 47.8389 124.145 47.7995ZM99.0875 167.881C98.1643 168.078 97.2035 168.363 96.1861 168.76C93.2472 169.909 93.021 172.403 94.1136 174.713C94.9803 173.7 95.8282 172.638 96.676 171.527C97.5238 170.423 98.2963 169.172 99.0875 167.881ZM104.4 164.766C105.154 164.824 105.908 164.913 106.68 165.021C109.92 165.481 113.236 166.295 117.645 166.05C119.829 165.929 120.922 164.163 121.186 162.619C121.261 162.132 121.261 161.666 121.168 161.28C121.129 161.136 121.129 160.99 121.017 160.93C118.774 159.625 115.986 159.346 113.387 159.387C109.449 159.451 106.925 161.488 104.928 164.069C104.74 164.297 104.57 164.529 104.4 164.766ZM6.90586 154.548C6.47254 155.426 5.85075 156.763 5.86959 156.75C5.86959 156.75 5.30432 157.955 5.30432 158.782C5.30432 159.349 5.26683 159.76 5.51175 160.199C5.85086 160.743 6.62302 161.635 7.13169 161.885C7.4708 162.048 7.81004 162.187 8.20567 162.314C8.24335 162.325 8.28116 162.338 8.33767 162.353C8.35651 162.361 8.37495 162.369 8.39379 162.377C9.29808 162.662 10.3723 162.887 11.6346 163.177C15.5721 164.085 20.0368 163.428 24.1439 162.771C23.5786 162.194 22.9757 161.949 21.7134 161.067C17.0224 157.827 17.0037 157.911 11.8982 155.327C10.4287 154.583 8.24337 154.651 7.28255 154.589C7.13183 154.58 7.01889 154.566 6.90586 154.548ZM12.8779 148.36C12.7648 148.402 12.2373 148.572 11.9359 148.626C11.446 148.715 11.0129 148.643 10.7115 148.507C9.80718 148.09 9.33593 147.343 9.0345 146.467C8.94031 146.235 8.884 145.995 8.78981 145.763C8.75213 145.659 8.71434 145.559 8.67666 145.464C8.63898 145.419 8.63889 145.362 8.58237 145.341C8.29978 145.229 8.05509 145.173 7.86668 145.238C7.65945 145.308 7.5276 145.506 7.41456 145.722C7.18849 146.137 7.03779 146.658 6.96242 147.197C6.79288 148.319 6.84903 149.525 7.05626 150.22C7.16929 150.63 7.2827 151.106 7.43341 151.533C7.4711 151.615 7.48955 151.699 7.50839 151.775C8.43153 151.804 11.5024 151.97 13.1791 152.823C18.1339 155.329 18.4545 155.409 22.4673 158.173C20.9789 156.216 20.3384 155.95 18.2095 153.13C17.9835 152.808 17.5311 151.928 17.0036 151.014C16.6267 150.346 16.2125 149.628 15.7792 149.308C14.9125 148.647 13.9705 148.258 12.8779 148.36ZM196.225 103.893C192.645 103.947 188.99 102.782 184.223 100.322C183.356 100.861 182.434 101.389 181.473 101.882C182 103.172 182.509 104.627 183.018 106.333C183.056 106.485 183.093 106.636 183.149 106.786C184.845 108.599 195.169 119.642 195.903 120.569C196.111 120.822 196.225 121.137 196.205 121.458C196.111 127.558 197.938 130.882 200.293 132.62C202.14 133.991 204.269 134.372 205.814 134.431L200.971 126.888C200.614 126.307 200.708 125.546 201.235 125.086L209.091 118.085C209.506 117.728 210.071 117.63 210.58 117.83C210.58 117.83 212.502 118.546 218.04 123.823C218.078 121.195 217.38 119.204 216.25 117.704C212.727 112.992 205.436 113.061 205.436 113.061C205.06 113.061 204.682 112.9 204.419 112.616L196.225 103.893ZM74.2006 117.406C73.9745 118.072 73.6542 118.543 73.2397 118.867C72.618 119.335 71.8268 119.496 70.9413 119.601C69.9806 119.716 68.8875 119.74 67.7383 119.811C66.1935 119.91 64.1589 119.766 62.7083 119.028C61.7663 118.548 60.2214 117.779 59.3925 117.13C58.3187 116.283 57.1128 115.607 55.9824 114.857C55.2477 114.384 53.458 112.955 51.8378 112.463C50.877 112.172 49.9729 112.176 49.1816 112.526C48.6164 112.787 48.1077 113.231 47.7121 113.958C45.7716 117.591 46.657 121.452 48.993 124.5C51.2349 127.412 54.7958 129.54 58.1869 129.942C60.7869 130.25 64.046 131.192 66.6271 130.847C67.3618 130.747 68.6241 130.232 69.114 129.673C69.7169 128.977 69.8108 128.212 69.2644 127.451C68.8876 126.931 68.2663 126.633 67.701 126.352C64.0839 124.594 64.0649 124.789 60.5796 122.781C57.0567 120.738 56.2839 120.2 53.213 117.893C52.5913 117.427 51.6875 117.551 51.2353 118.17C50.7643 118.788 50.8771 119.671 51.4988 120.137C54.7016 122.532 55.4929 123.088 59.1666 125.21C62.1245 126.925 62.6521 127.075 64.8752 128.12C62.8027 128.051 60.4664 127.382 58.526 127.151C55.8319 126.833 53.0246 125.109 51.2537 122.796C49.577 120.618 48.8238 117.875 50.1991 115.278C50.3309 115.043 50.5567 115.043 50.7827 115.088C51.0465 115.141 51.3105 115.244 51.5743 115.368C52.7612 115.917 53.8915 116.864 54.4191 117.206C55.4929 117.909 56.6232 118.538 57.6405 119.332C58.5826 120.077 60.3535 120.979 61.4274 121.528C63.2925 122.484 65.9111 122.742 67.9268 122.615C69.3398 122.524 70.6587 122.498 71.8268 122.315C73.2586 122.089 74.4642 121.62 75.4061 120.706C76.2162 119.935 76.8378 118.827 77.1957 117.178V117.156C77.4031 116.141 77.3465 115.073 77.2146 114.045C76.4987 108.786 73.4279 102.589 68.7746 99.7804C65.0067 97.5069 60.052 96.4769 55.7189 96.1042C53.4959 95.9132 51.2539 95.8982 49.0308 95.7858C48.5597 95.7634 47.9005 95.6716 47.2976 95.7147C46.6571 95.7615 46.0545 95.9488 45.5834 96.3065C44.0763 97.4395 43.2846 99.3946 43.3224 101.348C43.36 103.316 44.2457 105.237 45.9036 106.299C46.3369 106.58 47.0529 106.82 47.9007 106.972C49.4078 107.241 51.3856 107.303 52.2145 107.38C56.1709 107.752 57.7345 107.82 61.6343 109.048C66.608 110.611 70.2254 114.239 74.2006 117.406ZM74.3321 113.891C73.5974 109.517 71.1294 104.487 67.305 102.181C63.8951 100.123 59.3928 99.2392 55.4742 98.902C53.2889 98.7148 51.0846 98.7017 48.8803 98.5912C48.5978 98.5781 48.2586 98.5331 47.8818 98.5163C47.7311 98.5088 47.5805 98.5069 47.4485 98.5219C47.3921 98.5294 47.3354 98.5126 47.2788 98.5444C46.4687 99.1548 46.1294 100.237 46.1482 101.288C46.1672 102.327 46.563 103.378 47.4297 103.938C47.75 104.138 48.3525 104.211 48.993 104.297C50.3118 104.473 51.8003 104.52 52.4785 104.584C56.6797 104.981 58.3378 105.065 62.5013 106.37C67.117 107.824 70.6584 110.897 74.3321 113.891ZM26.2914 109.399L26.1221 109.37C25.7641 109.303 22.5427 108.848 21.0543 108.576C21.45 109.183 22.1091 109.861 23.1453 110.305C23.3337 110.39 24.0121 110.539 24.8223 110.689C24.9919 110.685 25.161 110.716 25.3493 110.78C26.2726 110.94 27.29 111.08 27.9306 111.106C28.3263 110.704 28.7032 110.292 29.0611 109.867C28.138 109.719 27.2145 109.563 26.2914 109.399ZM28.6463 98.5556C28.1188 101.387 27.8552 104.172 27.9117 106.829C28.9102 107 29.9089 107.159 30.9074 107.312C31.6421 106.125 32.2638 104.84 32.7348 103.434C32.0754 102.421 31.077 100.923 30.493 100.241C30.0032 99.6643 29.4377 99.1417 28.8348 98.6867C28.7784 98.6418 28.7216 98.5987 28.6463 98.5556ZM169.622 88.046C169.209 88.5872 168.812 89.1433 168.436 89.7126C166.721 92.3887 165.742 95.3607 167.023 98.4508C168.248 101.419 170.885 102.031 173.748 101.608C175.048 101.415 176.405 101.022 177.723 100.507C175.897 96.9189 173.73 94.46 170.81 89.8775C170.432 89.2632 170.037 88.6527 169.622 88.046ZM186.861 98.4939C193.38 101.632 197.505 101.844 203.383 99.2185C206.585 97.7934 208.733 94.7577 210.203 93.1266C213.595 89.3175 218.473 83.3042 220.791 77.0981C222.223 73.2385 222.655 69.3039 220.866 65.8544C218.756 61.8486 215.723 60.9348 212.087 61.1127C208.394 74.5812 198.24 87.1508 188.669 96.9151C188.198 97.3927 187.595 97.9301 186.861 98.4939ZM30.3232 92.1509C29.9277 93.3213 29.5884 94.4937 29.2869 95.6642C29.7203 95.8982 30.1534 96.151 30.5302 96.4432C31.3027 97.0218 32.0188 97.6886 32.6593 98.4226C32.8666 98.6717 33.1301 99.0238 33.4128 99.4226C33.3939 98.8852 33.3188 98.3514 33.2246 97.8271C32.8855 96.121 31.5667 93.9619 30.3232 92.1509ZM180.304 99.3458C181.36 98.8085 182.358 98.2204 183.244 97.6305C183.337 97.5612 183.413 97.5032 183.508 97.4545C184.845 96.5687 185.938 95.681 186.653 94.9544C195.64 85.7706 205.267 74.0643 209.054 61.4516C208.583 61.5246 208.112 61.6089 207.603 61.6969C205.117 62.1445 202.855 62.7288 200.783 63.433C200.915 65.8731 200.915 68.7196 200.256 71.3077C199.558 74.1448 198.108 76.6767 195.451 78.2273C192.324 80.0495 189.347 80.6863 186.465 80.293C184.298 79.9989 182.188 79.1037 180.116 77.6337C178.609 79.055 177.064 80.5382 175.407 82.0683C174.201 83.1732 172.844 84.4373 171.544 85.8268C172.11 86.6714 172.655 87.5198 173.202 88.3756C176.198 93.0966 178.42 95.6623 180.304 99.3458ZM169.924 83.4597C171.13 82.1956 172.374 81.0364 173.485 80.0102C175.029 78.5794 176.5 77.1899 177.913 75.8528C176.725 74.7741 175.558 73.51 174.408 72.0624C173.579 71.0249 170.621 66.7345 167.777 61.4086C164.517 64.2494 159.637 65.4067 154.965 65.8281C160.504 71.2365 165.516 77.1879 169.924 83.4597ZM198.014 64.4872C191.74 67.1446 187.143 71.0287 182.188 75.6673C183.715 76.6655 185.26 77.2929 186.861 77.5101C189.141 77.8247 191.514 77.261 194.019 75.8041C196.525 74.3434 197.467 71.6579 197.845 68.8956C198.033 67.4143 198.07 65.8993 198.014 64.4872ZM182.754 28.7765C180.361 29.2353 178.044 29.9957 175.897 31.0482C173.409 32.2673 170.49 33.5838 168.172 35.5839C169.98 36.9977 171.864 38.6775 173.353 40.5146C175.331 42.9492 176.612 45.6665 176.442 48.4044C176.33 50.1423 175.35 52.279 173.955 54.3503C172.731 56.1705 171.224 57.9552 169.887 59.3654C172.731 64.8074 175.783 69.2721 176.612 70.3133C177.723 71.7029 178.835 72.9126 179.965 73.9239C185.542 68.6952 190.628 64.3786 197.806 61.5302C197.769 61.1463 197.731 60.783 197.694 60.446C196.564 48.4157 189.668 38.3311 182.754 28.7765ZM139.159 56.3428C139.763 58.0133 140.44 59.5452 141.212 60.8654C142.135 62.4329 143.304 62.9404 144.641 63.1071C145.697 63.24 146.808 63.1951 147.976 63.212C145.15 60.7681 142.211 58.4684 139.159 56.3428ZM152.196 63.212C157.038 63.0678 162.521 62.2868 165.949 59.2624C166.118 59.1275 166.269 58.9796 166.439 58.8167C164.969 55.826 163.632 52.6386 162.746 49.5955C161.465 45.1666 161.201 41.0203 162.671 38.0633C163.048 37.3198 163.481 36.6307 163.971 35.9902C163.462 35.6513 163.01 35.3422 162.577 35.0689C154.269 29.6717 144.246 24.1921 134.581 20.9842C134.148 24.0442 134.298 27.7653 134.562 30.3571C135.108 36.0914 135.957 44.7676 137.86 52.0993C142.928 55.3747 147.732 59.1145 152.196 63.212ZM209.826 58.5114C209.94 58.0788 210.014 57.6425 210.109 57.2062C210.938 52.8128 211.653 47.7134 211.126 42.8986C210.618 38.3124 208.979 33.9826 205.06 30.8871C203.703 29.8009 201.574 29.2092 199.276 28.8346C195.471 28.2204 191.138 28.2597 188.124 28.2597C187.388 28.2597 186.653 28.2896 185.901 28.3496C192.758 37.9585 199.37 48.1554 200.52 60.1838L200.539 60.5471C202.554 59.901 204.721 59.3598 207.113 58.9309C208.037 58.7642 208.96 58.62 209.826 58.5114ZM166.232 37.6401C165.854 38.1551 165.516 38.7094 165.215 39.3068C164.593 40.5465 164.423 42.0578 164.517 43.7226C164.668 46.4868 165.591 49.6404 166.835 52.7885C167.362 54.0937 167.926 55.399 168.53 56.6743C169.585 55.517 170.697 54.1649 171.601 52.7922C172.694 51.1891 173.541 49.5767 173.616 48.2321C173.748 46.1497 172.656 44.1309 171.149 42.2788C169.736 40.5409 167.946 38.9603 166.232 37.6401ZM134.506 50.0225C132.999 43.1927 132.245 35.7711 131.736 30.6249C131.453 27.7241 131.34 23.5404 131.868 20.1452C129.438 19.4674 125.84 18.7032 122.732 19.1133C120.715 19.3793 118.926 20.1322 118.021 21.9617C116.891 24.2558 117.569 27.6042 118.794 31.0968C120.734 36.612 124.182 42.423 125.858 45.4999C128.817 46.8538 131.699 48.3651 134.506 50.0225ZM116.571 19.104C113.933 16.3455 108.432 10.3922 106.812 8.71795L99.2761 5.922C98.8993 6.87895 98.5411 7.50256 98.0701 7.95201C98.0324 7.98759 97.9946 8.02317 97.957 8.05688C97.9382 8.0625 97.9381 8.07562 97.9381 8.07562C97.9192 8.08498 97.9004 8.10557 97.9004 8.10557C97.4106 8.49884 96.7703 8.78162 95.8095 8.99511C96.3558 11.2611 97.3167 15.3529 97.3167 15.3529C100.84 19.222 110.825 29.5144 118.474 37.6083C117.606 35.7861 116.778 33.8871 116.137 32.0201C114.631 27.711 114.084 23.5536 115.478 20.7239C115.779 20.1153 116.137 19.5759 116.571 19.104ZM180.945 26.2915C180.116 25.1397 179.287 23.9974 178.477 22.8569C174.275 16.9448 170.922 11.2929 163.01 10.6637C158.205 10.2817 150.18 9.68614 143.775 11.4914C139.875 12.5869 136.559 14.5626 135.222 18.237C145.188 21.5105 155.55 27.1473 164.122 32.7167C164.649 33.0594 165.252 33.4564 165.893 33.8984C168.492 31.5238 171.789 29.9283 174.653 28.5274C176.631 27.5537 178.76 26.8046 180.945 26.2915ZM108.451 22.3663C109.713 21.3306 110.956 20.2951 112.218 19.2594C112.821 18.7632 112.897 17.8774 112.407 17.28C111.899 16.6845 111.013 16.602 110.41 17.0984C109.148 18.1339 107.904 19.1696 106.642 20.2051C106.039 20.7015 105.964 21.5873 106.454 22.1846C106.962 22.7801 107.848 22.8625 108.451 22.3663ZM105.305 18.9729C106.548 17.9355 107.81 16.8998 109.054 15.8642C109.657 15.3679 109.732 14.4821 109.242 13.8867C108.733 13.2892 107.848 13.2087 107.245 13.7031C106.002 14.7388 104.74 15.7762 103.496 16.8118C102.893 17.3062 102.799 18.1939 103.308 18.7894C103.797 19.3867 104.702 19.4674 105.305 18.9729ZM102.045 15.662C103.289 14.6263 104.551 13.5889 105.795 12.5532C106.397 12.0589 106.491 11.1712 105.983 10.5757C105.493 9.98016 104.589 9.89776 103.986 10.3921C102.743 11.4296 101.48 12.4653 100.236 13.5008C99.6336 13.9972 99.5397 14.8829 100.048 15.4784C100.538 16.0758 101.443 16.1563 102.045 15.662Z" fill="#040828" stroke="#040828" stroke-width="6" mask="url(#path-1-inside-1_34_8)"/>
</svg>
